<svg width="49" height="49" viewBox="0 0 49 49" fill="none" xmlns="http://www.w3.org/2000/svg">
<path d="M29.6042 16.3333C29.6042 13.6259 28.5286 11.0294 26.6142 9.11495C24.6998 7.20052 22.1033 6.125 19.3958 6.125C16.6884 6.125 14.0919 7.20052 12.1775 9.11495C10.263 11.0294 9.1875 13.6259 9.1875 16.3333C9.1875 19.0408 10.263 21.6373 12.1775 23.5517C14.0919 25.4661 16.6884 26.5417 19.3958 26.5417C22.1033 26.5417 24.6998 25.4661 26.6142 23.5517C28.5286 21.6373 29.6042 19.0408 29.6042 16.3333Z" stroke="url(#paint0_linear_752_1074)" stroke-width="3" stroke-linecap="round" stroke-linejoin="round"/>
<path d="M5.10449 40.8334C5.10399 38.4222 5.71359 36.05 6.87653 33.9377C8.03947 31.8254 9.71794 30.0417 11.7557 28.7526C13.7935 27.4635 16.1242 26.711 18.5311 26.565C20.9379 26.4191 23.3426 26.8845 25.5212 27.9179M38.792 36.7501L36.7503 35.7293V32.6668M43.8962 35.7293C43.8962 37.6245 43.1433 39.442 41.8032 40.7821C40.4631 42.1222 38.6455 42.8751 36.7503 42.8751C34.8551 42.8751 33.0376 42.1222 31.6975 40.7821C30.3574 39.442 29.6045 37.6245 29.6045 35.7293C29.6045 33.8341 30.3574 32.0165 31.6975 30.6764C33.0376 29.3363 34.8551 28.5834 36.7503 28.5834C38.6455 28.5834 40.4631 29.3363 41.8032 30.6764C43.1433 32.0165 43.8962 33.8341 43.8962 35.7293Z" stroke="url(#paint1_linear_752_1074)" stroke-width="3" stroke-linecap="round" stroke-linejoin="round"/>
<defs>
<linearGradient id="paint0_linear_752_1074" x1="7.14582" y1="-0.291669" x2="42.0353" y2="3.76688" gradientUnits="userSpaceOnUse">
<stop stop-color="#5EE0B6"/>
<stop offset="1" stop-color="#0F2A20"/>
</linearGradient>
<linearGradient id="paint1_linear_752_1074" x1="1.22529" y1="21.4046" x2="63.6493" y2="38.6476" gradientUnits="userSpaceOnUse">
<stop stop-color="#5EE0B6"/>
<stop offset="1" stop-color="#0F2A20"/>
</linearGradient>
</defs>
</svg>
