<svg width="51" height="51" viewBox="0 0 51 51" fill="none" xmlns="http://www.w3.org/2000/svg">
<path d="M22.0656 20.9526C22.0656 20.5016 22.1544 20.0551 22.327 19.6384C22.4995 19.2218 22.7525 18.8432 23.0714 18.5244C23.3902 18.2055 23.7688 17.9525 24.1854 17.78C24.6021 17.6074 25.0486 17.5186 25.4996 17.5186C25.9505 17.5186 26.3971 17.6074 26.8137 17.78C27.2303 17.9525 27.6089 18.2055 27.9278 18.5244C28.2466 18.8432 28.4996 19.2218 28.6722 19.6384C28.8447 20.0551 28.9336 20.5016 28.9336 20.9526C28.9336 21.8633 28.5718 22.7368 27.9278 23.3808C27.2838 24.0248 26.4103 24.3866 25.4996 24.3866C24.5888 24.3866 23.7154 24.0248 23.0714 23.3808C22.4274 22.7368 22.0656 21.8633 22.0656 20.9526ZM22.9198 25.6849C21.6589 25.6861 20.4499 26.1875 19.5582 27.0791C18.6666 27.9707 18.1652 29.1797 18.1641 30.4407V32.4169C18.1641 33.2988 18.8781 34.0107 19.7578 34.0107H31.2434C31.6661 34.0107 32.0715 33.8428 32.3704 33.5439C32.6693 33.245 32.8372 32.8396 32.8372 32.4169V30.4407C32.8361 29.1797 32.3346 27.9707 31.443 27.0791C30.5514 26.1875 29.3424 25.6861 28.0814 25.6849H22.9198ZM21.3516 30.4407C21.3516 29.5758 22.0528 28.8724 22.9198 28.8724H28.0793C28.9463 28.8724 29.6497 29.5737 29.6497 30.4407V30.8232H21.3516V30.4407Z" fill="url(#paint0_linear_752_1078)"/>
<path d="M27.0938 4.25C27.0938 3.82731 26.9258 3.42193 26.627 3.12305C26.3281 2.82416 25.9227 2.65625 25.5 2.65625C25.0773 2.65625 24.6719 2.82416 24.373 3.12305C24.0742 3.42193 23.9062 3.82731 23.9062 4.25V6.97425C19.5415 7.34966 15.4495 9.25413 12.3518 12.3518C9.25413 15.4495 7.34966 19.5415 6.97425 23.9062H4.25C3.82731 23.9062 3.42193 24.0742 3.12305 24.373C2.82416 24.6719 2.65625 25.0773 2.65625 25.5C2.65625 25.9227 2.82416 26.3281 3.12305 26.627C3.42193 26.9258 3.82731 27.0938 4.25 27.0938H6.97425C7.34966 31.4585 9.25413 35.5505 12.3518 38.6482C15.4495 41.7459 19.5415 43.6503 23.9062 44.0257V46.75C23.9062 47.1727 24.0742 47.5781 24.373 47.877C24.6719 48.1758 25.0773 48.3438 25.5 48.3438C25.9227 48.3438 26.3281 48.1758 26.627 47.877C26.9258 47.5781 27.0938 47.1727 27.0938 46.75V44.0257C31.4585 43.6503 35.5505 41.7459 38.6482 38.6482C41.7459 35.5505 43.6503 31.4585 44.0257 27.0938H46.75C47.1727 27.0938 47.5781 26.9258 47.877 26.627C48.1758 26.3281 48.3438 25.9227 48.3438 25.5C48.3438 25.0773 48.1758 24.6719 47.877 24.373C47.5781 24.0742 47.1727 23.9062 46.75 23.9062H44.0257C43.6503 19.5415 41.7459 15.4495 38.6482 12.3518C35.5505 9.25413 31.4585 7.34966 27.0938 6.97425V4.25ZM11.1562 27.0938C11.5789 27.0938 11.9843 26.9258 12.2832 26.627C12.5821 26.3281 12.75 25.9227 12.75 25.5C12.75 25.0773 12.5821 24.6719 12.2832 24.373C11.9843 24.0742 11.5789 23.9062 11.1562 23.9062H10.1745C10.5399 20.3891 12.104 17.1048 14.6044 14.6044C17.1048 12.104 20.3891 10.5399 23.9062 10.1745V11.1562C23.9062 11.5789 24.0742 11.9843 24.373 12.2832C24.6719 12.5821 25.0773 12.75 25.5 12.75C25.9227 12.75 26.3281 12.5821 26.627 12.2832C26.9258 11.9843 27.0938 11.5789 27.0938 11.1562V10.1745C30.6109 10.5399 33.8952 12.104 36.3956 14.6044C38.896 17.1048 40.4601 20.3891 40.8255 23.9062H39.8438C39.4211 23.9062 39.0157 24.0742 38.7168 24.373C38.4179 24.6719 38.25 25.0773 38.25 25.5C38.25 25.9227 38.4179 26.3281 38.7168 26.627C39.0157 26.9258 39.4211 27.0938 39.8438 27.0938H40.8255C40.4601 30.6109 38.896 33.8952 36.3956 36.3956C33.8952 38.896 30.6109 40.4601 27.0938 40.8255V39.8438C27.0938 39.4211 26.9258 39.0157 26.627 38.7168C26.3281 38.4179 25.9227 38.25 25.5 38.25C25.0773 38.25 24.6719 38.4179 24.373 38.7168C24.0742 39.0157 23.9062 39.4211 23.9062 39.8438V40.8255C20.3891 40.4601 17.1048 38.896 14.6044 36.3956C12.104 33.8952 10.5399 30.6109 10.1745 27.0938H11.1562Z" fill="url(#paint1_linear_752_1078)"/>
<defs>
<linearGradient id="paint0_linear_752_1078" x1="16.6967" y1="12.3353" x2="41.8412" y2="14.9377" gradientUnits="userSpaceOnUse">
<stop stop-color="#5EE0B6"/>
<stop offset="1" stop-color="#0F2A20"/>
</linearGradient>
<linearGradient id="paint1_linear_752_1078" x1="-1.91254" y1="-11.7027" x2="76.1615" y2="-2.62064" gradientUnits="userSpaceOnUse">
<stop stop-color="#5EE0B6"/>
<stop offset="1" stop-color="#0F2A20"/>
</linearGradient>
</defs>
</svg>
