<svg width="44" height="45" viewBox="0 0 44 45" fill="none" xmlns="http://www.w3.org/2000/svg">
<path d="M22.0003 7.5C18.1105 7.5 14.38 9.08035 11.6294 11.8934C8.87889 14.7064 7.33366 18.5218 7.33366 22.5H12.8337C13.8061 22.5 14.7387 22.8951 15.4264 23.5984C16.114 24.3016 16.5003 25.2554 16.5003 26.25V35.625C16.5003 36.6196 16.114 37.5734 15.4264 38.2766C14.7387 38.9799 13.8061 39.375 12.8337 39.375H7.33366C6.3612 39.375 5.42857 38.9799 4.74093 38.2766C4.0533 37.5734 3.66699 36.6196 3.66699 35.625V22.5C3.66699 12.1444 11.8748 3.75 22.0003 3.75C32.1258 3.75 40.3337 12.1444 40.3337 22.5V35.625C40.3337 36.6196 39.9473 37.5734 39.2597 38.2766C38.5721 38.9799 37.6395 39.375 36.667 39.375H31.167C30.1945 39.375 29.2619 38.9799 28.5743 38.2766C27.8866 37.5734 27.5003 36.6196 27.5003 35.625V26.25C27.5003 25.2554 27.8866 24.3016 28.5743 23.5984C29.2619 22.8951 30.1945 22.5 31.167 22.5H36.667C36.667 18.5218 35.1218 14.7064 32.3712 11.8934C29.6207 9.08035 25.8902 7.5 22.0003 7.5ZM7.33366 26.25V35.625H12.8337V26.25H7.33366ZM31.167 26.25V35.625H36.667V26.25H31.167Z" fill="url(#paint0_linear_752_1081)"/>
<defs>
<linearGradient id="paint0_linear_752_1081" x1="0.000293863" y1="-7.44643" x2="62.6093" y2="0.0495778" gradientUnits="userSpaceOnUse">
<stop stop-color="#5EE0B6"/>
<stop offset="1" stop-color="#0F2A20"/>
</linearGradient>
</defs>
</svg>
