<svg width="44" height="44" viewBox="0 0 44 44" fill="none" xmlns="http://www.w3.org/2000/svg">
<g clip-path="url(#clip0_752_1072)">
<path d="M11.917 17.875V24.2917L18.3337 28.4167L24.7503 24.2917V17.875L18.3337 13.75L11.917 17.875ZM11.917 17.875L6.99083 13.1633M32.443 36.3275L21.5017 26.3798M33.917 21.0833H24.7503M14.579 26.004L6.75066 34.3548M29.9167 9.64517L23.159 16.852M8.25033 12.375L4.58366 14.6667L0.916992 12.375V8.70833L4.58366 6.41667L8.25033 8.70833V12.375ZM35.7503 8.70833L32.0837 11L28.417 8.70833V5.04167L32.0837 2.75L35.7503 5.04167V8.70833ZM8.25033 38.9583L4.58366 41.25L0.916992 38.9583V35.2917L4.58366 33L8.25033 35.2917V38.9583ZM38.5003 40.7917L34.8337 43.0833L31.167 40.7917V37.125L34.8337 34.8333L38.5003 37.125V40.7917ZM41.2503 22.9167L37.5837 25.2083L33.917 22.9167V19.25L37.5837 16.9583L41.2503 19.25V22.9167Z" stroke="url(#paint0_linear_752_1072)" stroke-width="3" stroke-miterlimit="10" stroke-linecap="round" stroke-linejoin="round"/>
</g>
<defs>
<linearGradient id="paint0_linear_752_1072" x1="-3.11638" y1="-9.92619" x2="65.8081" y2="-1.90849" gradientUnits="userSpaceOnUse">
<stop stop-color="#5EE0B6"/>
<stop offset="1" stop-color="#0F2A20"/>
</linearGradient>
<clipPath id="clip0_752_1072">
<rect width="44" height="44" fill="white"/>
</clipPath>
</defs>
</svg>
