<svg width="80" height="11" viewBox="0 0 80 11" fill="none" xmlns="http://www.w3.org/2000/svg">
<path d="M15.0638 9.16585V6.65075L12.8281 1.83865H14.2505L15.7283 5.00733L17.1879 1.83865H18.5739L16.3381 6.65075V9.16585H15.0631H15.0638Z" fill="#017340"/>
<path d="M19.24 9.16585L22.0848 1.83938H23.0637L25.9456 9.16585H24.5415L23.8026 7.26494H21.3823L20.6252 9.16585H19.2393H19.24ZM21.8448 5.95778H23.3044L22.5837 3.7403L21.8448 5.95778Z" fill="#017340"/>
<path d="M26.625 9.16585V1.83865H28.0474L30.8922 7.18543V1.83865H32.1672V9.16512L30.7572 9.16877L27.9 3.83877V9.16512H26.625V9.16585Z" fill="#017340"/>
<path d="M33.4629 9.16585V1.83865H34.7379V9.16512H33.4629V9.16585Z" fill="#017340"/>
<path d="M43.7155 7.16573H45.1751C44.9228 7.81931 44.5011 8.34596 43.9096 8.74497C43.3187 9.1447 42.687 9.34383 42.016 9.34383C41.0429 9.34383 40.2084 8.96453 39.5126 8.20518C38.8167 7.44584 38.4688 6.54498 38.4688 5.50189C38.4688 4.45879 38.8138 3.5645 39.5031 2.81902C40.1924 2.0728 41.0181 1.70006 41.9788 1.70006C42.6805 1.70006 43.3319 1.90285 43.9322 2.30914C44.5325 2.71544 44.9592 3.25814 45.2116 3.93797H43.7703C43.5543 3.65422 43.2881 3.43175 42.9715 3.26981C42.6542 3.10788 42.3231 3.02691 41.9788 3.02691C41.3631 3.02691 40.8365 3.27419 40.3988 3.76947C39.9612 4.26476 39.7431 4.85561 39.7431 5.54201C39.7431 6.22841 39.9677 6.77986 40.4171 7.27442C40.8664 7.76971 41.393 8.01699 41.997 8.01699C42.3296 8.01699 42.6374 7.94623 42.9205 7.80399C43.2035 7.66248 43.4683 7.44948 43.7148 7.16573H43.7155Z" fill="#017340"/>
<path d="M48.8872 1.68036C49.7676 1.68036 50.5204 2.05529 51.1455 2.80443C51.7706 3.55356 52.0828 4.45952 52.0828 5.52231C52.0828 6.5851 51.7685 7.47647 51.1404 8.21539C50.5124 8.95504 49.7611 9.32413 48.8865 9.32413C48.0119 9.32413 47.2496 8.9565 46.6187 8.2205C45.987 7.48449 45.6719 6.5851 45.6719 5.52231C45.6719 4.45952 45.9826 3.54553 46.6048 2.79932C47.227 2.05311 47.9871 1.68036 48.8865 1.68036H48.8872ZM48.8872 3.00721C48.308 3.00721 47.8186 3.24792 47.4181 3.73008C47.0177 4.21224 46.8178 4.79652 46.8178 5.48292C46.8178 6.16932 47.0191 6.76819 47.4225 7.25983C47.8259 7.75147 48.3139 7.99729 48.8865 7.99729C49.4591 7.99729 49.9237 7.75001 50.3366 7.25472C50.7494 6.75943 50.9551 6.16932 50.9551 5.48219C50.9551 4.79506 50.7553 4.21151 50.3548 3.72935C49.9544 3.24792 49.4649 3.00648 48.8865 3.00648L48.8872 3.00721Z" fill="#017340"/>
<path d="M52.9316 9.16585V1.83865H54.354L57.1988 7.18543V1.83865H58.4739V9.16512L57.0639 9.16877L54.2067 3.83877V9.16512H52.9316V9.16585Z" fill="#017340"/>
<path d="M60.4739 9.16585V3.1655H59.2178V1.83865H63.005V3.1655H61.7299V9.16585H60.4739Z" fill="#017340"/>
<path d="M63.7236 9.16585V1.83865H68.6378V3.1655H64.9979V4.84904H68.6378V6.15619H64.9979V7.83973H68.6378V9.16658H63.7236V9.16585Z" fill="#017340"/>
<path d="M69.9316 9.16585V1.83865H71.354L74.1988 7.18543V1.83865H75.4739V9.16512L74.0639 9.16877L71.2067 3.83877V9.16512H69.9316V9.16585Z" fill="#017340"/>
<path d="M77.469 9.16585V3.1655H76.2129V1.83865H80.0001V3.1655H78.725V9.16585H77.469Z" fill="#017340"/>
<path d="M5.27195 4.2881C5.20119 4.21005 5.13336 4.13565 5.06625 4.06125C4.82845 3.79938 4.59066 3.53751 4.35141 3.2771C4.27044 3.18957 4.19093 3.10058 4.08443 3.04076C3.74962 2.85257 3.35938 2.97366 3.16389 3.25887C2.98956 3.51344 3.00998 3.87305 3.20766 4.09553C3.3426 4.24798 3.48411 4.39387 3.62416 4.54267C3.82621 4.75786 4.02973 4.97158 4.23105 5.1875C4.25512 5.21376 4.27773 5.24877 4.28357 5.28305C4.29816 5.36475 4.2646 5.42092 4.19385 5.45593C4.13476 5.48584 4.07422 5.47344 4.01587 5.41362C3.92396 5.31952 3.83424 5.22397 3.74452 5.12768C3.6548 5.03213 3.56581 4.93511 3.47609 4.83956C3.30905 4.6623 3.1369 4.4887 2.97497 4.30707C2.85461 4.17212 2.78094 4.00946 2.74885 3.83001C2.708 3.60316 2.74009 3.38798 2.84732 3.183C3.00633 2.8781 3.26018 2.69647 3.59499 2.64687C3.91739 2.59945 4.21062 2.68553 4.44623 2.92114C4.5768 3.05171 4.69934 3.19176 4.82408 3.32816C5.0378 3.56085 5.25079 3.795 5.46452 4.02769C5.47181 4.03572 5.48275 4.04082 5.49661 4.05176C5.56445 3.97809 5.6301 3.90588 5.69648 3.83366C5.88467 3.62796 6.07359 3.42226 6.26179 3.21656C6.35005 3.12027 6.43466 3.01888 6.52803 2.92697C6.71403 2.74388 6.93578 2.64249 7.20056 2.63666C7.35301 2.63301 7.4989 2.65416 7.64041 2.71325C7.74326 2.75628 7.83444 2.81829 7.91832 2.88904C7.98689 2.9474 7.99637 3.05171 7.94312 3.11735C7.88623 3.18738 7.79797 3.19467 7.717 3.13924C7.65135 3.09474 7.58716 3.04514 7.51641 3.01159C7.24506 2.88248 6.92484 2.9722 6.75196 3.15674C6.61994 3.2968 6.49156 3.43977 6.36172 3.58055C6.23188 3.72206 6.10058 3.86284 5.97074 4.00435C5.83944 4.14732 5.70888 4.29175 5.57758 4.43545C5.4667 4.55653 5.35437 4.67616 5.24496 4.79871C5.14065 4.91615 5.04218 5.03942 4.97142 5.1802C4.90358 5.31442 4.8569 5.45666 4.83283 5.60619C4.80365 5.78709 4.79271 5.96872 4.79344 6.15254C4.79417 6.41295 4.78979 6.67409 4.78979 6.9345C4.78979 7.22773 4.7876 7.5217 4.79563 7.81493C4.80146 8.0148 4.89337 8.17819 5.04655 8.30657C5.13408 8.38024 5.2362 8.42839 5.34708 8.451C5.45066 8.47215 5.5557 8.47069 5.66 8.44443C5.7862 8.41307 5.89488 8.35107 5.98387 8.2577C6.11152 8.12421 6.18738 7.96665 6.18811 7.77846C6.18957 7.48012 6.18446 7.18178 6.1903 6.88344C6.19322 6.7412 6.20562 6.59823 6.22677 6.45672C6.2844 6.06866 6.42737 5.71196 6.64109 5.38372C6.74029 5.23199 6.85846 5.09559 6.981 4.96283C7.11595 4.81621 7.25016 4.66887 7.38438 4.52152C7.50911 4.38512 7.63384 4.24871 7.76004 4.11304C8.00658 3.84752 8.23271 3.56669 8.40193 3.24428C8.53104 2.997 8.62441 2.73732 8.65067 2.45794C8.67182 2.23401 8.65067 2.01372 8.57481 1.79926C8.4654 1.48852 8.26918 1.24416 8.01534 1.03992C7.80088 0.867041 7.5609 0.740119 7.30487 0.646751C7.07656 0.563595 6.84241 0.495028 6.60243 0.449803C6.43028 0.416978 6.25741 0.387071 6.08453 0.359353C6.00575 0.346952 5.92625 0.341117 5.84674 0.338199C5.68262 0.332364 5.51849 0.32361 5.35437 0.328716C5.0998 0.33674 4.84596 0.359353 4.59358 0.404578C4.36453 0.446156 4.13914 0.498675 3.91812 0.568701C3.60082 0.669364 3.29592 0.800662 3.00342 0.961138C2.71091 1.12161 2.43592 1.30689 2.17916 1.51989C1.96617 1.69714 1.76776 1.88898 1.5854 2.0976C1.41253 2.29528 1.25497 2.50463 1.11419 2.72638C0.958092 2.9722 0.822418 3.22896 0.708627 3.49666C0.569305 3.82345 0.464267 4.16045 0.398619 4.50912C0.362876 4.6995 0.341723 4.8928 0.322028 5.08611C0.30671 5.23491 0.298687 5.38517 0.298687 5.53471C0.298687 5.77834 0.318381 6.02124 0.355582 6.26269C0.395701 6.52456 0.451867 6.78278 0.531375 7.03589C0.605048 7.27077 0.688932 7.502 0.801994 7.72083C0.893173 7.89809 0.982163 8.0768 1.08574 8.24603C1.21923 8.46632 1.37314 8.67348 1.54164 8.86897C1.81007 9.18116 2.10913 9.46054 2.44248 9.70417C2.64745 9.85371 2.86118 9.98792 3.08511 10.1061C3.29227 10.2155 3.50672 10.3089 3.72701 10.3891C3.91885 10.4591 4.11361 10.516 4.31129 10.5649C4.51115 10.6145 4.71466 10.6451 4.9189 10.6699C5.1939 10.7035 5.47035 10.7115 5.74681 10.6962C5.90072 10.6875 6.0539 10.6663 6.20708 10.6473C6.31357 10.6342 6.4208 10.6218 6.52511 10.5977C6.70017 10.5569 6.87524 10.5131 7.04665 10.4599C7.35301 10.365 7.64624 10.2381 7.92999 10.0871C8.21666 9.93467 8.48436 9.7545 8.7382 9.55391C8.84616 9.46856 8.94171 9.3679 9.04165 9.27234C9.10657 9.21034 9.16784 9.14469 9.23276 9.08269C9.29111 9.02652 9.3502 8.97182 9.39177 8.89887C9.41293 8.86167 9.45377 8.83687 9.48003 8.80259C9.56903 8.68807 9.65874 8.57427 9.7419 8.45538C9.81703 8.34815 9.88341 8.23508 9.95343 8.12494C10.0373 7.99218 10.1168 7.85797 10.1825 7.715C10.3174 7.4203 10.429 7.11759 10.5085 6.8032C10.5837 6.50778 10.634 6.20798 10.6559 5.90307C10.6741 5.65871 10.6748 5.41508 10.661 5.17145C10.65 4.98034 10.6172 4.79068 10.5888 4.60103C10.5421 4.29175 10.4538 3.99268 10.3459 3.70017C10.2489 3.43831 10.1307 3.18592 9.99137 2.94302C9.82214 2.64687 9.62738 2.36895 9.40199 2.11292C9.32977 2.03122 9.3429 1.92545 9.43043 1.86053C9.4669 1.83282 9.56319 1.81823 9.61352 1.86856C9.64853 1.90284 9.68282 1.93931 9.71418 1.97724C10.076 2.41637 10.3699 2.89634 10.5837 3.42445C10.7026 3.71841 10.7967 4.01967 10.8645 4.32968C10.9119 4.54486 10.944 4.76224 10.9659 4.98107C10.9921 5.24512 11.0016 5.50991 10.987 5.77469C10.9739 6.0227 10.9484 6.26925 10.901 6.51361C10.8587 6.73026 10.8069 6.94325 10.7412 7.15406C10.6573 7.42322 10.5567 7.68582 10.4268 7.93602C10.3408 8.10233 10.2518 8.26718 10.1562 8.42766C10.0928 8.53415 10.0162 8.6319 9.94395 8.73329C9.83162 8.89231 9.71199 9.04476 9.58142 9.18992C9.2685 9.54005 8.90962 9.8362 8.52156 10.0973C8.28231 10.2585 8.02847 10.3957 7.76514 10.5146C7.51932 10.6255 7.26767 10.7217 7.00726 10.7918C6.81542 10.8436 6.62066 10.8844 6.42518 10.9223C6.24136 10.9573 6.05609 10.9829 5.86789 10.9851C5.71325 10.9873 5.55861 10.9982 5.40397 10.9975C5.24496 10.9967 5.08448 10.9945 4.9262 10.977C4.73582 10.9559 4.54762 10.9194 4.3587 10.8866C4.0786 10.8377 3.80871 10.7509 3.5432 10.6524C3.29665 10.5613 3.05885 10.4504 2.82908 10.3235C2.4702 10.1258 2.13758 9.89091 1.83268 9.6181C1.63136 9.43866 1.44316 9.24536 1.27102 9.03747C0.828253 8.50498 0.494903 7.91194 0.276804 7.25399C0.190731 6.99577 0.125082 6.73244 0.0791278 6.46401C0.0390091 6.23278 0.0112907 6.00082 0.00837297 5.76594C0.00691411 5.65142 -0.00183906 5.53617 0.000349234 5.42165C0.00764354 5.08902 0.0390091 4.75859 0.103199 4.43107C0.162283 4.12835 0.247626 3.83439 0.355582 3.54699C0.478127 3.21948 0.634225 2.90728 0.818041 2.60894C0.939127 2.41272 1.07042 2.22379 1.21558 2.04654C1.44316 1.76935 1.69336 1.51332 1.96908 1.28209C2.25575 1.04138 2.5643 0.833487 2.89327 0.656234C3.16754 0.508158 3.45348 0.384883 3.75035 0.287139C3.97502 0.212736 4.2026 0.150004 4.43529 0.106238C4.61473 0.072684 4.79563 0.0464243 4.97726 0.0296472C5.18004 0.0106819 5.38355 -0.00682462 5.58779 0.00265806C5.69721 0.00776412 5.80735 0.0165174 5.91676 0.026C6.03347 0.0354827 6.15018 0.0435065 6.26616 0.0595542C6.5076 0.0931083 6.7454 0.141981 6.97954 0.209818C7.14367 0.257232 7.30925 0.300268 7.46826 0.363C7.72502 0.463662 7.96501 0.593502 8.18456 0.762002C8.39099 0.921019 8.56606 1.10776 8.70392 1.3295C8.85418 1.57022 8.94609 1.83209 8.97089 2.11438C9.00007 2.45138 8.94463 2.77744 8.8199 3.09255C8.63754 3.55356 8.3516 3.94454 8.01461 4.30269C7.83954 4.4887 7.66959 4.67981 7.49744 4.868C7.38073 4.99638 7.26329 5.12404 7.14585 5.25169C6.95985 5.45301 6.8125 5.67987 6.7009 5.93079C6.60243 6.15327 6.54845 6.38742 6.51271 6.62668C6.50541 6.67774 6.50614 6.72953 6.50614 6.78132C6.50614 7.08914 6.50614 7.39696 6.50541 7.70478C6.50541 8.00896 6.4084 8.27666 6.18592 8.48893C5.99773 8.66837 5.7738 8.76466 5.50901 8.76903C5.25006 8.77341 5.0254 8.68952 4.8321 8.52467C4.66871 8.38608 4.55929 8.20955 4.51042 7.99948C4.49364 7.92726 4.48416 7.8514 4.4827 7.777C4.47906 7.56109 4.4827 7.34444 4.48124 7.12853C4.48124 6.96441 4.47687 6.79955 4.47687 6.63543C4.47687 6.40566 4.47395 6.17515 4.4827 5.94538C4.49219 5.68497 4.52793 5.42748 4.62348 5.18239C4.69497 4.9993 4.79855 4.83445 4.92474 4.68492C5.02686 4.5631 5.13554 4.44712 5.24131 4.32822C5.25079 4.31801 5.25736 4.30561 5.27122 4.28664L5.27195 4.2881Z" fill="url(#paint0_linear_752_775)"/>
<defs>
<linearGradient id="paint0_linear_752_775" x1="1.20464" y1="9.60205" x2="12.3162" y2="-0.995118" gradientUnits="userSpaceOnUse">
<stop stop-color="#13EA32"/>
<stop offset="0.27" stop-color="#017340"/>
<stop offset="0.53" stop-color="#017340"/>
<stop offset="0.69" stop-color="#13EA32"/>
</linearGradient>
</defs>
</svg>
