<svg width="110" height="82" viewBox="0 0 110 82" fill="none" xmlns="http://www.w3.org/2000/svg">
<path d="M0.00276724 79.6623V74.2525C0.00276724 73.0125 0.976458 71.9787 2.21362 71.9329C9.3817 71.6608 17.0252 69.344 20.8627 62.9148C22.9045 59.4983 23.6949 55.214 23.6892 51.262C23.6892 50.463 23.6778 48.4469 23.5575 47.7882C23.5117 47.5448 23.483 47.3529 23.2052 47.2813L2.31958 47.2556C1.0366 47.2556 -9.62183e-05 46.2131 -9.62183e-05 44.933V2.32262C-9.62183e-05 1.03963 1.03947 8.46721e-05 2.32244 8.46721e-05H44.5749C45.8579 8.46721e-05 46.8974 1.03963 46.8974 2.32262L46.906 51.2362C46.2301 64.6617 39.6005 73.4564 27.1458 78.0242C19.2131 80.9366 10.805 81.7213 2.39404 81.9848C1.08528 82.0249 0.00276724 80.971 0.00276724 79.6623Z" fill="url(#paint0_linear_752_841)" fill-opacity="0.5"/>
<path d="M109.646 51.5483C109.434 55.002 108.538 59.4667 107.18 62.7142C100.533 78.6198 80.7045 81.5609 65.1398 81.999C63.831 82.0363 62.7514 80.9853 62.7514 79.6765V74.2525C62.7514 72.9981 63.748 71.9815 65.0023 71.9299C72.4396 71.635 80.3093 69.1206 83.9864 62.2159C86.0254 58.3899 86.538 53.7706 86.2832 49.4205C86.2116 48.2005 85.1863 47.2526 83.9635 47.2526H65.071C63.788 47.2526 62.7485 46.2131 62.7485 44.9301V2.32254C62.7485 1.03957 63.788 7.69746e-06 65.071 7.69746e-06H107.235C108.546 7.69746e-06 109.597 1.08252 109.554 2.39127C109.036 18.5803 110.631 35.5397 109.646 51.5483Z" fill="url(#paint1_linear_752_841)" fill-opacity="0.5"/>
<defs>
<linearGradient id="paint0_linear_752_841" x1="51.3604" y1="138.061" x2="-49.0302" y2="114.108" gradientUnits="userSpaceOnUse">
<stop offset="0.0572756" stop-color="#5EE0B6"/>
<stop offset="0.298763" stop-color="#2F8F5B" stop-opacity="0.7"/>
<stop offset="0.903846" stop-color="#0F2A20" stop-opacity="0"/>
</linearGradient>
<linearGradient id="paint1_linear_752_841" x1="114.459" y1="138.085" x2="13.4566" y2="113.826" gradientUnits="userSpaceOnUse">
<stop offset="0.0572756" stop-color="#5EE0B6"/>
<stop offset="0.298763" stop-color="#2F8F5B" stop-opacity="0.7"/>
<stop offset="0.903846" stop-color="#0F2A20" stop-opacity="0"/>
</linearGradient>
</defs>
</svg>
