<svg width="110" height="82" viewBox="0 0 110 82" fill="none" xmlns="http://www.w3.org/2000/svg">
<path d="M109.972 2.33778V7.74749C109.972 8.98751 108.998 10.0213 107.761 10.0672C100.593 10.3392 92.9493 12.656 89.1118 19.0852C87.0699 22.5018 86.2795 26.786 86.2852 30.738C86.2852 31.537 86.2967 33.5531 86.417 34.2118C86.4628 34.4552 86.4914 34.6471 86.7692 34.7187L107.655 34.7445C108.938 34.7445 109.975 35.7869 109.975 37.067V79.6774C109.975 80.9604 108.935 81.9999 107.652 81.9999H65.3996C64.1166 81.9999 63.077 80.9604 63.077 79.6774L63.0685 30.7638C63.7443 17.3383 70.374 8.54362 82.8286 3.97587C90.7614 1.06339 99.1695 0.278709 107.58 0.0152398C108.889 -0.0248533 109.972 1.02902 109.972 2.33778Z" fill="url(#paint0_linear_752_844)" fill-opacity="0.5"/>
<path d="M0.328469 30.4517C0.540389 26.998 1.43676 22.5333 2.7942 19.2858C9.44106 3.38024 29.27 0.43912 44.8347 0.000959424C46.1435 -0.0362699 47.2231 1.01474 47.2231 2.3235V7.74752C47.2231 9.00187 46.2265 10.0185 44.9722 10.0701C37.5349 10.365 29.6652 12.8794 25.9881 19.7841C23.949 23.6101 23.4364 28.2294 23.6913 32.5795C23.7629 33.7995 24.7881 34.7474 26.011 34.7474H44.9034C46.1864 34.7474 47.226 35.7869 47.226 37.0699V79.6775C47.226 80.9604 46.1864 82 44.9034 82H2.73978C1.42817 82 0.377153 80.9175 0.42011 79.6087C0.938457 63.4197 -0.656677 46.4603 0.328469 30.4517Z" fill="url(#paint1_linear_752_844)" fill-opacity="0.5"/>
<defs>
<linearGradient id="paint0_linear_752_844" x1="58.6141" y1="-56.0611" x2="159.005" y2="-32.1083" gradientUnits="userSpaceOnUse">
<stop offset="0.0572756" stop-color="#5EE0B6"/>
<stop offset="0.298763" stop-color="#2F8F5B" stop-opacity="0.7"/>
<stop offset="0.903846" stop-color="#0F2A20" stop-opacity="0"/>
</linearGradient>
<linearGradient id="paint1_linear_752_844" x1="-4.48473" y1="-56.0849" x2="96.5179" y2="-31.8259" gradientUnits="userSpaceOnUse">
<stop offset="0.0572756" stop-color="#5EE0B6"/>
<stop offset="0.298763" stop-color="#2F8F5B" stop-opacity="0.7"/>
<stop offset="0.903846" stop-color="#0F2A20" stop-opacity="0"/>
</linearGradient>
</defs>
</svg>
