<svg width="469" height="410" viewBox="0 0 469 410" fill="none" xmlns="http://www.w3.org/2000/svg">
<g opacity="0.5">
<mask id="mask0_752_763" style="mask-type:alpha" maskUnits="userSpaceOnUse" x="20" y="20" width="540" height="370">
<ellipse cx="171.127" cy="278.288" rx="171.127" ry="278.288" transform="matrix(-0.475547 0.881377 0.924662 0.384671 114.043 -52.877)" fill="url(#paint0_linear_752_763)"/>
</mask>
<g mask="url(#mask0_752_763)">
<g filter="url(#filter0_f_752_763)">
<path d="M42.0439 85.7936C94.8964 22.6795 184.584 3.88477 242.367 43.8144C300.15 83.7441 304.147 167.278 251.295 230.392C198.442 293.506 108.754 312.301 50.9714 272.371C-6.81167 232.441 -10.8087 148.908 42.0439 85.7936Z" fill="#288161"/>
</g>
<g filter="url(#filter1_f_752_763)">
<path d="M81.2005 112.441C109.347 78.829 147.877 62.4388 167.258 75.832C186.64 89.2252 179.534 127.33 151.387 160.942C123.241 194.553 84.7114 210.943 65.3298 197.55C45.9482 184.157 53.0538 146.052 81.2005 112.441Z" fill="#5EE0B6"/>
</g>
<g filter="url(#filter2_f_752_763)">
<path d="M43.6388 86.8949C71.9068 53.1385 111.248 37.1242 131.511 51.1259C151.773 65.1277 145.283 103.843 117.015 137.6C88.7467 171.356 49.4052 187.37 29.143 173.369C8.88082 159.367 15.3708 120.651 43.6388 86.8949Z" fill="#5EE0B6"/>
</g>
</g>
</g>
<defs>
<filter id="filter0_f_752_763" x="-175.39" y="-157.42" width="644.118" height="631.025" filterUnits="userSpaceOnUse" color-interpolation-filters="sRGB">
<feFlood flood-opacity="0" result="BackgroundImageFix"/>
<feBlend mode="normal" in="SourceGraphic" in2="BackgroundImageFix" result="shape"/>
<feGaussianBlur stdDeviation="90" result="effect1_foregroundBlur_752_763"/>
</filter>
<filter id="filter1_f_752_763" x="-65.7684" y="-49.0172" width="364.125" height="371.417" filterUnits="userSpaceOnUse" color-interpolation-filters="sRGB">
<feFlood flood-opacity="0" result="BackgroundImageFix"/>
<feBlend mode="normal" in="SourceGraphic" in2="BackgroundImageFix" result="shape"/>
<feGaussianBlur stdDeviation="60" result="effect1_foregroundBlur_752_763"/>
</filter>
<filter id="filter2_f_752_763" x="-62.7708" y="-34.0595" width="286.196" height="292.614" filterUnits="userSpaceOnUse" color-interpolation-filters="sRGB">
<feFlood flood-opacity="0" result="BackgroundImageFix"/>
<feBlend mode="normal" in="SourceGraphic" in2="BackgroundImageFix" result="shape"/>
<feGaussianBlur stdDeviation="40" result="effect1_foregroundBlur_752_763"/>
</filter>
<linearGradient id="paint0_linear_752_763" x1="206.058" y1="484.864" x2="102.992" y2="9.54833" gradientUnits="userSpaceOnUse">
<stop offset="0.497742" stop-color="#0F2920" stop-opacity="0"/>
<stop offset="0.780063" stop-color="#0F2920" stop-opacity="0.3"/>
<stop offset="0.992369" stop-color="#0F2920" stop-opacity="0.7"/>
</linearGradient>
</defs>
</svg>
