<svg width="182" height="25" viewBox="0 0 182 25" fill="none" xmlns="http://www.w3.org/2000/svg">
<path d="M34.2366 20.8362V15.1188L29.1543 4.17971H32.3878L35.7473 11.3829L39.0653 4.17971H42.2158L37.1335 15.1188V20.8362H34.235H34.2366Z" fill="#017340"/>
<path d="M43.7282 20.8362L50.1952 4.18137H52.4204L58.9719 20.8362H55.7799L54.1002 16.515H48.5983L46.8771 20.8362H43.7266H43.7282ZM49.6496 13.5435H52.9677L51.3294 8.50261L49.6496 13.5435Z" fill="#017340"/>
<path d="M60.5273 20.8362V4.17971H63.7608L70.2277 16.3342V4.17971H73.1263V20.8346L69.921 20.8428L63.4259 8.72646V20.8346H60.5273V20.8362Z" fill="#017340"/>
<path d="M76.0664 20.8362V4.17971H78.9649V20.8346H76.0664V20.8362Z" fill="#017340"/>
<path d="M99.3746 16.2895H102.693C102.119 17.7752 101.16 18.9724 99.8157 19.8794C98.4726 20.7881 97.0366 21.2408 95.511 21.2408C93.299 21.2408 91.402 20.3786 89.8201 18.6524C88.2382 16.9262 87.4473 14.8783 87.4473 12.5071C87.4473 10.1359 88.2316 8.10298 89.7986 6.40831C91.3656 4.71199 93.2426 3.86465 95.4265 3.86465C97.0216 3.86465 98.5024 4.32563 99.8671 5.24924C101.232 6.17285 102.202 7.40654 102.776 8.95198H99.499C99.0082 8.30694 98.4029 7.80119 97.6833 7.43307C96.962 7.06496 96.2091 6.8809 95.4265 6.8809C94.027 6.8809 92.8297 7.44302 91.8348 8.56893C90.8399 9.69484 90.3441 11.038 90.3441 12.5983C90.3441 14.1587 90.8548 15.4123 91.8763 16.5365C92.8977 17.6624 94.0949 18.2246 95.4679 18.2246C96.2241 18.2246 96.9238 18.0637 97.5672 17.7404C98.2106 17.4187 98.8125 16.9345 99.373 16.2895H99.3746Z" fill="#017340"/>
<path d="M111.134 3.81988C113.135 3.81988 114.846 4.67219 116.267 6.37515C117.688 8.07811 118.398 10.1376 118.398 12.5536C118.398 14.9695 117.683 16.9958 116.256 18.6756C114.828 20.357 113.12 21.196 111.132 21.196C109.144 21.196 107.411 20.3603 105.977 18.6872C104.541 17.0141 103.824 14.9695 103.824 12.5536C103.824 10.1376 104.531 8.05987 105.945 6.36354C107.359 4.66722 109.087 3.81988 111.132 3.81988H111.134ZM111.134 6.83613C109.817 6.83613 108.704 7.38333 107.794 8.47939C106.884 9.57545 106.429 10.9037 106.429 12.464C106.429 14.0244 106.887 15.3857 107.804 16.5034C108.721 17.621 109.83 18.1798 111.132 18.1798C112.434 18.1798 113.49 17.6177 114.428 16.4918C115.367 15.3659 115.834 14.0244 115.834 12.4624C115.834 10.9003 115.38 9.5738 114.47 8.47773C113.559 7.38333 112.447 6.83447 111.132 6.83447L111.134 6.83613Z" fill="#017340"/>
<path d="M120.332 20.8362V4.17971H123.565L130.032 16.3342V4.17971H132.931V20.8346L129.726 20.8428L123.231 8.72646V20.8346H120.332V20.8362Z" fill="#017340"/>
<path d="M137.467 20.8362V7.19595H134.611V4.17971H143.221V7.19595H140.322V20.8362H137.467Z" fill="#017340"/>
<path d="M144.857 20.8362V4.17971H156.029V7.19595H147.754V11.0231H156.029V13.9945H147.754V17.8216H156.029V20.8379H144.857V20.8362Z" fill="#017340"/>
<path d="M158.969 20.8362V4.17971H162.202L168.669 16.3342V4.17971H171.568V20.8346L168.362 20.8428L161.867 8.72646V20.8346H158.969V20.8362Z" fill="#017340"/>
<path d="M176.105 20.8362V7.19595H173.25V4.17971H181.859V7.19595H178.961V20.8362H176.105Z" fill="#017340"/>
<path d="M11.9845 9.7479C11.8237 9.57048 11.6695 9.40134 11.5169 9.2322C10.9763 8.63692 10.4358 8.04163 9.89189 7.44965C9.70783 7.25067 9.52709 7.04837 9.28499 6.9124C8.52388 6.48459 7.63675 6.75985 7.19236 7.4082C6.79605 7.9869 6.84248 8.80439 7.29185 9.31014C7.59861 9.6567 7.9203 9.98834 8.23868 10.3266C8.69799 10.8158 9.16063 11.3016 9.61829 11.7924C9.67301 11.8521 9.72441 11.9317 9.73768 12.0097C9.77084 12.1954 9.69456 12.3231 9.53372 12.4027C9.39941 12.4706 9.26178 12.4425 9.12912 12.3065C8.92019 12.0926 8.71623 11.8754 8.51228 11.6565C8.30832 11.4393 8.10602 11.2187 7.90206 11.0015C7.52234 10.5986 7.13101 10.2039 6.76289 9.79101C6.48929 9.48425 6.32181 9.11447 6.24885 8.70656C6.15599 8.19086 6.22895 7.7017 6.4727 7.23575C6.83419 6.54262 7.41124 6.12973 8.17235 6.01698C8.90527 5.90919 9.57186 6.10486 10.1075 6.64046C10.4043 6.93727 10.6828 7.25564 10.9664 7.56572C11.4522 8.09469 11.9364 8.62697 12.4223 9.15593C12.4389 9.17417 12.4637 9.18577 12.4952 9.21065C12.6495 9.04317 12.7987 8.87901 12.9496 8.71485C13.3774 8.24724 13.8069 7.77963 14.2347 7.31202C14.4353 7.09314 14.6277 6.86265 14.8399 6.65372C15.2628 6.23752 15.7669 6.00703 16.3688 5.99376C16.7153 5.98547 17.047 6.03356 17.3687 6.16787C17.6025 6.26571 17.8097 6.40665 18.0004 6.5675C18.1563 6.70015 18.1779 6.93727 18.0568 7.08651C17.9275 7.24569 17.7268 7.26228 17.5428 7.13625C17.3935 7.0351 17.2476 6.92235 17.0868 6.84607C16.4699 6.55257 15.742 6.75653 15.349 7.17605C15.0489 7.49442 14.757 7.81943 14.4619 8.13946C14.1667 8.46115 13.8682 8.78118 13.5731 9.10287C13.2746 9.42787 12.9778 9.75619 12.6793 10.0829C12.4273 10.3581 12.1719 10.6301 11.9232 10.9086C11.686 11.1756 11.4622 11.4558 11.3013 11.7759C11.1471 12.081 11.041 12.4043 10.9863 12.7442C10.92 13.1555 10.8951 13.5684 10.8968 13.9862C10.8984 14.5782 10.8885 15.1718 10.8885 15.7638C10.8885 16.4304 10.8835 17.0987 10.9017 17.7652C10.915 18.2196 11.1239 18.591 11.4721 18.8829C11.6711 19.0503 11.9033 19.1598 12.1553 19.2112C12.3908 19.2593 12.6296 19.256 12.8667 19.1963C13.1535 19.125 13.4006 18.984 13.6029 18.7718C13.8931 18.4683 14.0655 18.1101 14.0672 17.6823C14.0705 17.0041 14.0589 16.3259 14.0722 15.6477C14.0788 15.3244 14.107 14.9994 14.1551 14.6777C14.2861 13.7955 14.6111 12.9847 15.0969 12.2385C15.3225 11.8936 15.5911 11.5835 15.8697 11.2817C16.1764 10.9484 16.4815 10.6135 16.7866 10.2785C17.0702 9.96844 17.3537 9.65836 17.6406 9.34994C18.2011 8.74636 18.7151 8.10795 19.0998 7.37503C19.3933 6.81291 19.6056 6.22259 19.6653 5.58751C19.7133 5.07844 19.6653 4.57767 19.4928 4.09016C19.2441 3.38377 18.798 2.82828 18.221 2.36399C17.7335 1.971 17.1879 1.68247 16.6059 1.47022C16.0869 1.28119 15.5546 1.12532 15.0091 1.02251C14.6177 0.947894 14.2247 0.879908 13.8317 0.816897C13.6527 0.788708 13.4719 0.775442 13.2912 0.768809C12.9181 0.755544 12.545 0.735645 12.1719 0.747253C11.5932 0.765493 11.0161 0.816897 10.4424 0.919704C9.92174 1.01422 9.40936 1.13361 8.90693 1.2928C8.18561 1.52163 7.49249 1.8201 6.82756 2.1849C6.16262 2.5497 5.53749 2.97088 4.9538 3.45508C4.46961 3.85802 4.01859 4.29412 3.60404 4.76836C3.21105 5.21773 2.85288 5.69363 2.53285 6.19772C2.178 6.75653 1.86957 7.34021 1.6109 7.94877C1.29418 8.69164 1.0554 9.45772 0.906165 10.2503C0.824914 10.6831 0.776826 11.1225 0.732055 11.562C0.697233 11.9002 0.678993 12.2418 0.678993 12.5817C0.678993 13.1356 0.723764 13.6878 0.808332 14.2366C0.899532 14.8319 1.02721 15.4189 1.20796 15.9943C1.37543 16.5282 1.56612 17.0539 1.82314 17.5513C2.03042 17.9543 2.23272 18.3605 2.46818 18.7452C2.77163 19.246 3.12151 19.7169 3.50455 20.1613C4.11476 20.871 4.79462 21.5061 5.55241 22.06C6.01836 22.3999 6.50421 22.705 7.01327 22.9736C7.4842 23.2223 7.97171 23.4346 8.47248 23.617C8.90858 23.7762 9.35132 23.9055 9.80069 24.0166C10.255 24.1294 10.7177 24.199 11.182 24.2554C11.8071 24.3317 12.4355 24.3499 13.064 24.3151C13.4139 24.2952 13.7621 24.2471 14.1103 24.204C14.3524 24.1741 14.5962 24.146 14.8333 24.0912C15.2313 23.9984 15.6292 23.8989 16.0189 23.7778C16.7153 23.5623 17.3819 23.2737 18.027 22.9305C18.6786 22.5839 19.2872 22.1744 19.8642 21.7184C20.1096 21.5244 20.3269 21.2955 20.554 21.0783C20.7016 20.9374 20.8409 20.7881 20.9885 20.6472C21.1211 20.5195 21.2555 20.3951 21.35 20.2293C21.3981 20.1447 21.4909 20.0884 21.5506 20.0104C21.7529 19.7501 21.9569 19.4914 22.1459 19.2211C22.3167 18.9774 22.4676 18.7204 22.6268 18.47C22.8175 18.1682 22.9982 17.8631 23.1474 17.5381C23.4542 16.8682 23.7079 16.18 23.8887 15.4653C24.0595 14.7938 24.1739 14.1123 24.2236 13.4191C24.2651 12.8636 24.2667 12.3098 24.2352 11.756C24.2103 11.3215 24.1357 10.8904 24.0711 10.4593C23.9649 9.75619 23.7643 9.07633 23.5189 8.4114C23.2983 7.81611 23.0297 7.24238 22.713 6.6902C22.3283 6.01698 21.8856 5.38521 21.3732 4.80318C21.209 4.61747 21.2389 4.37703 21.4379 4.22945C21.5208 4.16644 21.7396 4.13327 21.8541 4.24769C21.9337 4.32562 22.0116 4.40853 22.0829 4.49476C22.9054 5.49299 23.5736 6.58408 24.0595 7.78461C24.3297 8.45286 24.5436 9.13769 24.6979 9.84242C24.8056 10.3316 24.8786 10.8257 24.9283 11.3232C24.988 11.9234 25.0096 12.5254 24.9764 13.1273C24.9466 13.6911 24.8885 14.2515 24.7808 14.807C24.6846 15.2995 24.5669 15.7837 24.4176 16.2629C24.2269 16.8748 23.9981 17.4717 23.7029 18.0405C23.5073 18.4186 23.305 18.7933 23.0878 19.1581C22.9435 19.4002 22.7694 19.6224 22.6052 19.8529C22.3499 20.2144 22.0779 20.5609 21.7811 20.8909C21.0697 21.6869 20.2539 22.3601 19.3718 22.9537C18.8279 23.3202 18.2508 23.6319 17.6522 23.9022C17.0934 24.1542 16.5213 24.3731 15.9294 24.5323C15.4933 24.65 15.0505 24.7429 14.6061 24.8291C14.1883 24.9087 13.7671 24.9668 13.3393 24.9717C12.9877 24.9767 12.6362 25.0016 12.2847 24.9999C11.9232 24.9983 11.5584 24.9933 11.1985 24.9535C10.7658 24.9054 10.3379 24.8225 9.90847 24.7479C9.27173 24.6368 8.6582 24.4395 8.05462 24.2156C7.49415 24.0083 6.95358 23.7563 6.43125 23.4678C5.61542 23.0184 4.85929 22.4844 4.16616 21.8643C3.7085 21.4564 3.28069 21.017 2.88936 20.5444C1.88284 19.3339 1.12505 17.9858 0.629247 16.4901C0.433581 15.9031 0.284344 15.3045 0.179878 14.6943C0.0886779 14.1686 0.0256667 13.6413 0.019034 13.1074C0.0157176 12.8471 -0.00418067 12.5851 0.0007939 12.3247C0.0173758 11.5686 0.0886779 10.8174 0.234599 10.0729C0.368912 9.38476 0.56292 8.71651 0.808332 8.06318C1.08691 7.31866 1.44176 6.60895 1.85962 5.93075C2.13488 5.4847 2.43336 5.05523 2.76334 4.65229C3.28069 4.02218 3.84945 3.44015 4.47624 2.91451C5.12791 2.3673 5.82933 1.89472 6.57717 1.49178C7.20065 1.15517 7.85066 0.874933 8.52554 0.652736C9.03626 0.483601 9.55362 0.340997 10.0826 0.241505C10.4905 0.165229 10.9017 0.105534 11.3146 0.0673954C11.7756 0.0242825 12.2382 -0.015514 12.7025 0.00604242C12.9512 0.0176497 13.2016 0.037548 13.4504 0.0591045C13.7157 0.0806609 13.981 0.098901 14.2446 0.135381C14.7935 0.211658 15.3341 0.322756 15.8663 0.476968C16.2394 0.58475 16.6158 0.682583 16.9773 0.825188C17.561 1.05402 18.1066 1.34918 18.6057 1.73222C19.0749 2.0937 19.4729 2.5182 19.7863 3.02229C20.1279 3.56949 20.3368 4.16478 20.3932 4.8065C20.4595 5.57258 20.3335 6.31379 20.05 7.03013C19.6354 8.0781 18.9854 8.96689 18.2193 9.78106C17.8213 10.2039 17.435 10.6383 17.0437 11.0662C16.7783 11.358 16.5114 11.6482 16.2444 11.9384C15.8216 12.396 15.4866 12.9117 15.2329 13.4821C15.0091 13.9879 14.8864 14.5202 14.8051 15.0641C14.7885 15.1801 14.7902 15.2979 14.7902 15.4156C14.7902 16.1153 14.7902 16.8151 14.7885 17.5149C14.7885 18.2063 14.568 18.8149 14.0622 19.2974C13.6344 19.7053 13.1254 19.9242 12.5234 19.9342C11.9348 19.9441 11.4241 19.7534 10.9846 19.3787C10.6132 19.0636 10.3645 18.6623 10.2534 18.1848C10.2152 18.0206 10.1937 17.8482 10.1904 17.679C10.1821 17.1882 10.1904 16.6957 10.187 16.2049C10.187 15.8318 10.1771 15.457 10.1771 15.084C10.1771 14.5616 10.1705 14.0376 10.1904 13.5153C10.2119 12.9233 10.2932 12.338 10.5104 11.7808C10.6729 11.3646 10.9084 10.9899 11.1952 10.65C11.4274 10.373 11.6744 10.1094 11.9149 9.8391C11.9364 9.81589 11.9514 9.7877 11.9829 9.74459L11.9845 9.7479Z" fill="url(#paint0_linear_615_1662)"/>
<defs>
<linearGradient id="paint0_linear_615_1662" x1="2.73846" y1="21.8278" x2="27.9977" y2="-2.26236" gradientUnits="userSpaceOnUse">
<stop stop-color="#13EA32"/>
<stop offset="0.27" stop-color="#017340"/>
<stop offset="0.53" stop-color="#017340"/>
<stop offset="0.69" stop-color="#13EA32"/>
</linearGradient>
</defs>
</svg>
