<svg width="194" height="31" viewBox="0 0 194 31" fill="none" xmlns="http://www.w3.org/2000/svg">
<path d="M23.2502 3.87498C24.278 3.87498 25.2636 4.28323 25.9903 5.00994C26.717 5.73664 27.1253 6.72226 27.1253 7.74997V23.25C27.1253 24.2777 26.717 25.2633 25.9903 25.99C25.2636 26.7167 24.278 27.125 23.2502 27.125H7.75008C6.72235 27.125 5.73672 26.7167 5.01001 25.99C4.2833 25.2633 3.87504 24.2777 3.87504 23.25V7.74997C3.87504 6.72226 4.2833 5.73664 5.01001 5.00994C5.73672 4.28323 6.72235 3.87498 7.75008 3.87498H23.2502ZM23.2502 6.45831H7.75008C7.4075 6.45831 7.07896 6.59439 6.83672 6.83663C6.59448 7.07886 6.4584 7.4074 6.4584 7.74997V23.25C6.4584 23.5925 6.59448 23.9211 6.83672 24.1633C7.07896 24.4055 7.4075 24.5416 7.75008 24.5416H23.2502C23.5928 24.5416 23.9213 24.4055 24.1636 24.1633C24.4058 23.9211 24.5419 23.5925 24.5419 23.25V7.74997C24.5419 7.4074 24.4058 7.07886 24.1636 6.83663C23.9213 6.59439 23.5928 6.45831 23.2502 6.45831ZM10.3334 12.9166C10.6498 12.9167 10.9552 13.0328 11.1916 13.2431C11.428 13.4533 11.5791 13.743 11.6161 14.0572L11.6251 14.2083V20.6666C11.6247 20.9959 11.4987 21.3125 11.2727 21.5519C11.0467 21.7913 10.7378 21.9354 10.4091 21.9546C10.0805 21.9739 9.75686 21.867 9.50439 21.6557C9.25193 21.4444 9.08968 21.1447 9.0508 20.8178L9.04176 20.6666V14.2083C9.04176 13.8657 9.17784 13.5372 9.42008 13.295C9.66232 13.0527 9.99086 12.9166 10.3334 12.9166ZM14.2085 11.625C14.511 11.6249 14.8039 11.7311 15.0362 11.9248C15.2684 12.1186 15.4253 12.3878 15.4795 12.6854C15.7397 12.5352 16.0084 12.4002 16.2842 12.2811C17.1458 11.913 18.4361 11.7102 19.6012 12.0758C20.2122 12.2695 20.8257 12.6312 21.2804 13.2473C21.6873 13.7963 21.9069 14.4641 21.9508 15.2145L21.9585 15.5V20.6666C21.9582 20.9959 21.8321 21.3125 21.6061 21.5519C21.3801 21.7913 21.0712 21.9354 20.7426 21.9546C20.4139 21.9739 20.0903 21.867 19.8378 21.6557C19.5854 21.4444 19.4231 21.1447 19.3842 20.8178L19.3752 20.6666V15.5C19.3752 15.0737 19.2719 14.8748 19.2047 14.7831C19.1082 14.6633 18.9753 14.5781 18.8262 14.5403C18.3767 14.3982 17.7296 14.4731 17.2995 14.6565C16.6536 14.9329 16.062 15.3669 15.659 15.7686L15.5002 15.9391V20.6666C15.4998 20.9959 15.3737 21.3125 15.1477 21.5519C14.9217 21.7913 14.6128 21.9354 14.2842 21.9546C13.9555 21.9739 13.6319 21.867 13.3794 21.6557C13.127 21.4444 12.9647 21.1447 12.9258 20.8178L12.9168 20.6666V12.9166C12.9168 12.5741 13.0529 12.2455 13.2951 12.0033C13.5374 11.7611 13.8659 11.625 14.2085 11.625ZM10.3334 9.04164C10.676 9.04164 11.0046 9.17773 11.2468 9.41996C11.489 9.6622 11.6251 9.99074 11.6251 10.3333C11.6251 10.6759 11.489 11.0044 11.2468 11.2467C11.0046 11.4889 10.676 11.625 10.3334 11.625C9.99086 11.625 9.66232 11.4889 9.42008 11.2467C9.17784 11.0044 9.04176 10.6759 9.04176 10.3333C9.04176 9.99074 9.17784 9.6622 9.42008 9.41996C9.66232 9.17773 9.99086 9.04164 10.3334 9.04164Z" fill="url(#paint0_linear_752_1342)"/>
<g clip-path="url(#clip0_752_1342)">
<mask id="mask0_752_1342" style="mask-type:luminance" maskUnits="userSpaceOnUse" x="61" y="5" width="22" height="21">
<path d="M61.9996 5.16668H82.6665V25.8333H61.9996V5.16668Z" fill="white"/>
</mask>
<g mask="url(#mask0_752_1342)">
<path d="M78.2748 6.13507H81.4442L74.5208 14.0681L82.6665 24.865H76.2893L71.2909 18.3181L65.578 24.865H62.4056L69.8102 16.3769L61.9996 6.13655H68.5392L73.0505 12.1195L78.2748 6.13507ZM77.1603 22.9636H78.9169L67.5797 7.9375H65.6961L77.1603 22.9636Z" fill="url(#paint1_linear_752_1342)"/>
</g>
</g>
<path fill-rule="evenodd" clip-rule="evenodd" d="M126.42 5.77676C127.585 4.61096 129.166 3.95592 130.815 3.95573H134.012C134.247 3.95573 134.473 4.04929 134.64 4.21582C134.806 4.38236 134.9 4.60823 134.9 4.84375V9.10624C134.9 9.34176 134.806 9.56763 134.64 9.73417C134.473 9.90071 134.247 9.99426 134.012 9.99426H130.815C130.791 9.99426 130.768 9.99886 130.747 10.0078C130.725 10.0167 130.706 10.0298 130.689 10.0463C130.673 10.0628 130.66 10.0824 130.651 10.1039C130.642 10.1255 130.637 10.1485 130.637 10.1719V12.4807H134.012C134.147 12.4806 134.28 12.5114 134.401 12.5705C134.523 12.6297 134.629 12.7157 134.712 12.8221C134.795 12.9285 134.853 13.0524 134.881 13.1845C134.909 13.3166 134.906 13.4533 134.874 13.5842L133.808 17.8467C133.76 18.0389 133.649 18.2095 133.493 18.3314C133.337 18.4532 133.144 18.5194 132.946 18.5193H130.637V26.1562C130.637 26.3918 130.544 26.6176 130.377 26.7842C130.21 26.9507 129.985 27.0443 129.749 27.0443H125.487C125.251 27.0443 125.025 26.9507 124.859 26.7842C124.692 26.6176 124.598 26.3918 124.598 26.1562V18.5193H122.29C122.054 18.5193 121.828 18.4257 121.662 18.2592C121.495 18.0926 121.402 17.8668 121.402 17.6312V13.3687C121.402 13.2521 121.425 13.1367 121.469 13.0289C121.514 12.9212 121.579 12.8233 121.662 12.7408C121.744 12.6584 121.842 12.5929 121.95 12.5483C122.058 12.5037 122.173 12.4807 122.29 12.4807H124.598V10.1719C124.599 8.52332 125.254 6.94236 126.42 5.77676ZM130.815 5.73177C129.637 5.73177 128.508 6.19956 127.675 7.03224C126.842 7.86492 126.375 8.99428 126.375 10.1719V13.3687C126.375 13.6043 126.281 13.8301 126.114 13.9967C125.948 14.1632 125.722 14.2568 125.487 14.2568H123.178V16.7432H125.487C125.722 16.7432 125.948 16.8368 126.114 17.0033C126.281 17.1698 126.375 17.3957 126.375 17.6312V25.2682H128.861V17.6312C128.861 17.3957 128.955 17.1698 129.121 17.0033C129.288 16.8368 129.514 16.7432 129.749 16.7432H132.252L132.874 14.2568H129.749C129.514 14.2568 129.288 14.1632 129.121 13.9967C128.955 13.8301 128.861 13.6043 128.861 13.3687V10.1719C128.861 9.65373 129.067 9.15681 129.433 8.79043C129.8 8.42405 130.297 8.21822 130.815 8.21822H133.124V5.73177H130.815Z" fill="url(#paint2_linear_752_1342)"/>
<g clip-path="url(#clip1_752_1342)">
<path d="M181.612 16.3611C181.982 16.8555 182.454 17.2646 182.996 17.5606C183.537 17.8566 184.137 18.0326 184.752 18.0767C185.368 18.1208 185.986 18.032 186.565 17.8162C187.143 17.6004 187.668 17.2628 188.105 16.8261L190.688 14.2428C191.473 13.4307 191.907 12.3432 191.897 11.2143C191.887 10.0854 191.434 9.00547 190.636 8.20718C189.838 7.4089 188.758 6.95609 187.629 6.94628C186.5 6.93647 185.412 7.37044 184.6 8.15473L183.119 9.62723" stroke="url(#paint3_linear_752_1342)" stroke-width="2" stroke-linecap="round" stroke-linejoin="round"/>
<path d="M185.057 14.6389C184.687 14.1445 184.215 13.7355 183.674 13.4394C183.132 13.1434 182.533 12.9674 181.917 12.9233C181.301 12.8792 180.683 12.968 180.104 13.1838C179.526 13.3996 179.001 13.7373 178.564 14.1739L175.981 16.7572C175.197 17.5693 174.763 18.6569 174.772 19.7858C174.782 20.9147 175.235 21.9946 176.033 22.7929C176.832 23.5911 177.911 24.0439 179.04 24.0538C180.169 24.0636 181.257 23.6296 182.069 22.8453L183.541 21.3728" stroke="url(#paint4_linear_752_1342)" stroke-width="2" stroke-linecap="round" stroke-linejoin="round"/>
</g>
<defs>
<linearGradient id="paint0_linear_752_1342" x1="1.55" y1="-3.43216" x2="41.2816" y2="1.18971" gradientUnits="userSpaceOnUse">
<stop stop-color="#5EE0B6"/>
<stop offset="1" stop-color="#0F2A20"/>
</linearGradient>
<linearGradient id="paint1_linear_752_1342" x1="59.9329" y1="0.248531" x2="95.1477" y2="4.76855" gradientUnits="userSpaceOnUse">
<stop stop-color="#5EE0B6"/>
<stop offset="1" stop-color="#0F2A20"/>
</linearGradient>
<linearGradient id="paint2_linear_752_1342" x1="120.052" y1="-3.30067" x2="143.323" y2="-1.71797" gradientUnits="userSpaceOnUse">
<stop stop-color="#5EE0B6"/>
<stop offset="1" stop-color="#0F2A20"/>
</linearGradient>
<linearGradient id="paint3_linear_752_1342" x1="180.584" y1="3.44446" x2="198.194" y2="5.33545" gradientUnits="userSpaceOnUse">
<stop stop-color="#5EE0B6"/>
<stop offset="1" stop-color="#0F2A20"/>
</linearGradient>
<linearGradient id="paint4_linear_752_1342" x1="173.744" y1="9.41064" x2="191.354" y2="11.3016" gradientUnits="userSpaceOnUse">
<stop stop-color="#5EE0B6"/>
<stop offset="1" stop-color="#0F2A20"/>
</linearGradient>
<clipPath id="clip0_752_1342">
<rect width="20.6667" height="20.6665" fill="white" transform="translate(61.9996 5.16668)"/>
</clipPath>
<clipPath id="clip1_752_1342">
<rect width="20.6667" height="20.6665" fill="white" transform="translate(173.002 5.16668)"/>
</clipPath>
</defs>
</svg>
