<svg width="101" height="134" viewBox="0 0 101 134" fill="none" xmlns="http://www.w3.org/2000/svg">
<mask id="mask0_614_7676" style="mask-type:alpha" maskUnits="userSpaceOnUse" x="0" y="-7" width="162" height="141">
<path d="M0 -6.521H161.085V134H8.02977C3.59505 134 0 130.405 0 125.97V-6.521Z" fill="#D9D9D9"/>
</mask>
<g mask="url(#mask0_614_7676)">
<path d="M91.4576 -0.000106182L69.065 33.8937C55.5606 31.2576 47.1309 47.7677 57.451 57.1462C68.7104 67.3687 85.7591 53.0727 77.824 40.0209L100.263 6.05628L100.657 54.4722C100.421 62.3139 96.3869 69.2326 90.3309 74.0653L46.8593 108.729L18.3894 89.7942C22.617 74.8287 26.3625 59.7494 30.5901 44.7839C33.7421 33.6172 35.0662 25.2746 46.3663 19.3534L91.4576 -0.000106182Z" fill="url(#paint0_linear_614_7676)"/>
<path d="M39.421 146.944C36.9319 147.613 34.2885 147.245 31.969 146.229L-11.4759 117.721C-15.6246 114.518 -16.6801 108.992 -14.237 104.42C-10.463 97.2806 -4.74377 88.9119 4.44964 93.4514L47.3578 121.582C49.9184 123.465 51.2308 126.401 51.5178 129.55C51.9768 134.558 44.37 145.611 39.421 146.944Z" fill="url(#paint1_linear_614_7676)"/>
<path d="M63.7033 51.0505C58.7149 47.7772 63.736 39.4312 69.045 43.2186C74.354 47.006 68.4733 54.1553 63.7033 51.0505Z" fill="url(#paint2_linear_614_7676)"/>
</g>
<defs>
<linearGradient id="paint0_linear_614_7676" x1="-16.8142" y1="148.101" x2="-16.4457" y2="-48.2216" gradientUnits="userSpaceOnUse">
<stop offset="0.0572756" stop-color="#5EE0B6"/>
<stop offset="0.298763" stop-color="#2F8F5B" stop-opacity="0.7"/>
<stop offset="0.903846" stop-color="#0F2A20" stop-opacity="0"/>
</linearGradient>
<linearGradient id="paint1_linear_614_7676" x1="-31.596" y1="178.346" x2="-31.3806" y2="53.4145" gradientUnits="userSpaceOnUse">
<stop offset="0.0572756" stop-color="#5EE0B6"/>
<stop offset="0.298763" stop-color="#2F8F5B" stop-opacity="0.7"/>
<stop offset="0.903846" stop-color="#0F2A20" stop-opacity="0"/>
</linearGradient>
<linearGradient id="paint2_linear_614_7676" x1="58.6986" y1="56.0143" x2="58.7065" y2="36.8301" gradientUnits="userSpaceOnUse">
<stop offset="0.0572756" stop-color="#5EE0B6"/>
<stop offset="0.298763" stop-color="#2F8F5B" stop-opacity="0.7"/>
<stop offset="0.903846" stop-color="#0F2A20" stop-opacity="0"/>
</linearGradient>
</defs>
</svg>
