<svg width="122" height="118" viewBox="0 0 122 118" fill="none" xmlns="http://www.w3.org/2000/svg">
<mask id="mask0_614_7662" style="mask-type:alpha" maskUnits="userSpaceOnUse" x="-18" y="-23" width="161" height="141">
<path d="M-17.9009 -22.7788H142.749V117.363H-9.89279C-14.3155 117.363 -17.9009 113.777 -17.9009 109.354V-22.7788Z" fill="#D9D9D9"/>
</mask>
<g mask="url(#mask0_614_7662)">
<path d="M118.349 106.845L94.8546 82.082C93.3364 80.4817 90.8258 80.4157 89.252 81.9347L86.8117 84.2242L80.5329 77.6064C81.051 77.0117 81.5684 76.4435 82.0608 75.8218C82.444 75.3294 82.8007 74.8363 83.1575 74.3432C83.46 73.9016 83.7361 73.4592 84.0928 72.9661C84.805 72.0328 85.4148 70.9646 85.9962 69.9749C86.4385 69.2461 86.8551 68.4901 87.2452 67.7334C88.86 64.6553 90.109 61.4088 90.99 58.0734C91.901 54.6065 92.3912 51.0492 92.485 47.4815C92.5017 46.8472 92.5177 46.2394 92.5072 45.6308L77.9425 59.4493C77.9808 60.0057 77.9926 60.5614 78.0038 61.1435C76.4755 75.0138 67.3254 78.026 60.3458 78.9533C60.0815 78.9463 59.8172 78.9394 59.5529 78.9324C49.6426 78.6719 41.7941 70.3996 42.0547 60.4893C42.0769 59.6436 42.1513 58.8257 42.2786 58.0092L34.533 49.8454C33.711 49.9296 32.8632 49.9867 32.0175 49.9644C31.0133 49.938 30.0111 49.8323 29.0117 49.6209L6.87993 70.6189C14.8203 83.4423 28.8466 92.115 45.0202 92.5402C46.7645 92.5861 48.485 92.5255 50.2077 92.3857C51.9039 92.2451 53.5765 91.9982 55.2512 91.672C56.8994 91.3451 58.5233 90.9382 60.0971 90.4242C61.6702 89.9367 63.2197 89.3427 64.7441 88.6952C66.2421 88.047 67.7158 87.3188 69.1129 86.4828C69.4892 86.2547 69.8126 86.0252 70.1881 85.8235C70.5908 85.5961 70.967 85.3679 71.3433 85.1398C72.1222 84.6843 72.876 84.1752 73.6035 83.6654C74.2231 83.2321 74.8435 82.7724 75.4645 82.2862L81.7947 88.9583L79.6249 91.0169C78.0247 92.5352 77.9587 95.0458 79.4777 96.6196L102.972 121.382C104.49 122.982 107 123.048 108.574 121.53L118.148 112.446C119.749 110.928 119.815 108.417 118.296 106.843L118.349 106.845Z" fill="url(#paint0_linear_614_7662)"/>
<path d="M14.5498 31.4674C14.8103 21.5571 23.0827 13.7086 32.993 13.9691C42.9033 14.2297 50.7518 22.502 50.4912 32.4123C50.4718 33.1523 50.4002 33.8644 50.3021 34.5759L58.3307 43.038C59.0464 42.9775 59.7877 42.9441 60.5277 42.9636C61.4262 42.9872 62.3234 43.0637 63.1913 43.2452L85.6215 21.9642C77.6811 9.14078 63.6555 0.441621 47.4818 0.0164148C21.9264 -0.655438 0.688958 19.5197 0.0177995 45.0487C0.00112472 45.683 -0.0148539 46.2908 0.0213264 46.9265L14.5589 33.1337C14.5206 32.5773 14.5088 32.0217 14.5227 31.4931L14.5498 31.4674Z" fill="url(#paint1_linear_614_7662)"/>
<path d="M121.999 12.4219C121.847 18.2096 117.047 22.7643 111.259 22.6121C109.673 22.5704 108.203 22.1615 106.871 21.5183L69.5781 56.9008C69.5781 56.9008 69.6525 57.0879 69.7026 57.195C69.7527 57.3021 69.7764 57.4085 69.8264 57.5156C69.8758 57.6491 69.9252 57.7826 69.9481 57.9154C69.9968 58.0754 70.0448 58.2618 70.0928 58.4482C70.1408 58.6345 70.1631 58.7938 70.2111 58.9802C70.3509 59.6979 70.41 60.4664 70.3905 61.2064C70.3489 62.792 69.9393 64.2887 69.2696 65.6198L69.296 65.6205C68.2355 67.7347 66.4983 69.4344 64.357 70.4095C63.8222 70.6335 63.2609 70.8568 62.7018 71.0007C62.5154 71.0487 62.3554 71.0974 62.1698 71.119C62.1169 71.1176 62.0905 71.1169 62.0369 71.1419C61.9305 71.1656 61.7977 71.1885 61.6648 71.2115C61.5591 71.2087 61.4256 71.2581 61.3199 71.2553C60.7628 71.32 60.2065 71.3583 59.6515 71.3437C53.8903 71.1922 49.3092 66.3909 49.4613 60.6032C49.5051 58.9383 49.9432 57.3631 50.6936 55.9812L36.8236 41.3622C35.4042 42.039 33.8081 42.3937 32.1168 42.3492C30.2668 42.3006 28.5616 41.7797 27.0774 40.8945L2.9928 63.7451C2.56576 62.8876 1.69707 60.7227 0.806078 56.3886L22.6395 35.6737C22.1437 34.4178 21.8884 33.0623 21.9266 31.6088C22.0781 25.8476 26.8794 21.2665 32.667 21.4186C38.4547 21.5708 43.0093 26.3714 42.8572 32.1591C42.8155 33.7447 42.4059 35.2414 41.7362 36.5725L55.7349 51.327C57.0993 50.7282 58.6154 50.3978 60.2011 50.4395C61.9453 50.4854 63.5727 50.9513 64.9796 51.7552L102.056 16.5785C101.38 15.1327 100.999 13.5359 101.043 11.8445C101.195 6.08335 105.996 1.50222 111.784 1.65438C117.571 1.80654 122.126 6.60719 121.974 12.3948L121.999 12.4219Z" fill="url(#paint2_linear_614_7662)"/>
</g>
<defs>
<linearGradient id="paint0_linear_614_7662" x1="-22.6856" y1="15.2543" x2="158.501" y2="6.28008" gradientUnits="userSpaceOnUse">
<stop offset="0.0572756" stop-color="#5EE0B6"/>
<stop offset="0.332633" stop-color="#2F8F5B" stop-opacity="0.7"/>
<stop offset="0.903846" stop-color="#0F2A20" stop-opacity="0"/>
</linearGradient>
<linearGradient id="paint1_linear_614_7662" x1="-21.5218" y1="-18.9808" x2="113.844" y2="-27.646" gradientUnits="userSpaceOnUse">
<stop offset="0.0572756" stop-color="#5EE0B6"/>
<stop offset="0.332633" stop-color="#2F8F5B" stop-opacity="0.7"/>
<stop offset="0.903846" stop-color="#0F2A20" stop-opacity="0"/>
</linearGradient>
<linearGradient id="paint2_linear_614_7662" x1="-10.9579" y1="126.523" x2="60.7689" y2="-57.8144" gradientUnits="userSpaceOnUse">
<stop offset="0.0572756" stop-color="#5EE0B6"/>
<stop offset="0.433529" stop-color="#2F8F5B" stop-opacity="0.7"/>
<stop offset="0.903846" stop-color="#0F2A20" stop-opacity="0"/>
</linearGradient>
</defs>
</svg>
