<svg width="767" height="267" viewBox="0 0 767 267" fill="none" xmlns="http://www.w3.org/2000/svg">
<g filter="url(#filter0_d_614_7671)">
<g filter="url(#filter1_i_614_7671)">
<rect width="710" height="210" rx="8" transform="matrix(-1 0 0 1 738.5 12.5)" fill="#0F2A20" fill-opacity="0.2"/>
</g>
<rect x="-0.1" y="0.1" width="709.8" height="209.8" rx="7.9" transform="matrix(-1 0 0 1 738.3 12.5)" stroke="url(#paint0_linear_614_7671)" stroke-width="0.2"/>
<mask id="mask0_614_7671" style="mask-type:alpha" maskUnits="userSpaceOnUse" x="28" y="12" width="711" height="211">
<rect x="-0.1" y="0.1" width="709.8" height="209.8" rx="7.9" transform="matrix(-1 0 0 1 738.3 12.5)" fill="#2F8F5B" stroke="white" stroke-width="0.2"/>
</mask>
<g mask="url(#mask0_614_7671)">
<g filter="url(#filter2_f_614_7671)">
<path d="M-11.1679 164.61C11.2126 -73.7754 673.432 40.2317 762.297 19.8105L-145.962 -111.299L-183.955 151.893C-185.552 152.341 -185.473 152.765 -184.109 152.962L-183.955 151.893C-176.474 149.791 -132.229 147.134 -11.1679 164.61Z" fill="#3FBF8C"/>
</g>
</g>
</g>
<defs>
<filter id="filter0_d_614_7671" x="0" y="0" width="767" height="267" filterUnits="userSpaceOnUse" color-interpolation-filters="sRGB">
<feFlood flood-opacity="0" result="BackgroundImageFix"/>
<feColorMatrix in="SourceAlpha" type="matrix" values="0 0 0 0 0 0 0 0 0 0 0 0 0 0 0 0 0 0 127 0" result="hardAlpha"/>
<feOffset dy="16"/>
<feGaussianBlur stdDeviation="14.25"/>
<feComposite in2="hardAlpha" operator="out"/>
<feColorMatrix type="matrix" values="0 0 0 0 0 0 0 0 0 0 0 0 0 0 0 0 0 0 0.05 0"/>
<feBlend mode="normal" in2="BackgroundImageFix" result="effect1_dropShadow_614_7671"/>
<feBlend mode="normal" in="SourceGraphic" in2="effect1_dropShadow_614_7671" result="shape"/>
</filter>
<filter id="filter1_i_614_7671" x="28.5" y="12.5" width="718" height="211" filterUnits="userSpaceOnUse" color-interpolation-filters="sRGB">
<feFlood flood-opacity="0" result="BackgroundImageFix"/>
<feBlend mode="normal" in="SourceGraphic" in2="BackgroundImageFix" result="shape"/>
<feColorMatrix in="SourceAlpha" type="matrix" values="0 0 0 0 0 0 0 0 0 0 0 0 0 0 0 0 0 0 127 0" result="hardAlpha"/>
<feOffset dx="8" dy="1"/>
<feGaussianBlur stdDeviation="6.5"/>
<feComposite in2="hardAlpha" operator="arithmetic" k2="-1" k3="1"/>
<feColorMatrix type="matrix" values="0 0 0 0 0.184314 0 0 0 0 0.560784 0 0 0 0 0.356863 0 0 0 1 0"/>
<feBlend mode="normal" in2="shape" result="effect1_innerShadow_614_7671"/>
</filter>
<filter id="filter2_f_614_7671" x="-249.143" y="-175.299" width="1075.44" height="403.909" filterUnits="userSpaceOnUse" color-interpolation-filters="sRGB">
<feFlood flood-opacity="0" result="BackgroundImageFix"/>
<feBlend mode="normal" in="SourceGraphic" in2="BackgroundImageFix" result="shape"/>
<feGaussianBlur stdDeviation="32" result="effect1_foregroundBlur_614_7671"/>
</filter>
<linearGradient id="paint0_linear_614_7671" x1="0" y1="0" x2="166.993" y2="423.91" gradientUnits="userSpaceOnUse">
<stop stop-color="white"/>
<stop offset="1" stop-color="white" stop-opacity="0"/>
</linearGradient>
</defs>
</svg>
