<svg width="108" height="121" viewBox="0 0 108 121" fill="none" xmlns="http://www.w3.org/2000/svg">
<mask id="mask0_614_7691" style="mask-type:alpha" maskUnits="userSpaceOnUse" x="0" y="-5" width="162" height="142">
<path d="M0 -4.0176H161.184V136.59H8.03471C3.59726 136.59 0 132.993 0 128.555V-4.0176Z" fill="#D9D9D9"/>
</mask>
<g mask="url(#mask0_614_7691)">
<path d="M97.7847 38.7653C95.294 39.6849 92.7267 40.3746 90.2744 41.2943C88.1669 42.0606 85.9827 43.0186 83.8369 43.8232C81.8061 44.5513 79.7752 45.241 77.7444 45.969C75.9818 46.6204 74.1425 47.1186 72.3799 47.77C70.8088 48.3448 69.2761 48.9962 67.7051 49.5709C66.4023 50.0307 65.0995 50.5289 63.7583 51.027C62.3406 51.5251 60.8845 51.9466 59.4667 52.4831C57.4359 53.2111 55.405 53.9008 53.3742 54.6289C51.2284 55.3952 49.0826 56.3915 46.9367 57.1579C45.519 57.656 44.0629 58.1158 42.6451 58.614C40.9591 59.1887 39.3115 59.8401 37.6255 60.4149C35.9395 60.9897 34.3301 61.6794 32.6058 62.2158C29.3105 63.2504 29.1955 63.9401 25.4404 63.2887C23.103 62.8672 22.1067 62.1775 20.0759 61.4878C18.0067 60.7981 16.0142 60.0317 13.9833 59.342C12.2973 58.7672 10.6113 58.1158 8.96366 57.5411C7.66084 57.0812 6.31971 56.5831 5.0169 56.085C3.71409 55.6252 2.37296 55.127 1.07015 54.6289C-0.577522 54.0541 -2.30183 53.4027 -3.9495 52.8279C-5.25231 52.3681 -6.63176 51.8317 -7.89626 51.3719C-9.31402 50.8737 -10.7701 50.4522 -12.1879 49.9158C-13.4907 49.456 -14.8318 48.9578 -16.1346 48.4597C-17.8206 47.8466 -19.4683 47.2719 -21.1542 46.6588C-22.4571 46.199 -23.7982 45.7008 -25.101 45.2027C-27.3618 44.398 -29.6992 43.4784 -31.9216 42.6737C-34.2973 41.8307 -36.7114 41.026 -39.0871 40.1447C-41.4628 39.2634 -43.8768 38.5354 -46.2525 37.6157C-49.203 36.4662 -52.9582 36.2746 -53.0731 32.0213C-53.2264 27.5381 -49.2796 27.2699 -46.2525 26.1204C-43.8768 25.2007 -41.4628 24.4727 -39.0871 23.5914C-36.7114 22.7101 -34.2973 21.9437 -31.9216 21.0624C-29.6992 20.2577 -27.3618 19.3764 -25.101 18.5334C-23.7982 18.0736 -22.4571 17.5755 -21.1542 17.0774C-19.4683 16.4643 -17.8206 15.8895 -16.1346 15.2764C-14.8318 14.8166 -13.4907 14.3185 -12.1879 13.8203C-10.7701 13.3222 -9.31402 12.9007 -7.89626 12.3642C-6.63176 11.9044 -5.25231 11.4063 -3.9495 10.9082C-2.30183 10.3334 -0.577522 9.682 1.07015 9.10723C2.37296 8.64741 3.71409 8.14928 5.0169 7.65115C6.31971 7.19133 7.66084 6.6932 8.96366 6.19507C10.6113 5.6203 12.2973 4.9689 13.9833 4.39413C16.0142 3.66609 18.0067 2.93805 20.0759 2.24833C21.9151 1.63524 23.3712 0.485701 25.4404 0.447383C27.8927 -0.778789 30.3834 0.830563 32.6058 1.52029C34.3301 2.05674 35.9395 2.74646 37.6255 3.32123C39.3115 3.89599 40.9591 4.5474 42.6451 5.12217C44.0629 5.6203 45.519 6.0418 46.9367 6.57825C49.1209 7.3446 51.2284 8.34087 53.3742 9.10723C55.405 9.83527 57.4359 10.525 59.4667 11.253C60.8845 11.7512 62.3406 12.1727 63.7583 12.7091C65.0611 13.1689 66.4023 13.6671 67.7051 14.1652C69.2761 14.74 70.8088 15.3914 72.3799 15.9661C74.1425 16.6175 75.9818 17.1157 77.7444 17.7671C79.7752 18.4951 81.8061 19.1848 83.8369 19.9129C85.9827 20.6792 88.2052 21.6755 90.2744 22.4419C92.7267 23.3232 95.3323 24.0512 97.7847 24.9708C101.272 26.4269 107.326 27.1166 107.479 31.7914C107.632 36.7344 101.387 37.4625 97.7847 38.7653Z" fill="url(#paint0_linear_614_7691)"/>
<path d="M-45.2945 83.3292C-42.8805 82.4479 -40.5431 81.6432 -38.1291 80.8002C-35.945 80.0339 -33.6842 78.8077 -31.3085 78.2712C-28.3197 78.8077 -25.5608 80.1488 -22.687 81.1451C-20.3879 81.9497 -18.1654 82.8694 -15.8664 83.6741C-14.5635 84.1339 -13.2224 84.632 -11.9196 85.1301C-10.5018 85.6283 -9.04577 86.0498 -7.62801 86.5862C-6.05697 87.161 -4.52424 87.8507 -2.95321 88.3872C-1.53545 88.8853 -0.0793681 89.3068 1.33839 89.8432C2.64121 90.303 3.98234 90.8012 5.28515 91.2993C6.8945 91.8741 8.46553 92.5638 9.95993 93.1003C11.4543 93.6367 13.102 94.0199 14.6347 94.5563C16.5506 95.2077 18.5048 96.1274 20.3824 96.7021C22.6049 97.3919 24.4824 98.0049 26.8198 98.1582C28.3526 98.2349 29.3105 98.1582 30.7666 97.8134C32.0311 97.5068 33.7554 96.8171 35.0582 96.3573C37.0891 95.7059 39.1199 94.9012 41.1508 94.2115C42.7984 93.6367 44.4844 92.9853 46.1704 92.4105C47.8181 91.8358 49.5424 91.2227 51.1901 90.6096C52.4929 90.1498 53.834 89.6516 55.1368 89.1535C56.7845 88.5787 58.4705 87.9657 60.1565 87.3526C61.5742 86.8544 63.0303 86.4329 64.4481 85.8965C65.9425 85.36 67.5518 84.6703 69.1229 84.0955C71.1537 83.3675 73.1846 82.6395 75.2154 81.9497C77.2846 81.2217 79.2388 80.4554 81.308 79.8039C82.3809 79.4591 83.8753 78.3862 85.0631 78.3479C86.7108 78.3479 88.1286 79.3441 89.5463 79.8039C92.3435 80.7236 95.0641 81.6815 97.7847 82.6778C101.272 83.904 107.326 84.632 107.479 89.2685C107.632 94.1348 101.348 94.9395 97.7847 96.2423C95.0641 97.2769 92.2669 98.1199 89.5463 99.1162C86.9024 100.074 84.2968 101.032 81.6528 101.99C79.8902 102.641 78.0509 103.14 76.2883 103.791C74.2958 104.519 72.1883 105.209 70.1958 105.937C68.4715 106.55 66.6322 107.431 64.8313 108.083C63.2985 108.619 61.6125 109.002 60.1565 109.539C58.892 109.998 57.5125 110.497 56.2097 110.995C54.677 111.531 53.1443 112.221 51.5349 112.796C49.8489 113.37 48.2013 113.984 46.5153 114.597C44.8293 115.171 43.1816 115.823 41.4956 116.398C39.5797 117.087 37.7021 117.892 35.7479 118.543C34.1769 119.08 32.6825 119.501 31.0731 119.999C28.2376 120.842 28.8124 121.341 25.3254 120.727C22.988 120.306 21.9918 119.616 19.9609 118.927C17.8918 118.237 15.8992 117.47 13.8684 116.781C12.1824 116.206 10.5347 115.555 8.84872 114.98C7.54591 114.52 6.20477 114.022 4.90197 113.524C3.59916 113.064 2.25803 112.566 0.955222 112.068C-0.730765 111.455 -2.37845 110.88 -4.06443 110.267C-5.36725 109.807 -6.70837 109.309 -8.01118 108.811C-9.65885 108.236 -11.3832 107.623 -13.0308 107.01C-14.1037 106.626 -15.1766 106.32 -16.2495 105.937C-18.5103 105.132 -20.8094 104.251 -23.0701 103.408C-26.0589 102.335 -29.0477 101.262 -32.0365 100.189C-34.0291 99.461 -36.0982 98.7713 -38.1291 98.0433C-40.3898 97.2003 -42.7272 96.3573 -44.9497 95.5143C-48.0918 94.3264 -53.0731 94.1732 -53.2264 89.575C-53.3796 84.8619 -48.5899 84.517 -45.3329 83.2909L-45.2945 83.3292Z" fill="url(#paint1_linear_614_7691)"/>
<path d="M-45.9864 54.9348C-44.7219 54.4367 -43.3425 53.9768 -42.0397 53.4787C-39.9322 52.7124 -38.1312 52.0226 -35.9471 51.3329C-34.7209 50.9114 -33.5714 50.26 -32.0004 49.8768C-31.8471 49.8768 -31.349 49.2254 -30.8125 49.532C-29.3947 49.9151 -28.0153 50.4899 -26.6358 50.9497C-25.4097 51.3712 -24.2218 51.946 -23.034 52.4058C-20.8498 53.1722 -18.6657 54.1684 -16.5966 54.9348C-14.4891 55.7011 -12.2666 56.3142 -10.1591 57.0806C-8.85632 57.5404 -7.51519 58.0385 -6.21238 58.5367C-4.18153 59.2647 -2.15068 59.9928 -0.119826 60.6825C2.52412 61.6021 5.12973 62.675 7.77367 63.5563C10.2643 64.3993 12.7933 65.2806 15.284 66.0853C17.3915 66.7367 19.6906 67.6947 21.7214 68.2311C22.9859 68.576 25.2083 69.2274 26.3962 69.304C27.8906 69.3806 29.9215 68.9208 31.4159 68.576C32.7187 68.2694 34.6729 67.5797 36.0907 67.1199C38.1981 66.4685 40.4206 65.6638 42.5281 64.9741C44.2907 64.3993 46.13 63.7862 47.8926 63.1731C50.0767 62.4068 52.4524 61.4488 54.7132 60.6442C56.744 59.9161 58.7749 59.2264 60.8057 58.4984C62.4534 57.8853 64.1777 57.3105 65.8254 56.6974C67.1282 56.2376 68.4693 55.7395 69.7721 55.2413C71.9946 54.4367 74.332 53.5553 76.5927 52.7124C78.4703 52.0609 80.3479 51.1796 82.3404 50.5666C84.5245 49.8768 83.7582 49.2254 86.632 49.8385C88.433 50.2217 89.9657 51.0647 91.6517 51.6395C93.3377 52.2142 94.9854 52.8273 96.6713 53.4404C98.2424 54.0152 99.7751 54.6282 101.346 55.2413C104.067 56.2759 107.324 56.2759 107.477 60.4526C107.63 64.7825 104.143 64.8974 101.346 66.0087C99.7751 66.6218 98.2424 67.2348 96.6713 67.8096C95.0237 68.4227 93.2994 68.9975 91.6517 69.6105C90.004 70.2236 88.318 70.7984 86.632 71.4115C85.3292 71.8713 83.9881 72.3694 82.6853 72.8676C80.6544 73.5956 78.6236 74.2853 76.5927 75.0134C74.4469 75.7797 72.2628 76.3928 70.1553 77.1592C68.8908 77.619 67.5114 78.1171 66.2086 78.6153C64.6375 79.1517 63.1048 79.8414 61.5338 80.4162C59.388 81.1826 57.2038 81.834 55.0964 82.562C52.9889 83.29 50.8047 84.3246 48.6589 85.091C46.6281 85.819 44.5972 86.5471 42.5664 87.2368C40.6505 87.9265 38.7729 88.7312 36.8187 89.3826C35.0177 89.9957 33.2551 90.6088 31.4542 91.1835C28.5037 92.1032 28.6953 92.4863 25.3616 91.9116C23.2924 91.5667 22.756 91.0303 21.07 90.4555C19.0008 89.7658 17.0083 88.9994 14.9775 88.3097C12.3335 87.3901 9.65125 86.3555 7.08395 85.4358C4.70824 84.5928 2.2942 83.7882 -0.081506 82.9069C-2.11236 82.1788 -4.14321 81.4891 -6.17406 80.7611C-7.86005 80.148 -9.54604 79.5732 -11.1937 78.9601C-13.1096 78.2704 -15.0638 77.4657 -16.9414 76.8143C-18.9723 76.0863 -21.0031 75.3966 -23.034 74.6685C-24.3368 74.2087 -25.6779 73.7106 -26.9807 73.2124C-28.6284 72.5993 -30.3527 72.0246 -32.0004 71.4115C-33.3032 70.9517 -34.6826 70.4152 -35.9471 69.9554C-37.9397 69.2274 -40.0088 68.5376 -42.0397 67.8096C-43.3425 67.3115 -44.6453 66.89 -45.9864 66.3535C-49.0135 65.204 -53.3051 65.089 -53.1902 60.4526C-53.0369 56.0843 -48.9752 56.046 -45.9864 54.8582V54.9348Z" fill="url(#paint2_linear_614_7691)"/>
</g>
<defs>
<linearGradient id="paint0_linear_614_7691" x1="-64.6164" y1="82.2782" x2="153.395" y2="-32.4603" gradientUnits="userSpaceOnUse">
<stop offset="0.0572756" stop-color="#5EE0B6"/>
<stop offset="0.24178" stop-color="#2F8F5B" stop-opacity="0.7"/>
<stop offset="0.903846" stop-color="#0F2A20" stop-opacity="0"/>
</linearGradient>
<linearGradient id="paint1_linear_614_7691" x1="-64.7798" y1="133.599" x2="107.903" y2="-1.68177" gradientUnits="userSpaceOnUse">
<stop offset="0.0572756" stop-color="#5EE0B6"/>
<stop offset="0.24178" stop-color="#2F8F5B" stop-opacity="0.7"/>
<stop offset="0.903846" stop-color="#0F2A20" stop-opacity="0"/>
</linearGradient>
<linearGradient id="paint2_linear_614_7691" x1="-64.7396" y1="104.783" x2="107.946" y2="-30.4556" gradientUnits="userSpaceOnUse">
<stop offset="0.0572756" stop-color="#5EE0B6"/>
<stop offset="0.24178" stop-color="#2F8F5B" stop-opacity="0.7"/>
<stop offset="0.903846" stop-color="#0F2A20" stop-opacity="0"/>
</linearGradient>
</defs>
</svg>
