<svg width="120" height="19" viewBox="0 0 120 19" fill="none" xmlns="http://www.w3.org/2000/svg">
<path d="M8.88922 0.693376C9.18951 -0.230823 10.497 -0.230821 10.7973 0.693378L12.4333 5.72837C12.5676 6.14168 12.9527 6.42151 13.3873 6.42151H18.6814C19.6532 6.42151 20.0572 7.66502 19.271 8.2362L14.988 11.348C14.6364 11.6034 14.4893 12.0562 14.6236 12.4695L16.2596 17.5045C16.5599 18.4287 15.5021 19.1972 14.7159 18.6261L10.4329 15.5143C10.0813 15.2588 9.60522 15.2588 9.25363 15.5143L4.97061 18.6261C4.18444 19.1972 3.12666 18.4287 3.42695 17.5045L5.06292 12.4695C5.19721 12.0562 5.05009 11.6034 4.69851 11.348L0.415489 8.2362C-0.370682 7.66501 0.0333582 6.42151 1.00512 6.42151H6.29922C6.7338 6.42151 7.11896 6.14168 7.25326 5.72837L8.88922 0.693376Z" fill="url(#paint0_linear_614_7747)"/>
<path d="M33.9676 0.693376C34.2679 -0.230823 35.5754 -0.230821 35.8757 0.693378L37.5116 5.72837C37.6459 6.14168 38.0311 6.42151 38.4657 6.42151H43.7598C44.7315 6.42151 45.1356 7.66502 44.3494 8.2362L40.0664 11.348C39.7148 11.6034 39.5677 12.0562 39.702 12.4695L41.3379 17.5045C41.6382 18.4287 40.5804 19.1972 39.7943 18.6261L35.5113 15.5143C35.1597 15.2588 34.6836 15.2588 34.332 15.5143L30.049 18.6261C29.2628 19.1972 28.205 18.4287 28.5053 17.5045L30.1413 12.4695C30.2756 12.0562 30.1285 11.6034 29.7769 11.348L25.4939 8.2362C24.7077 7.66501 25.1117 6.42151 26.0835 6.42151H31.3776C31.8122 6.42151 32.1973 6.14168 32.3316 5.72837L33.9676 0.693376Z" fill="url(#paint1_linear_614_7747)"/>
<path d="M59.046 0.693376C59.3463 -0.230823 60.6537 -0.230821 60.954 0.693378L62.59 5.72837C62.7243 6.14168 63.1095 6.42151 63.544 6.42151H68.8381C69.8099 6.42151 70.2139 7.66502 69.4278 8.2362L65.1448 11.348C64.7932 11.6034 64.646 12.0562 64.7803 12.4695L66.4163 17.5045C66.7166 18.4287 65.6588 19.1972 64.8726 18.6261L60.5896 15.5143C60.238 15.2588 59.762 15.2588 59.4104 15.5143L55.1274 18.6261C54.3412 19.1972 53.2834 18.4287 53.5837 17.5045L55.2197 12.4695C55.354 12.0562 55.2068 11.6034 54.8552 11.348L50.5722 8.2362C49.7861 7.66501 50.1901 6.42151 51.1619 6.42151H56.456C56.8905 6.42151 57.2757 6.14168 57.41 5.72837L59.046 0.693376Z" fill="url(#paint2_linear_614_7747)"/>
<path d="M84.1243 0.693376C84.4246 -0.230823 85.7321 -0.230821 86.0324 0.693378L87.6684 5.72837C87.8027 6.14168 88.1878 6.42151 88.6224 6.42151H93.9165C94.8883 6.42151 95.2923 7.66502 94.5061 8.2362L90.2231 11.348C89.8715 11.6034 89.7244 12.0562 89.8587 12.4695L91.4947 17.5045C91.795 18.4287 90.7372 19.1972 89.951 18.6261L85.668 15.5143C85.3164 15.2588 84.8403 15.2588 84.4887 15.5143L80.2057 18.6261C79.4196 19.1972 78.3618 18.4287 78.6621 17.5045L80.298 12.4695C80.4323 12.0562 80.2852 11.6034 79.9336 11.348L75.6506 8.2362C74.8644 7.66501 75.2685 6.42151 76.2402 6.42151H81.5343C81.9689 6.42151 82.3541 6.14168 82.4884 5.72837L84.1243 0.693376Z" fill="url(#paint3_linear_614_7747)"/>
<path d="M109.203 0.693376C109.503 -0.230823 110.81 -0.230821 111.111 0.693378L112.747 5.72837C112.881 6.14168 113.266 6.42151 113.701 6.42151H118.995C119.967 6.42151 120.371 7.66502 119.585 8.2362L115.301 11.348C114.95 11.6034 114.803 12.0562 114.937 12.4695L116.573 17.5045C116.873 18.4287 115.816 19.1972 115.029 18.6261L110.746 15.5143C110.395 15.2588 109.919 15.2588 109.567 15.5143L105.284 18.6261C104.498 19.1972 103.44 18.4287 103.74 17.5045L105.376 12.4695C105.511 12.0562 105.364 11.6034 105.012 11.348L100.729 8.2362C99.9428 7.66501 100.347 6.42151 101.319 6.42151H106.613C107.047 6.42151 107.432 6.14168 107.567 5.72837L109.203 0.693376Z" fill="url(#paint4_linear_614_7747)"/>
<defs>
<linearGradient id="paint0_linear_614_7747" x1="-5.20378" y1="-10.1246" x2="37.6519" y2="-5.13939" gradientUnits="userSpaceOnUse">
<stop stop-color="#5EE0B6"/>
<stop offset="1" stop-color="#0F2A20"/>
</linearGradient>
<linearGradient id="paint1_linear_614_7747" x1="19.8746" y1="-10.1246" x2="62.7303" y2="-5.13939" gradientUnits="userSpaceOnUse">
<stop stop-color="#5EE0B6"/>
<stop offset="1" stop-color="#0F2A20"/>
</linearGradient>
<linearGradient id="paint2_linear_614_7747" x1="44.953" y1="-10.1246" x2="87.8086" y2="-5.13939" gradientUnits="userSpaceOnUse">
<stop stop-color="#5EE0B6"/>
<stop offset="1" stop-color="#0F2A20"/>
</linearGradient>
<linearGradient id="paint3_linear_614_7747" x1="70.0313" y1="-10.1246" x2="112.887" y2="-5.13939" gradientUnits="userSpaceOnUse">
<stop stop-color="#5EE0B6"/>
<stop offset="1" stop-color="#0F2A20"/>
</linearGradient>
<linearGradient id="paint4_linear_614_7747" x1="95.1097" y1="-10.1246" x2="137.965" y2="-5.13939" gradientUnits="userSpaceOnUse">
<stop stop-color="#5EE0B6"/>
<stop offset="1" stop-color="#0F2A20"/>
</linearGradient>
</defs>
</svg>
