<svg width="947" height="959" viewBox="0 0 947 959" fill="none" xmlns="http://www.w3.org/2000/svg">
<g opacity="0.5">
<mask id="mask0_615_3679" style="mask-type:alpha" maskUnits="userSpaceOnUse" x="20" y="20" width="1405" height="1213">
<ellipse cx="485.967" cy="789.822" rx="485.967" ry="789.822" transform="matrix(-0.631913 0.775502 0.799654 0.601058 397.955 -225.433)" fill="url(#paint0_linear_615_3679)"/>
</mask>
<g mask="url(#mask0_615_3679)">
<g filter="url(#filter0_f_615_3679)">
<path d="M123.223 122.902C302.413 -22.4331 555.159 -17.0714 687.748 134.878C820.337 286.828 782.559 527.825 603.37 673.16C424.18 818.496 171.434 813.134 38.8453 661.185C-93.7435 509.235 -55.9661 268.238 123.223 122.902Z" fill="#288161"/>
</g>
<g filter="url(#filter1_f_615_3679)">
<path d="M213.311 224.697C308.739 147.299 422.151 125.871 466.624 176.838C511.097 227.805 469.79 331.866 374.362 409.265C278.934 486.663 165.522 508.091 121.049 457.124C76.5761 406.157 117.883 302.096 213.311 224.697Z" fill="#5EE0B6"/>
</g>
<g filter="url(#filter2_f_615_3679)">
<path d="M126.883 127.094C222.722 49.3613 338.106 29.5409 384.599 82.8235C431.093 136.106 391.09 242.315 295.251 320.047C199.412 397.779 84.029 417.6 37.5354 364.317C-8.95815 311.034 31.0443 204.826 126.883 127.094Z" fill="#5EE0B6"/>
</g>
</g>
</g>
<defs>
<filter id="filter0_f_615_3679" x="-220.407" y="-162.751" width="1167.41" height="1121.56" filterUnits="userSpaceOnUse" color-interpolation-filters="sRGB">
<feFlood flood-opacity="0" result="BackgroundImageFix"/>
<feBlend mode="normal" in="SourceGraphic" in2="BackgroundImageFix" result="shape"/>
<feGaussianBlur stdDeviation="90" result="effect1_foregroundBlur_615_3679"/>
</filter>
<filter id="filter1_f_615_3679" x="-16.883" y="29.1208" width="621.438" height="575.72" filterUnits="userSpaceOnUse" color-interpolation-filters="sRGB">
<feFlood flood-opacity="0" result="BackgroundImageFix"/>
<feBlend mode="normal" in="SourceGraphic" in2="BackgroundImageFix" result="shape"/>
<feGaussianBlur stdDeviation="60" result="effect1_foregroundBlur_615_3679"/>
</filter>
<filter id="filter2_f_615_3679" x="-61.8796" y="-27.1128" width="545.893" height="501.366" filterUnits="userSpaceOnUse" color-interpolation-filters="sRGB">
<feFlood flood-opacity="0" result="BackgroundImageFix"/>
<feBlend mode="normal" in="SourceGraphic" in2="BackgroundImageFix" result="shape"/>
<feGaussianBlur stdDeviation="40" result="effect1_foregroundBlur_615_3679"/>
</filter>
<linearGradient id="paint0_linear_615_3679" x1="585.161" y1="1376.12" x2="292.8" y2="27.0292" gradientUnits="userSpaceOnUse">
<stop offset="0.497742" stop-color="#0F2920" stop-opacity="0"/>
<stop offset="0.780063" stop-color="#0F2920" stop-opacity="0.3"/>
<stop offset="0.992369" stop-color="#0F2920" stop-opacity="0.7"/>
</linearGradient>
</defs>
</svg>
