<svg width="862" height="921" viewBox="0 0 862 921" fill="none" xmlns="http://www.w3.org/2000/svg">
<g opacity="0.5">
<mask id="mask0_615_3729" style="mask-type:alpha" maskUnits="userSpaceOnUse" x="-577" y="20" width="1419" height="881">
<ellipse cx="437.108" cy="710.586" rx="437.108" ry="710.586" transform="matrix(-0.00829882 -1.00041 -0.997776 0.0729879 845.61 845.824)" fill="url(#paint0_linear_615_3729)"/>
</mask>
<g mask="url(#mask0_615_3729)">
<g filter="url(#filter0_f_615_3729)">
<path d="M835.958 447.037C795.327 651.632 617.429 797.572 438.612 773.003C259.796 748.434 147.774 562.66 188.406 358.065C229.037 153.47 406.935 7.52958 585.751 32.0987C764.568 56.6678 876.589 242.442 835.958 447.037Z" fill="#288161"/>
</g>
<g filter="url(#filter1_f_615_3729)">
<path d="M715.289 431.326C693.651 540.283 627.487 621.93 567.509 613.689C507.53 605.448 476.449 510.44 498.087 401.483C519.725 292.525 585.889 210.878 645.868 219.119C705.846 227.36 736.927 322.368 715.289 431.326Z" fill="#5EE0B6"/>
</g>
<g filter="url(#filter2_f_615_3729)">
<path d="M831.024 446.361C809.293 555.788 740.844 637.512 678.14 628.897C615.436 620.281 582.222 524.589 603.953 415.162C625.685 305.735 694.133 224.011 756.837 232.626C819.541 241.242 852.756 336.934 831.024 446.361Z" fill="#5EE0B6"/>
</g>
</g>
</g>
<defs>
<filter id="filter0_f_615_3729" x="0" y="-150.679" width="1024.36" height="1106.46" filterUnits="userSpaceOnUse" color-interpolation-filters="sRGB">
<feFlood flood-opacity="0" result="BackgroundImageFix"/>
<feBlend mode="normal" in="SourceGraphic" in2="BackgroundImageFix" result="shape"/>
<feGaussianBlur stdDeviation="90" result="effect1_foregroundBlur_615_3729"/>
</filter>
<filter id="filter1_f_615_3729" x="371.152" y="98.4931" width="471.073" height="635.822" filterUnits="userSpaceOnUse" color-interpolation-filters="sRGB">
<feFlood flood-opacity="0" result="BackgroundImageFix"/>
<feBlend mode="normal" in="SourceGraphic" in2="BackgroundImageFix" result="shape"/>
<feGaussianBlur stdDeviation="60" result="effect1_foregroundBlur_615_3729"/>
</filter>
<filter id="filter2_f_615_3729" x="517.26" y="151.968" width="400.458" height="557.588" filterUnits="userSpaceOnUse" color-interpolation-filters="sRGB">
<feFlood flood-opacity="0" result="BackgroundImageFix"/>
<feBlend mode="normal" in="SourceGraphic" in2="BackgroundImageFix" result="shape"/>
<feGaussianBlur stdDeviation="40" result="effect1_foregroundBlur_615_3729"/>
</filter>
<linearGradient id="paint0_linear_615_3729" x1="526.329" y1="1238.06" x2="263.24" y2="24.344" gradientUnits="userSpaceOnUse">
<stop offset="0.497742" stop-color="#0F2920" stop-opacity="0"/>
<stop offset="0.780063" stop-color="#0F2920" stop-opacity="0.3"/>
<stop offset="0.992369" stop-color="#0F2920" stop-opacity="0.7"/>
</linearGradient>
</defs>
</svg>
