<svg width="50" height="50" viewBox="0 0 50 50" fill="none" xmlns="http://www.w3.org/2000/svg">
<path d="M49.9877 23.3505C49.9047 23.0394 49.881 22.6868 49.8543 22.3149C49.838 22.0957 49.8232 21.869 49.7936 21.6468C49.1151 16.447 46.6811 11.4589 42.9434 7.60571C39.2102 3.75545 34.3051 1.16886 29.1305 0.321473L26.6002 0.00296288C26.5824 0 26.5631 0 26.5453 0H23.4669C23.4565 0 23.4462 0 23.4358 0C11.0302 0.734794 0.746055 11.0264 0.0201494 23.4379C-0.0124423 23.9875 0.000895333 24.546 0.0157097 25.0867C0.0275613 25.5593 0.0394066 26.0482 0.0186665 26.5148L0.0157097 26.5815L0.0334863 26.6482C0.116447 26.9593 0.141627 27.3118 0.168293 27.6837C0.183108 27.9029 0.199407 28.1296 0.227555 28.3518C0.925313 33.6924 3.45413 38.7752 7.34736 42.667C11.2361 46.5513 16.3175 49.0816 21.6581 49.7897C21.8818 49.8194 22.1099 49.8357 22.3321 49.8519C22.7025 49.8771 23.0521 49.9008 23.3617 49.9838L23.418 50.0001H26.5439C26.5631 50.0001 26.5809 50.0001 26.5987 49.9971L29.129 49.6786C39.865 47.9113 48.361 39.1411 49.7906 28.3533C49.8203 28.1281 49.8366 27.9 49.8514 27.6778C49.878 27.3074 49.9017 26.9578 49.9847 26.6482L49.9995 26.5919V23.4053L49.9847 23.349L49.9877 23.3505ZM43.4915 35.0805C41.616 38.5234 38.8517 41.3514 35.5007 43.2566C32.3215 45.0654 28.6816 46.0224 24.9765 46.0209H24.975C18.2226 46.0209 12.0613 42.9099 8.07327 37.4849C3.43636 31.1784 2.6586 23.1727 5.99332 16.0692C7.56513 12.7211 9.96506 9.84121 12.9324 7.74201C16.079 5.51688 19.827 4.21766 23.7721 3.98507C24.2032 3.95989 24.6387 3.94656 25.0669 3.94656C32.5052 3.94656 39.2428 7.8146 43.0916 14.2944C46.9211 20.7416 47.0707 28.5118 43.4915 35.0805Z" fill="url(#paint0_linear_614_7644)"/>
<path d="M29.2322 20.7356L29.1048 20.669C24.9316 18.4957 20.6369 16.3921 16.4829 14.3566C15.4918 13.8721 14.5007 13.3862 13.5096 12.8988C13.1274 12.7107 12.726 13.1151 12.9156 13.4958L20.7272 29.1339C20.7702 29.2199 20.8398 29.2895 20.9272 29.3324L36.5105 37.0996C36.8927 37.2907 37.2971 36.8848 37.106 36.5026L29.2322 20.7342V20.7356ZM22.7997 25.9636L19.3302 19.906C19.1065 19.5149 19.5406 19.0764 19.9346 19.2972L25.9908 22.7089C26.2456 22.8526 26.2945 23.1978 26.09 23.4067L23.5049 26.0525C23.299 26.2629 22.9479 26.2185 22.8012 25.9622L22.7997 25.9636Z" fill="url(#paint1_linear_614_7644)"/>
<defs>
<linearGradient id="paint0_linear_614_7644" x1="-4.99999" y1="-15.7143" x2="80.4427" y2="-5.77522" gradientUnits="userSpaceOnUse">
<stop stop-color="#5EE0B6"/>
<stop offset="1" stop-color="#0F2A20"/>
</linearGradient>
<linearGradient id="paint1_linear_614_7644" x1="10.4383" y1="5.21491" x2="51.9436" y2="10.0412" gradientUnits="userSpaceOnUse">
<stop stop-color="#5EE0B6"/>
<stop offset="1" stop-color="#0F2A20"/>
</linearGradient>
</defs>
</svg>
