<svg width="50" height="50" viewBox="0 0 50 50" fill="none" xmlns="http://www.w3.org/2000/svg">
<path d="M49.397 14.0424L35.9576 0.601417C35.5722 0.216013 35.0485 0 34.503 0H15.497C14.9515 0 14.4278 0.216013 14.0424 0.601417L0.602971 14.0424C0.217567 14.4278 0 14.95 0 15.4954V34.503C0 35.0485 0.217567 35.5706 0.602971 35.9561L14.0424 49.397C14.4278 49.7824 14.9515 49.9984 15.497 49.9984H34.503C35.0485 49.9984 35.5722 49.7824 35.9576 49.397L49.397 35.9561C49.7824 35.5706 50 35.0485 50 34.503V15.4954C50 14.95 49.7824 14.4278 49.397 14.0424ZM45.3378 32.5713C45.3378 33.1168 45.1203 33.6405 44.7349 34.0259L34.0259 44.7349C33.6405 45.1203 33.1184 45.3363 32.5729 45.3363H17.4271C16.8816 45.3363 16.3595 45.1203 15.9741 44.7349L5.26512 34.0259C4.87972 33.6405 4.66215 33.1168 4.66215 32.5713V17.4271C4.66215 16.8816 4.87972 16.3579 5.26512 15.9725L15.9741 5.26357C16.3595 4.87816 16.8816 4.66215 17.4271 4.66215H32.5729C33.1184 4.66215 33.6405 4.87816 34.0259 5.26357L44.7349 15.9725C45.1203 16.3579 45.3378 16.8816 45.3378 17.4271V32.5713Z" fill="url(#paint0_linear_614_7653)"/>
<path d="M28.6605 25L33.447 20.2135C34.4571 19.2034 34.4571 17.5639 33.447 16.5537C32.4369 15.5436 30.7973 15.5436 29.7872 16.5537L25.0007 21.3402L20.2143 16.5537C19.2041 15.5436 17.5646 15.5436 16.5545 16.5537C15.5443 17.5639 15.5443 19.2034 16.5545 20.2135L21.341 25L16.5545 29.7865C15.5443 30.7966 15.5443 32.4361 16.5545 33.4463C17.5646 34.4564 19.2041 34.4564 20.2143 33.4463L25.0007 28.6598L29.7872 33.4463C30.7973 34.4564 32.4369 34.4564 33.447 33.4463C34.4571 32.4361 34.4571 30.7966 33.447 29.7865L28.6605 25Z" fill="url(#paint1_linear_614_7653)"/>
<defs>
<linearGradient id="paint0_linear_614_7653" x1="-5.00004" y1="-15.7138" x2="80.4434" y2="-5.7742" gradientUnits="userSpaceOnUse">
<stop stop-color="#5EE0B6"/>
<stop offset="1" stop-color="#0F2A20"/>
</linearGradient>
<linearGradient id="paint1_linear_614_7653" x1="13.9561" y1="10.0109" x2="45.4125" y2="13.6701" gradientUnits="userSpaceOnUse">
<stop stop-color="#5EE0B6"/>
<stop offset="1" stop-color="#0F2A20"/>
</linearGradient>
</defs>
</svg>
