<svg width="210" height="19" viewBox="0 0 210 19" fill="none" xmlns="http://www.w3.org/2000/svg">
<path d="M-0.000344584 14.5822V2.71106H1.98887L7.44318 10.7642V2.71106H9.60886V14.5822H7.61964L2.16534 6.67345V14.5822H-0.000344584ZM11.9215 14.5822V2.39021H14.0551V7.29909H14.1514C14.237 7.14936 14.3706 6.96755 14.5524 6.75366C14.7343 6.52907 14.9856 6.33656 15.3064 6.17614C15.6273 6.00503 16.0337 5.91947 16.5256 5.91947C17.178 5.91947 17.7127 6.0692 18.1298 6.36865C18.5576 6.65741 18.8731 7.04242 19.0763 7.52368C19.2902 8.00494 19.3972 8.52363 19.3972 9.07976V14.5822H17.2636V9.36852C17.2636 8.90864 17.1352 8.51294 16.8785 8.1814C16.6219 7.84987 16.2369 7.6841 15.7235 7.6841C15.3278 7.6841 15.007 7.7857 14.761 7.9889C14.515 8.1814 14.3332 8.43273 14.2156 8.74288C14.1086 9.05302 14.0551 9.37921 14.0551 9.72144V14.5822H11.9215ZM22.7291 4.97299L24.7665 2.14958H26.483L28.5203 4.97299H26.7878L25.6328 3.28857L24.4617 4.97299H22.7291ZM25.0071 5.91947C25.5526 5.91947 26.0017 6.01038 26.3547 6.19219C26.7076 6.3633 26.9856 6.55581 27.1888 6.7697C27.392 6.9729 27.5311 7.13867 27.6059 7.267H27.7022V6.07989H29.8358V14.5822H27.7022V13.3951H27.6059C27.5311 13.5234 27.392 13.6945 27.1888 13.9084C26.9856 14.1223 26.7076 14.3148 26.3547 14.4859C26.0017 14.6571 25.5526 14.7426 25.0071 14.7426C24.3761 14.7426 23.8254 14.6196 23.3548 14.3736C22.8842 14.117 22.4885 13.7801 22.1677 13.363C21.8575 12.9352 21.6222 12.4593 21.4618 11.9352C21.3121 11.4112 21.2372 10.8765 21.2372 10.331C21.2372 9.78561 21.3121 9.25087 21.4618 8.72683C21.6222 8.20279 21.8575 7.73222 22.1677 7.31513C22.4885 6.88734 22.8842 6.55046 23.3548 6.30448C23.8254 6.04781 24.3761 5.91947 25.0071 5.91947ZM25.5686 7.66806C25.0873 7.66806 24.6809 7.80174 24.3494 8.06911C24.0286 8.32578 23.7879 8.65732 23.6275 9.06372C23.4671 9.47012 23.3869 9.89256 23.3869 10.331C23.3869 10.7695 23.4671 11.192 23.6275 11.5984C23.7879 12.0048 24.0286 12.3416 24.3494 12.609C24.6809 12.8657 25.0873 12.994 25.5686 12.994C26.0499 12.994 26.4509 12.8657 26.7717 12.609C27.0926 12.3416 27.3332 12.0048 27.4936 11.5984C27.6541 11.192 27.7343 10.7695 27.7343 10.331C27.7343 9.89256 27.6541 9.47012 27.4936 9.06372C27.3332 8.65732 27.0926 8.32578 26.7717 8.06911C26.4509 7.80174 26.0499 7.66806 25.5686 7.66806ZM25.6167 18.4323C25.2638 18.4323 24.975 18.3146 24.7504 18.0794C24.5366 17.8441 24.4296 17.566 24.4296 17.2452C24.4296 16.9029 24.5366 16.6142 24.7504 16.3789C24.975 16.1543 25.2638 16.042 25.6167 16.042C25.9589 16.042 26.2424 16.1543 26.4669 16.3789C26.7022 16.6142 26.8199 16.9029 26.8199 17.2452C26.8199 17.566 26.7022 17.8441 26.4669 18.0794C26.2424 18.3146 25.9589 18.4323 25.6167 18.4323ZM31.9391 14.5822V6.07989H34.0726V7.29909H34.1689C34.2545 7.14936 34.3881 6.96755 34.57 6.75366C34.7518 6.52907 35.0031 6.33656 35.3239 6.17614C35.6448 6.00503 36.0512 5.91947 36.5431 5.91947C37.1955 5.91947 37.7302 6.0692 38.1473 6.36865C38.5751 6.65741 38.8906 7.04242 39.0938 7.52368C39.3077 8.00494 39.4147 8.52363 39.4147 9.07976V14.5822H37.2811V9.36852C37.2811 8.90864 37.1527 8.51294 36.8961 8.1814C36.6394 7.84987 36.2544 7.6841 35.741 7.6841C35.3453 7.6841 35.0245 7.7857 34.7785 7.9889C34.5325 8.1814 34.3507 8.43273 34.2331 8.74288C34.1261 9.05302 34.0726 9.37921 34.0726 9.72144V14.5822H31.9391ZM50.0876 14.7426C49.5422 14.7426 49.093 14.6571 48.7401 14.4859C48.3872 14.3041 48.1091 14.1063 47.9059 13.8924C47.7134 13.6785 47.5797 13.5127 47.5049 13.3951H47.3926V14.5822H45.259V2.39021H47.3926V7.267H47.5049C47.5797 7.13867 47.7134 6.96755 47.9059 6.75366C48.1091 6.53976 48.3872 6.34726 48.7401 6.17614C49.093 6.00503 49.5422 5.91947 50.0876 5.91947C50.7293 5.91947 51.2855 6.04781 51.756 6.30448C52.2266 6.55046 52.617 6.88734 52.9271 7.31513C53.2372 7.73222 53.4672 8.20279 53.6169 8.72683C53.7773 9.25087 53.8575 9.78561 53.8575 10.331C53.8575 10.8765 53.7773 11.4112 53.6169 11.9352C53.4672 12.4593 53.2372 12.9352 52.9271 13.363C52.617 13.7801 52.2266 14.117 51.756 14.3736C51.2855 14.6196 50.7293 14.7426 50.0876 14.7426ZM49.5262 12.994C50.0181 12.994 50.4245 12.8657 50.7454 12.609C51.0662 12.3416 51.3068 12.0048 51.4673 11.5984C51.6277 11.192 51.7079 10.7695 51.7079 10.331C51.7079 9.89256 51.6277 9.47012 51.4673 9.06372C51.3068 8.65732 51.0662 8.32578 50.7454 8.06911C50.4245 7.80174 50.0181 7.66806 49.5262 7.66806C49.0449 7.66806 48.6439 7.80174 48.323 8.06911C48.0022 8.32578 47.7615 8.65732 47.6011 9.06372C47.4407 9.47012 47.3605 9.89256 47.3605 10.331C47.3605 10.7695 47.4407 11.192 47.6011 11.5984C47.7615 12.0048 48.0022 12.3416 48.323 12.609C48.6439 12.8657 49.0449 12.994 49.5262 12.994ZM60.7593 4.86069L59.139 4.84465L60.4545 1.97312H62.4918L60.7593 4.86069ZM59.3315 5.91947C59.8769 5.91947 60.3261 6.01038 60.6791 6.19219C61.032 6.3633 61.31 6.55581 61.5132 6.7697C61.7164 6.9729 61.8555 7.13867 61.9303 7.267H62.0266V6.07989H64.1602V14.5822H62.0266V13.3951H61.9303C61.8555 13.5234 61.7164 13.6945 61.5132 13.9084C61.31 14.1223 61.032 14.3148 60.6791 14.4859C60.3261 14.6571 59.8769 14.7426 59.3315 14.7426C58.7005 14.7426 58.1498 14.6196 57.6792 14.3736C57.2086 14.117 56.8129 13.7801 56.4921 13.363C56.1819 12.9352 55.9466 12.4593 55.7862 11.9352C55.6365 11.4112 55.5616 10.8765 55.5616 10.331C55.5616 9.78561 55.6365 9.25087 55.7862 8.72683C55.9466 8.20279 56.1819 7.73222 56.4921 7.31513C56.8129 6.88734 57.2086 6.55046 57.6792 6.30448C58.1498 6.04781 58.7005 5.91947 59.3315 5.91947ZM59.893 7.66806C59.4117 7.66806 59.0053 7.80174 58.6738 8.06911C58.353 8.32578 58.1123 8.65732 57.9519 9.06372C57.7915 9.47012 57.7113 9.89256 57.7113 10.331C57.7113 10.7695 57.7915 11.192 57.9519 11.5984C58.1123 12.0048 58.353 12.3416 58.6738 12.609C59.0053 12.8657 59.4117 12.994 59.893 12.994C60.3743 12.994 60.7753 12.8657 61.0961 12.609C61.417 12.3416 61.6576 12.0048 61.818 11.5984C61.9785 11.192 62.0587 10.7695 62.0587 10.331C62.0587 9.89256 61.9785 9.47012 61.818 9.06372C61.6576 8.65732 61.417 8.32578 61.0961 8.06911C60.7753 7.80174 60.3743 7.66806 59.893 7.66806ZM70.5299 14.7426C69.5994 14.7426 68.808 14.5341 68.1557 14.117C67.5033 13.6999 67.006 13.1598 66.6637 12.4967C66.3322 11.823 66.1664 11.1011 66.1664 10.331C66.1664 9.56102 66.3322 8.84448 66.6637 8.1814C67.006 7.50764 67.5033 6.96221 68.1557 6.54511C68.808 6.12802 69.5994 5.91947 70.5299 5.91947C71.471 5.91947 72.2624 6.12802 72.9041 6.54511C73.5565 6.96221 74.0485 7.50764 74.38 8.1814C74.7222 8.84448 74.8933 9.56102 74.8933 10.331C74.8933 11.1011 74.7222 11.823 74.38 12.4967C74.0485 13.1598 73.5565 13.6999 72.9041 14.117C72.2624 14.5341 71.471 14.7426 70.5299 14.7426ZM70.5299 12.9619C71.0112 12.9619 71.4122 12.839 71.733 12.593C72.0646 12.347 72.3159 12.0262 72.487 11.6304C72.6581 11.224 72.7437 10.7909 72.7437 10.331C72.7437 9.86047 72.6581 9.42734 72.487 9.03163C72.3159 8.63593 72.0646 8.31509 71.733 8.06911C71.4122 7.82313 71.0112 7.70014 70.5299 7.70014C70.0593 7.70014 69.6583 7.82313 69.3267 8.06911C68.9952 8.31509 68.7439 8.63593 68.5728 9.03163C68.4016 9.42734 68.3161 9.86047 68.3161 10.331C68.3161 10.7909 68.4016 11.224 68.5728 11.6304C68.7439 12.0262 68.9952 12.347 69.3267 12.593C69.6583 12.839 70.0593 12.9619 70.5299 12.9619ZM84.7241 17.9831C83.9648 17.9831 83.3338 17.8815 82.8312 17.6783C82.3392 17.4858 81.9488 17.2452 81.6601 16.9564C81.3713 16.6784 81.1574 16.3949 81.0184 16.1062C80.8794 15.8174 80.7885 15.5768 80.7457 15.3843C80.7029 15.1918 80.6815 15.0955 80.6815 15.0955H82.767C82.767 15.0955 82.7884 15.1544 82.8312 15.272C82.8739 15.3896 82.9595 15.5233 83.0878 15.6731C83.2269 15.8335 83.4247 15.9725 83.6814 16.0901C83.9381 16.2078 84.2803 16.2666 84.7081 16.2666C85.4567 16.2666 85.9968 16.0527 86.3283 15.6249C86.6599 15.1971 86.8256 14.6784 86.8256 14.0688V13.1224H86.7294C86.6117 13.3042 86.4406 13.502 86.216 13.7159C86.0021 13.9298 85.7187 14.1116 85.3658 14.2613C85.0236 14.4111 84.6065 14.4859 84.1145 14.4859C83.4835 14.4859 82.9328 14.3629 82.4622 14.117C81.9916 13.871 81.5959 13.5448 81.2751 13.1384C80.9542 12.732 80.7136 12.2775 80.5532 11.7748C80.4035 11.2615 80.3286 10.7374 80.3286 10.2027C80.3286 9.66797 80.4035 9.14927 80.5532 8.64662C80.7136 8.13328 80.9542 7.6734 81.2751 7.267C81.5959 6.84991 81.9916 6.52372 82.4622 6.28844C82.9328 6.04246 83.4835 5.91947 84.1145 5.91947C84.6065 5.91947 85.0236 5.99433 85.3658 6.14406C85.7187 6.29379 86.0021 6.4756 86.216 6.68949C86.4406 6.89269 86.6117 7.08519 86.7294 7.267H86.8256V6.07989H88.9592V14.0528C88.9592 14.7907 88.8042 15.4538 88.494 16.042C88.1839 16.6409 87.7133 17.1115 87.0823 17.4537C86.462 17.8066 85.6759 17.9831 84.7241 17.9831ZM84.676 12.7694C85.1573 12.7694 85.5583 12.6464 85.8791 12.4005C86.2 12.1438 86.4406 11.823 86.601 11.4379C86.7615 11.0422 86.8417 10.6305 86.8417 10.2027C86.8417 9.76422 86.7615 9.35247 86.601 8.96746C86.4406 8.57176 86.2 8.25092 85.8791 8.00494C85.5583 7.75896 85.1573 7.63597 84.676 7.63597C84.184 7.63597 83.7723 7.75896 83.4408 8.00494C83.1199 8.25092 82.8793 8.57176 82.7189 8.96746C82.5584 9.35247 82.4782 9.76422 82.4782 10.2027C82.4782 10.6305 82.5584 11.0422 82.7189 11.4379C82.8793 11.823 83.1199 12.1438 83.4408 12.4005C83.7723 12.6464 84.184 12.7694 84.676 12.7694ZM92.2366 4.76444C91.8623 4.76444 91.5521 4.64145 91.3061 4.39547C91.0708 4.14949 90.9532 3.85539 90.9532 3.51316C90.9532 3.17093 91.0708 2.87682 91.3061 2.63084C91.5521 2.38487 91.8623 2.26188 92.2366 2.26188C92.6109 2.26188 92.921 2.38487 93.167 2.63084C93.413 2.87682 93.536 3.17093 93.536 3.51316C93.536 3.85539 93.413 4.14949 93.167 4.39547C92.921 4.64145 92.6109 4.76444 92.2366 4.76444ZM91.1778 14.5822V6.07989H93.3114V14.5822H91.1778ZM100.645 4.86069L99.0249 4.84465L100.34 1.97312H102.378L100.645 4.86069ZM99.2174 5.91947C99.7628 5.91947 100.212 6.01038 100.565 6.19219C100.918 6.3633 101.196 6.55581 101.399 6.7697C101.602 6.9729 101.741 7.13867 101.816 7.267H101.912V6.07989H104.046V14.5822H101.912V13.3951H101.816C101.741 13.5234 101.602 13.6945 101.399 13.9084C101.196 14.1223 100.918 14.3148 100.565 14.4859C100.212 14.6571 99.7628 14.7426 99.2174 14.7426C98.5864 14.7426 98.0356 14.6196 97.565 14.3736C97.0945 14.117 96.6988 13.7801 96.3779 13.363C96.0678 12.9352 95.8325 12.4593 95.6721 11.9352C95.5224 11.4112 95.4475 10.8765 95.4475 10.331C95.4475 9.78561 95.5224 9.25087 95.6721 8.72683C95.8325 8.20279 96.0678 7.73222 96.3779 7.31513C96.6988 6.88734 97.0945 6.55046 97.565 6.30448C98.0356 6.04781 98.5864 5.91947 99.2174 5.91947ZM99.7789 7.66806C99.2976 7.66806 98.8912 7.80174 98.5597 8.06911C98.2388 8.32578 97.9982 8.65732 97.8378 9.06372C97.6773 9.47012 97.5971 9.89256 97.5971 10.331C97.5971 10.7695 97.6773 11.192 97.8378 11.5984C97.9982 12.0048 98.2388 12.3416 98.5597 12.609C98.8912 12.8657 99.2976 12.994 99.7789 12.994C100.26 12.994 100.661 12.8657 100.982 12.609C101.303 12.3416 101.543 12.0048 101.704 11.5984C101.864 11.192 101.945 10.7695 101.945 10.331C101.945 9.89256 101.864 9.47012 101.704 9.06372C101.543 8.65732 101.303 8.32578 100.982 8.06911C100.661 7.80174 100.26 7.66806 99.7789 7.66806ZM113.649 14.7426C113.072 14.7426 112.596 14.6571 112.221 14.4859C111.847 14.3148 111.553 14.0902 111.339 13.8122C111.136 13.5341 110.992 13.2293 110.906 12.8978C110.82 12.5662 110.778 12.24 110.778 11.9192V7.79639H109.318V6.07989H110.778V3.96234H112.911V6.07989H114.82V7.79639H112.911V11.8711C112.911 12.6304 113.339 13.0101 114.195 13.0101C114.398 13.0101 114.585 12.9994 114.756 12.978C114.938 12.9459 115.029 12.9299 115.029 12.9299V14.5982C115.029 14.5982 114.89 14.6196 114.612 14.6624C114.344 14.7159 114.024 14.7426 113.649 14.7426ZM116.931 14.5822V2.39021H119.065V7.29909H119.161C119.247 7.14936 119.38 6.96755 119.562 6.75366C119.744 6.52907 119.995 6.33656 120.316 6.17614C120.637 6.00503 121.043 5.91947 121.535 5.91947C122.188 5.91947 122.723 6.0692 123.14 6.36865C123.567 6.65741 123.883 7.04242 124.086 7.52368C124.3 8.00494 124.407 8.52363 124.407 9.07976V14.5822H122.273V9.36852C122.273 8.90864 122.145 8.51294 121.888 8.1814C121.632 7.84987 121.247 7.6841 120.733 7.6841C120.338 7.6841 120.017 7.7857 119.771 7.9889C119.525 8.1814 119.343 8.43273 119.225 8.74288C119.118 9.05302 119.065 9.37921 119.065 9.72144V14.5822H116.931ZM130.434 14.7426C129.707 14.7426 129.076 14.6196 128.541 14.3736C128.017 14.117 127.579 13.7801 127.226 13.363C126.883 12.9352 126.627 12.4593 126.456 11.9352C126.284 11.4112 126.199 10.8765 126.199 10.331C126.199 9.78561 126.279 9.25622 126.44 8.74288C126.611 8.21883 126.862 7.74292 127.194 7.31513C127.536 6.88734 127.969 6.55046 128.493 6.30448C129.017 6.04781 129.637 5.91947 130.354 5.91947C131.124 5.91947 131.803 6.09059 132.391 6.43282C132.979 6.77505 133.439 7.2777 133.771 7.94077C134.102 8.59315 134.268 9.40595 134.268 10.3792V10.9246H128.349C128.381 11.5021 128.578 12.0048 128.942 12.4326C129.306 12.8496 129.803 13.0582 130.434 13.0582C130.798 13.0582 131.097 12.9994 131.332 12.8817C131.568 12.7641 131.749 12.6304 131.878 12.4807C132.006 12.3203 132.097 12.1866 132.151 12.0796C132.204 11.962 132.231 11.9032 132.231 11.9032H134.204C134.204 11.9032 134.177 11.9994 134.124 12.1919C134.07 12.3737 133.969 12.609 133.819 12.8978C133.68 13.1758 133.471 13.4592 133.193 13.748C132.915 14.0261 132.552 14.2613 132.102 14.4539C131.653 14.6464 131.097 14.7426 130.434 14.7426ZM128.349 9.52894H132.215C132.183 8.86586 131.985 8.37391 131.621 8.05307C131.257 7.73223 130.83 7.5718 130.338 7.5718C129.792 7.5718 129.338 7.74827 128.974 8.10119C128.611 8.44342 128.402 8.91934 128.349 9.52894ZM140.291 14.7426C139.361 14.7426 138.569 14.5341 137.917 14.117C137.264 13.6999 136.767 13.1598 136.425 12.4967C136.093 11.823 135.928 11.1011 135.928 10.331C135.928 9.56102 136.093 8.84448 136.425 8.1814C136.767 7.50764 137.264 6.96221 137.917 6.54511C138.569 6.12802 139.361 5.91947 140.291 5.91947C141.232 5.91947 142.024 6.12802 142.665 6.54511C143.318 6.96221 143.81 7.50764 144.141 8.1814C144.483 8.84448 144.654 9.56102 144.654 10.331C144.654 11.1011 144.483 11.823 144.141 12.4967C143.81 13.1598 143.318 13.6999 142.665 14.117C142.024 14.5341 141.232 14.7426 140.291 14.7426ZM140.291 12.9619C140.772 12.9619 141.173 12.839 141.494 12.593C141.826 12.347 142.077 12.0262 142.248 11.6304C142.419 11.224 142.505 10.7909 142.505 10.331C142.505 9.86047 142.419 9.42734 142.248 9.03163C142.077 8.63593 141.826 8.31509 141.494 8.06911C141.173 7.82313 140.772 7.70014 140.291 7.70014C139.82 7.70014 139.419 7.82313 139.088 8.06911C138.756 8.31509 138.505 8.63593 138.334 9.03163C138.163 9.42734 138.077 9.86047 138.077 10.331C138.077 10.7909 138.163 11.224 138.334 11.6304C138.505 12.0262 138.756 12.347 139.088 12.593C139.419 12.839 139.82 12.9619 140.291 12.9619ZM150.796 17.7104C150.517 17.7104 150.288 17.6997 150.106 17.6783C149.935 17.6569 149.849 17.6462 149.849 17.6462V15.8976C149.849 15.8976 149.929 15.903 150.09 15.9137C150.25 15.9351 150.437 15.9458 150.651 15.9458C151.197 15.9458 151.646 15.8549 151.999 15.6731C152.362 15.5019 152.667 15.1757 152.913 14.6945L149.721 6.07989H151.886L154.02 12.1438L156.122 6.07989H158.287L155.175 14.3736C154.747 15.5073 154.196 16.3468 153.523 16.8922C152.849 17.4377 151.94 17.7104 150.796 17.7104ZM160.35 4.97299L162.387 2.14958H164.104L166.141 4.97299H164.409L163.254 3.28857L162.083 4.97299H160.35ZM163.318 14.7426C162.591 14.7426 161.96 14.6196 161.425 14.3736C160.89 14.117 160.446 13.7801 160.093 13.363C159.751 12.9352 159.495 12.4593 159.323 11.9352C159.163 11.4112 159.083 10.8765 159.083 10.331C159.083 9.78561 159.163 9.25622 159.323 8.74288C159.495 8.21883 159.746 7.74292 160.077 7.31513C160.42 6.88734 160.853 6.55046 161.377 6.30448C161.901 6.04781 162.521 5.91947 163.238 5.91947C164.008 5.91947 164.687 6.09059 165.275 6.43282C165.863 6.77505 166.323 7.2777 166.655 7.94077C166.986 8.59315 167.152 9.40595 167.152 10.3792V10.9246H161.232C161.264 11.5021 161.457 12.0048 161.81 12.4326C162.174 12.8496 162.676 13.0582 163.318 13.0582C163.681 13.0582 163.981 12.9994 164.216 12.8817C164.452 12.7641 164.633 12.6304 164.762 12.4807C164.89 12.3203 164.976 12.1866 165.018 12.0796C165.072 11.962 165.099 11.9032 165.099 11.9032H167.072C167.072 11.9032 167.045 11.9994 166.992 12.1919C166.949 12.3737 166.852 12.609 166.703 12.8978C166.553 13.1758 166.339 13.4592 166.061 13.748C165.783 14.0261 165.419 14.2613 164.97 14.4539C164.532 14.6464 163.981 14.7426 163.318 14.7426ZM161.232 9.52894H165.099C165.066 8.86586 164.869 8.37391 164.505 8.05307C164.141 7.73223 163.714 7.5718 163.222 7.5718C162.676 7.5718 162.222 7.74827 161.858 8.10119C161.494 8.44342 161.286 8.91934 161.232 9.52894ZM171.744 14.7426C170.856 14.7426 170.182 14.4699 169.722 13.9245C169.273 13.379 169.049 12.6785 169.049 11.823V6.07989H171.166V11.47C171.166 11.9299 171.289 12.2989 171.535 12.5769C171.781 12.8443 172.129 12.978 172.578 12.978C172.974 12.978 173.294 12.8764 173.54 12.6732C173.786 12.47 173.963 12.208 174.07 11.8871C174.187 11.5663 174.246 11.2347 174.246 10.8925V6.07989H176.38V14.5822H174.246V13.363H174.15C174.043 13.5555 173.888 13.7587 173.685 13.9726C173.492 14.1865 173.236 14.3683 172.915 14.518C172.605 14.6677 172.214 14.7426 171.744 14.7426ZM186.286 14.7426C185.559 14.7426 184.923 14.6196 184.377 14.3736C183.832 14.117 183.377 13.7801 183.014 13.363C182.65 12.9352 182.377 12.4593 182.196 11.9352C182.024 11.4112 181.939 10.8765 181.939 10.331C181.939 9.78561 182.024 9.25087 182.196 8.72683C182.377 8.20279 182.645 7.73222 182.998 7.31513C183.361 6.88734 183.816 6.55046 184.361 6.30448C184.907 6.04781 185.548 5.91947 186.286 5.91947C187.013 5.91947 187.618 6.02642 188.099 6.24031C188.58 6.45421 188.96 6.72157 189.238 7.04242C189.527 7.36326 189.741 7.6841 189.88 8.00494C190.019 8.31509 190.11 8.57711 190.152 8.791C190.195 9.0049 190.217 9.11184 190.217 9.11184H188.211C188.211 9.11184 188.19 9.04233 188.147 8.9033C188.104 8.75357 188.019 8.58245 187.89 8.38995C187.762 8.19745 187.57 8.02633 187.313 7.8766C187.067 7.72688 186.735 7.65201 186.318 7.65201C185.826 7.65201 185.409 7.78035 185.067 8.03702C184.736 8.283 184.484 8.60919 184.313 9.01559C184.142 9.42199 184.056 9.86047 184.056 10.331C184.056 10.8016 184.142 11.2401 184.313 11.6465C184.484 12.0529 184.736 12.3844 185.067 12.6411C185.409 12.8871 185.826 13.0101 186.318 13.0101C186.735 13.0101 187.067 12.9352 187.313 12.7855C187.57 12.6358 187.762 12.4646 187.89 12.2721C188.019 12.0796 188.104 11.9139 188.147 11.7748C188.19 11.6251 188.211 11.5502 188.211 11.5502H190.217C190.217 11.5502 190.195 11.6572 190.152 11.8711C190.11 12.085 190.019 12.3523 189.88 12.6732C189.741 12.9833 189.527 13.2988 189.238 13.6197C188.96 13.9405 188.58 14.2079 188.099 14.4218C187.618 14.6357 187.013 14.7426 186.286 14.7426ZM198.657 2.90356L196.94 -5.54586e-05H198.961L200.293 2.88752L198.657 2.90356ZM193.427 4.97299L195.464 2.53459H197.181L199.218 4.97299H197.485L196.33 3.56129L195.159 4.97299H193.427ZM195.705 5.91947C196.25 5.91947 196.699 6.01038 197.052 6.19219C197.405 6.3633 197.683 6.55581 197.887 6.7697C198.09 6.9729 198.229 7.13867 198.304 7.267H198.4V6.07989H200.533V14.5822H198.4V13.3951H198.304C198.229 13.5234 198.09 13.6945 197.887 13.9084C197.683 14.1223 197.405 14.3148 197.052 14.4859C196.699 14.6571 196.25 14.7426 195.705 14.7426C195.074 14.7426 194.523 14.6196 194.052 14.3736C193.582 14.117 193.186 13.7801 192.865 13.363C192.555 12.9352 192.32 12.4593 192.16 11.9352C192.01 11.4112 191.935 10.8765 191.935 10.331C191.935 9.78561 192.01 9.25087 192.16 8.72683C192.32 8.20279 192.555 7.73222 192.865 7.31513C193.186 6.88734 193.582 6.55046 194.052 6.30448C194.523 6.04781 195.074 5.91947 195.705 5.91947ZM196.266 7.66806C195.785 7.66806 195.379 7.80174 195.047 8.06911C194.726 8.32578 194.486 8.65732 194.325 9.06372C194.165 9.47012 194.085 9.89256 194.085 10.331C194.085 10.7695 194.165 11.192 194.325 11.5984C194.486 12.0048 194.726 12.3416 195.047 12.609C195.379 12.8657 195.785 12.994 196.266 12.994C196.748 12.994 197.149 12.8657 197.469 12.609C197.79 12.3416 198.031 12.0048 198.191 11.5984C198.352 11.192 198.432 10.7695 198.432 10.331C198.432 9.89256 198.352 9.47012 198.191 9.06372C198.031 8.65732 197.79 8.32578 197.469 8.06911C197.149 7.80174 196.748 7.66806 196.266 7.66806ZM205.363 14.7426C204.475 14.7426 203.802 14.4699 203.342 13.9245C202.893 13.379 202.668 12.6785 202.668 11.823V6.07989H204.786V11.47C204.786 11.9299 204.909 12.2989 205.155 12.5769C205.401 12.8443 205.748 12.978 206.197 12.978C206.593 12.978 206.914 12.8764 207.16 12.6732C207.406 12.47 207.582 12.208 207.689 11.8871C207.807 11.5663 207.866 11.2347 207.866 10.8925V6.07989H209.999V14.5822H207.866V13.363H207.769C207.663 13.5555 207.507 13.7587 207.304 13.9726C207.112 14.1865 206.855 14.3683 206.534 14.518C206.224 14.6677 205.834 14.7426 205.363 14.7426Z" fill="#C7D7D1"/>
</svg>
