<svg width="39" height="39" viewBox="0 0 39 39" fill="none" xmlns="http://www.w3.org/2000/svg">
<path d="M38.8656 5.79047L38.8454 5.77022V5.60825C38.2279 2.60166 35.7376 0.344189 32.6804 0L6.01586 0.0202464C2.77644 0.516283 0.316501 3.17868 0.0229281 6.4586C0.0431745 8.70595 0.0431745 10.9432 0.0229281 13.1905C0.0229281 14.3142 0.0128049 17.665 0.0128049 17.665C-0.00744145 22.7974 -0.0276878 28.0919 0.15453 33.3458C0.761921 36.3828 3.2826 38.6402 6.39042 38.9541H32.6601C36.0716 38.6099 38.7239 35.8361 38.977 32.3942C38.9567 30.1064 38.9567 27.7983 38.977 25.5003C38.977 24.3564 38.9871 20.8943 38.9871 20.8943C39.0073 15.9339 39.0276 10.8014 38.8656 5.77022V5.79047ZM35.525 32.1209C35.3934 33.8823 34.1178 35.2591 32.3969 35.4919L6.27906 35.4312C4.73021 35.1072 3.59642 33.8216 3.46481 32.2019V6.69143C3.62679 5.10209 4.79095 3.78607 6.32968 3.48238L32.3767 3.44189H32.3868C34.047 3.63423 35.3731 5.00086 35.525 6.71168V32.1108V32.1209Z" fill="url(#paint0_linear_614_6129)"/>
<path d="M14.3571 9.39448L14.2154 9.33374V8.98955H14.2255V8.67574C14.2559 7.67354 14.2964 6.29678 13.5878 5.62865C13.3043 5.36545 12.9399 5.22373 12.5147 5.22373C12.454 5.22373 12.3831 5.22373 12.3123 5.22373C10.7735 5.36545 10.7027 6.70171 10.7735 8.23032C10.7735 8.34167 10.7735 8.45303 10.7837 8.56438C10.7837 8.7466 10.8039 8.91869 10.7837 9.07054V9.23251L10.6217 9.29325C8.42495 10.1335 7.06844 12.0771 7.06844 14.3751C7.06844 16.6731 8.42495 18.6471 10.6116 19.4974L10.7735 19.5582V32.3134C10.976 33.1334 11.6441 33.6901 12.4135 33.6901H12.6463C13.4157 33.5889 14.1952 32.9208 14.1952 31.8072V19.5076L14.6102 19.3253C14.9747 19.1532 15.3593 18.9609 15.7136 18.6977C17.3536 17.4323 18.123 15.3874 17.7282 13.3425C17.3637 11.5001 16.1085 10.012 14.3673 9.37424L14.3571 9.39448ZM12.8893 16.3187C12.7476 16.339 12.6058 16.3491 12.4742 16.3491C11.8466 16.3491 11.3202 16.1163 10.9659 15.681C10.5205 15.1141 10.4091 14.2739 10.6925 13.5956C10.9557 12.968 11.4518 12.5833 12.1705 12.4719C12.2313 12.4719 12.4439 12.4517 12.5046 12.4517C13.689 12.4517 14.2458 13.3425 14.3673 14.1119C14.5191 15.0736 14.0534 16.1365 12.8893 16.3187Z" fill="url(#paint1_linear_614_6129)"/>
<path d="M28.4692 19.4774H28.2161V6.70197L28.1756 6.50963C27.882 5.56817 27.1329 5.23411 26.5356 5.23411C26.4546 5.23411 26.3635 5.23411 26.2825 5.25435C25.3816 5.39608 24.7742 6.14519 24.7742 7.11702V19.4369L24.6122 19.4977C24.6122 19.4977 24.4907 19.5382 24.4199 19.5787C24.1263 19.7103 23.8327 19.852 23.529 20.0545C21.7676 21.2389 20.8768 23.304 21.2209 25.4198C21.5348 27.3533 22.8103 28.892 24.6122 29.5601L24.7742 29.6209V30.4105C24.7033 31.9998 24.7742 33.5588 26.3635 33.7005H26.5255C27.2544 33.7005 28.0845 33.2045 28.2059 32.3744C28.2363 32.1314 28.2363 31.6759 28.2059 30.947V30.6028C28.2059 30.3396 28.1958 30.0663 28.2059 29.8638V29.7019L28.3679 29.6411C30.5748 28.8009 31.9414 26.837 31.9212 24.5087C31.9212 22.2107 30.5748 20.2772 28.4793 19.4977L28.4692 19.4774ZM28.3072 25.359C28.044 25.9968 27.5479 26.3916 26.8596 26.4827C26.7381 26.5029 26.6166 26.5131 26.5053 26.5131C25.3208 26.5131 24.7539 25.6121 24.6325 24.8326C24.4806 23.8709 24.9463 22.7978 26.1611 22.6156C26.2927 22.5954 26.4141 22.5853 26.5356 22.5853C27.1734 22.5853 27.6897 22.8181 28.0339 23.2635C28.4793 23.8304 28.5906 24.6706 28.3173 25.3691L28.3072 25.359Z" fill="url(#paint2_linear_614_6129)"/>
<defs>
<linearGradient id="paint0_linear_614_6129" x1="-3.90009" y1="-12.2427" x2="62.7448" y2="-4.48091" gradientUnits="userSpaceOnUse">
<stop stop-color="#5EE0B6"/>
<stop offset="1" stop-color="#0F2A20"/>
</linearGradient>
<linearGradient id="paint1_linear_614_6129" x1="5.99227" y1="-3.72287" x2="24.5954" y2="-2.90477" gradientUnits="userSpaceOnUse">
<stop stop-color="#5EE0B6"/>
<stop offset="1" stop-color="#0F2A20"/>
</linearGradient>
<linearGradient id="paint2_linear_614_6129" x1="20.0706" y1="-3.71248" x2="38.694" y2="-2.8926" gradientUnits="userSpaceOnUse">
<stop stop-color="#5EE0B6"/>
<stop offset="1" stop-color="#0F2A20"/>
</linearGradient>
</defs>
</svg>
