<svg width="61" height="36" viewBox="0 0 61 36" fill="none" xmlns="http://www.w3.org/2000/svg">
<path d="M0 18.0917V17.8507C1.06413 16.7163 1.96763 15.4414 3.02172 14.2869C11.7054 4.84027 24.1336 -2.67889 37.4051 0.915048C46.6309 3.41474 55.0234 10.5725 60.7456 18.0114C53.096 27.719 40.9388 37.1757 27.8279 35.8807C18.4917 34.9571 9.20571 28.3716 3.03176 21.6455C1.97767 20.501 1.07417 19.216 0.0100389 18.0816L0 18.0917ZM29.2836 4.47887C21.7945 4.90051 14.5464 9.56862 9.19567 14.5279C8.764 14.9294 6.05348 17.5797 5.98321 17.8507C5.95309 17.9511 5.95309 18.0013 5.98321 18.0917C6.06352 18.3627 8.764 21.013 9.19567 21.4146C14.9379 26.7252 23.1398 31.8852 31.2713 31.4937C40.3766 31.062 48.7893 24.5768 54.7424 18.172C54.913 17.8909 54.6922 17.7102 54.5315 17.4893C53.608 16.2847 51.4596 14.3873 50.2549 13.3433C44.6432 8.45429 36.9835 4.03716 29.2936 4.47887H29.2836Z" fill="url(#paint0_linear_614_6123)"/>
<path d="M29.2835 5.66331C39.4028 4.84011 46.1891 15.7725 40.8685 24.4863C36.4413 31.7344 26.1414 32.2665 20.7705 25.7412C14.5363 18.1518 19.5658 6.46642 29.2835 5.67335V5.66331ZM29.5144 10.1708C19.5056 11.1948 20.7605 26.5845 31.0203 25.7914C41.2801 24.9983 40.0754 9.08659 29.5144 10.1708Z" fill="url(#paint1_linear_614_6123)"/>
<defs>
<linearGradient id="paint0_linear_614_6123" x1="-6.07462" y1="-11.3143" x2="95.2333" y2="8.57098" gradientUnits="userSpaceOnUse">
<stop stop-color="#5EE0B6"/>
<stop offset="1" stop-color="#0F2A20"/>
</linearGradient>
<linearGradient id="paint1_linear_614_6123" x1="15.5525" y1="-2.13745" x2="57.7699" y2="2.7784" gradientUnits="userSpaceOnUse">
<stop stop-color="#5EE0B6"/>
<stop offset="1" stop-color="#0F2A20"/>
</linearGradient>
</defs>
</svg>
