<svg width="99" height="113" viewBox="0 0 99 113" fill="none" xmlns="http://www.w3.org/2000/svg">
<mask id="mask0_614_6241" style="mask-type:alpha" maskUnits="userSpaceOnUse" x="0" y="-8" width="141" height="141">
<path d="M0 -7.83955H140.963V132.382H8.01267C3.5874 132.382 0 128.795 0 124.37V-7.83955Z" fill="#D9D9D9"/>
</mask>
<g mask="url(#mask0_614_6241)">
<path d="M89.7114 36.2024C87.3854 37.0612 84.9878 37.7053 82.6976 38.5642C80.7295 39.2799 78.6897 40.1745 76.6858 40.9259C74.7892 41.6058 72.8926 42.25 70.996 42.9299C69.3499 43.5382 67.6323 44.0034 65.9862 44.6118C64.519 45.1485 63.0876 45.7569 61.6204 46.2936C60.4038 46.723 59.1871 47.1882 57.9346 47.6534C56.6106 48.1186 55.2508 48.5123 53.9267 49.0133C52.0301 49.6932 50.1336 50.3373 48.237 51.0172C46.233 51.7329 44.2291 52.6633 42.2251 53.379C40.9011 53.8442 39.5413 54.2736 38.2173 54.7388C36.6427 55.2756 35.104 55.8839 33.5295 56.4207C31.9549 56.9574 30.452 57.6016 28.8417 58.1025C25.7642 59.0687 25.6568 59.7128 22.1499 59.1045C19.9671 58.7109 19.0367 58.0668 17.1401 57.4226C15.2077 56.7785 13.3469 56.0628 11.4503 55.4187C9.87578 54.8819 8.30125 54.2736 6.76251 53.7368C5.54583 53.3074 4.29336 52.8422 3.07669 52.377C1.86001 51.9476 0.607541 51.4824 -0.609143 51.0172C-2.14788 50.4804 -3.75819 49.8721 -5.29693 49.3353C-6.51362 48.9059 -7.80186 48.4049 -8.98276 47.9755C-10.3068 47.5103 -11.6666 47.1167 -12.9906 46.6157C-14.2073 46.1863 -15.4598 45.7211 -16.6765 45.2559C-18.251 44.6833 -19.7897 44.1465 -21.3643 43.574C-22.5809 43.1446 -23.8334 42.6794 -25.0501 42.2142C-27.1614 41.4627 -29.3442 40.6039 -31.4198 39.8524C-33.6384 39.0651 -35.8928 38.3137 -38.1115 37.4906C-40.3301 36.6676 -42.5846 35.9877 -44.8032 35.1288C-47.5586 34.0553 -51.0656 33.8764 -51.1729 29.9043C-51.316 25.7175 -47.6302 25.467 -44.8032 24.3935C-42.5846 23.5346 -40.3301 22.8547 -38.1115 22.0317C-35.8928 21.2086 -33.6384 20.4929 -31.4198 19.6699C-29.3442 18.9184 -27.1614 18.0954 -25.0501 17.3081C-23.8334 16.8787 -22.5809 16.4135 -21.3643 15.9483C-19.7897 15.3757 -18.251 14.839 -16.6765 14.2664C-15.4598 13.837 -14.2073 13.3718 -12.9906 12.9066C-11.6666 12.4414 -10.3068 12.0478 -8.98276 11.5468C-7.80187 11.1174 -6.51362 10.6522 -5.29694 10.187C-3.75819 9.65022 -2.14789 9.04188 -0.609147 8.50511C0.607537 8.0757 1.86001 7.6105 3.07668 7.1453C4.29336 6.71588 5.54583 6.25068 6.7625 5.78548C8.30125 5.24871 9.87577 4.64038 11.4503 4.10361C13.3469 3.4237 15.2077 2.7438 17.1401 2.09967C18.8577 1.52712 20.2175 0.453582 22.1499 0.417798C24.4401 -0.727309 26.7661 0.775645 28.8417 1.41977C30.452 1.92075 31.9549 2.56487 33.5295 3.10164C35.104 3.63841 36.6427 4.24675 38.2172 4.78352C39.5413 5.24872 40.9011 5.64235 42.2251 6.14333C44.2649 6.85902 46.233 7.78942 48.237 8.50512C50.1335 9.18502 52.0301 9.82914 53.9267 10.5091C55.2508 10.9743 56.6106 11.3679 57.9346 11.8689C59.1513 12.2983 60.4038 12.7635 61.6204 13.2287C63.0876 13.7654 64.519 14.3738 65.9862 14.9106C67.6323 15.5189 69.3499 15.9841 70.996 16.5924C72.8926 17.2723 74.7892 17.9165 76.6858 18.5964C78.6897 19.3121 80.7652 20.2425 82.6976 20.9581C84.9878 21.7812 87.4212 22.4611 89.7114 23.3199C92.9678 24.6797 98.6218 25.3239 98.7649 29.6896C98.9081 34.3058 93.0752 34.9857 89.7114 36.2024Z" fill="url(#paint0_linear_614_6241)"/>
<path d="M-43.9086 77.8196C-41.6541 76.9966 -39.4713 76.2451 -37.2168 75.4578C-35.1771 74.7421 -33.0658 73.597 -30.8472 73.0961C-28.056 73.597 -25.4795 74.8495 -22.7956 75.7799C-20.6485 76.5314 -18.573 77.3902 -16.4259 78.1417C-15.2093 78.5711 -13.9568 79.0363 -12.7401 79.5015C-11.4161 79.9667 -10.0563 80.3603 -8.73224 80.8613C-7.26507 81.3981 -5.83368 82.0422 -4.36651 82.5432C-3.04247 83.0084 -1.68266 83.402 -0.358629 83.903C0.858055 84.3324 2.11052 84.7976 3.3272 85.2628C4.83016 85.7996 6.29733 86.4437 7.69293 86.9447C9.08853 87.4457 10.6273 87.8035 12.0587 88.3045C13.8479 88.9128 15.6729 89.7717 17.4264 90.3084C19.5019 90.9526 21.2553 91.5251 23.4382 91.6683C24.8696 91.7398 25.7642 91.6683 27.124 91.3462C28.3049 91.0599 29.9152 90.4158 31.1319 89.9864C33.0285 89.3781 34.9251 88.6266 36.8217 87.9824C38.3604 87.4457 39.9349 86.8373 41.5095 86.3006C43.0482 85.7638 44.6585 85.1913 46.1973 84.6187C47.4139 84.1893 48.6664 83.7241 49.8831 83.2589C51.4218 82.7221 52.9963 82.1496 54.5709 81.577C55.8949 81.1118 57.2547 80.7182 58.5788 80.2172C59.9744 79.7162 61.4773 79.0721 62.9445 78.5353C64.8411 77.8554 66.7377 77.1755 68.6343 76.5314C70.5666 75.8515 72.3916 75.1358 74.324 74.5275C75.326 74.2054 76.7216 73.2034 77.8309 73.1676C79.3697 73.1676 80.6937 74.098 82.0177 74.5275C84.63 75.3863 87.1707 76.2809 89.7114 77.2113C92.9678 78.3564 98.6218 79.0363 98.765 83.3662C98.9081 87.9109 93.0394 88.6624 89.7114 89.879C87.1707 90.8452 84.5584 91.6325 82.0177 92.5629C79.5486 93.4575 77.1152 94.3521 74.6461 95.2467C73 95.8551 71.2823 96.3203 69.6362 96.9286C67.7754 97.6085 65.8073 98.2526 63.9465 98.9325C62.3362 99.5051 60.6185 100.328 58.9366 100.936C57.5052 101.437 55.9307 101.795 54.5709 102.296C53.39 102.726 52.1017 103.191 50.8851 103.656C49.4537 104.157 48.0223 104.801 46.5193 105.338C44.9448 105.875 43.4061 106.447 41.8315 107.02C40.257 107.557 38.7183 108.165 37.1437 108.702C35.3545 109.346 33.601 110.097 31.776 110.706C30.3089 111.207 28.9133 111.6 27.4103 112.065C24.7622 112.853 25.299 113.318 22.0426 112.745C19.8597 112.352 18.9293 111.708 17.0327 111.064C15.1004 110.419 13.2396 109.704 11.343 109.06C9.76844 108.523 8.22971 107.914 6.65518 107.378C5.4385 106.948 4.18604 106.483 2.96935 106.018C1.75268 105.588 0.500214 105.123 -0.716462 104.658C-2.29099 104.086 -3.82974 103.549 -5.40427 102.976C-6.62094 102.547 -7.8734 102.082 -9.09008 101.616C-10.6288 101.08 -12.2391 100.507 -13.7779 99.9345C-14.7798 99.5766 -15.7818 99.2904 -16.7838 98.9325C-18.8951 98.1811 -21.0422 97.358 -23.1535 96.5707C-25.9447 95.5688 -28.7359 94.5668 -31.5271 93.5648C-33.3879 92.8849 -35.3202 92.2408 -37.2168 91.5609C-39.3281 90.7736 -41.511 89.9864 -43.5865 89.1991C-46.5209 88.0898 -51.1729 87.9467 -51.316 83.6525C-51.4591 79.251 -46.9861 78.9289 -43.9444 77.7838L-43.9086 77.8196Z" fill="url(#paint1_linear_614_6241)"/>
<path d="M-44.5547 51.3027C-43.3738 50.8375 -42.0856 50.4081 -40.8689 49.9429C-38.9007 49.2272 -37.2189 48.583 -35.1791 47.9389C-34.034 47.5453 -32.9605 46.937 -31.4933 46.5791C-31.3502 46.5791 -30.885 45.9708 -30.384 46.257C-29.06 46.6149 -27.7717 47.1517 -26.4835 47.5811C-25.3383 47.9747 -24.229 48.5115 -23.1197 48.9409C-21.08 49.6566 -19.0402 50.587 -17.1079 51.3027C-15.1397 52.0184 -13.0642 52.5909 -11.096 53.3066C-9.87936 53.736 -8.62689 54.2012 -7.41022 54.6664C-5.51362 55.3463 -3.61703 56.0262 -1.72045 56.6704C0.748698 57.5292 3.18205 58.5312 5.6512 59.3542C7.9772 60.1415 10.339 60.9645 12.665 61.716C14.6332 62.3243 16.7802 63.2189 18.6768 63.7199C19.8577 64.042 21.9332 64.6503 23.0426 64.7219C24.4382 64.7935 26.3347 64.364 27.7304 64.042C28.947 63.7557 30.7721 63.1116 32.0961 62.6822C34.0643 62.0738 36.1398 61.3224 38.1079 60.6782C39.754 60.1415 41.4717 59.5689 43.1178 58.9964C45.1575 58.2807 47.3762 57.3861 49.4874 56.6346C51.384 55.9547 53.2806 55.3106 55.1772 54.6306C56.716 54.0581 58.3263 53.5213 59.865 52.9488C61.0817 52.5194 62.3342 52.0542 63.5508 51.589C65.6263 50.8375 67.8092 50.0144 69.9205 49.2272C71.674 48.6188 73.4274 47.7958 75.2882 47.2232C77.3279 46.5791 76.6122 45.9708 79.2961 46.5433C80.978 46.9012 82.4094 47.6884 83.9839 48.2252C85.5584 48.762 87.0972 49.3345 88.6717 49.9071C90.1389 50.4439 91.5702 51.0164 93.0374 51.589C95.5781 52.5551 98.6198 52.5551 98.763 56.4557C98.9061 60.4993 95.6497 60.6067 93.0374 61.6444C91.5702 62.217 90.1389 62.7895 88.6717 63.3263C87.1329 63.8989 85.5226 64.4356 83.9839 65.0082C82.4452 65.5807 80.8706 66.1175 79.2961 66.69C78.0794 67.1195 76.827 67.5847 75.6103 68.0499C73.7137 68.7298 71.8171 69.3739 69.9205 70.0538C67.9166 70.7695 65.8768 71.342 63.9087 72.0577C62.7278 72.4871 61.4395 72.9523 60.2229 73.4175C58.7557 73.9185 57.3243 74.5627 55.8571 75.0994C53.8532 75.8151 51.8135 76.4235 49.8453 77.1034C47.8771 77.7833 45.8374 78.7494 43.8335 79.4651C41.9369 80.145 40.0403 80.825 38.1437 81.4691C36.3545 82.1132 34.601 82.8647 32.776 83.473C31.0941 84.0456 29.448 84.6181 27.7661 85.1549C25.0107 86.0137 25.1896 86.3716 22.0764 85.8348C20.144 85.5127 19.643 85.0117 18.0685 84.475C16.1361 83.8309 14.2753 83.1152 12.3787 82.471C9.90958 81.6122 7.40465 80.646 5.00708 79.7872C2.78843 78.9999 0.53399 78.2485 -1.68466 77.4254C-3.58125 76.7455 -5.47784 76.1014 -7.37442 75.4215C-8.94895 74.8489 -10.5235 74.3122 -12.0622 73.7396C-13.8515 73.0955 -15.6765 72.344 -17.4299 71.7357C-19.3265 71.0558 -21.2231 70.4116 -23.1197 69.7317C-24.3364 69.3023 -25.5888 68.8371 -26.8055 68.3719C-28.3443 67.7994 -29.9546 67.2626 -31.4933 66.69C-32.71 66.2606 -33.9982 65.7596 -35.1791 65.3302C-37.0399 64.6503 -38.9723 64.0062 -40.8689 63.3263C-42.0856 62.8611 -43.3023 62.4675 -44.5547 61.9665C-47.3817 60.8929 -51.3896 60.7856 -51.2822 56.4556C-51.1391 52.3762 -47.3459 52.3404 -44.5547 51.2311L-44.5547 51.3027Z" fill="url(#paint2_linear_614_6241)"/>
</g>
<defs>
<linearGradient id="paint0_linear_614_6241" x1="-61.953" y1="76.8385" x2="141.645" y2="-30.3145" gradientUnits="userSpaceOnUse">
<stop offset="0.0572756" stop-color="#5EE0B6"/>
<stop offset="0.24178" stop-color="#2F8F5B" stop-opacity="0.7"/>
<stop offset="0.903846" stop-color="#0F2A20" stop-opacity="0"/>
</linearGradient>
<linearGradient id="paint1_linear_614_6241" x1="-62.1057" y1="124.766" x2="99.1604" y2="-1.57123" gradientUnits="userSpaceOnUse">
<stop offset="0.0572756" stop-color="#5EE0B6"/>
<stop offset="0.24178" stop-color="#2F8F5B" stop-opacity="0.7"/>
<stop offset="0.903846" stop-color="#0F2A20" stop-opacity="0"/>
</linearGradient>
<linearGradient id="paint2_linear_614_6241" x1="-62.0681" y1="97.8549" x2="99.2005" y2="-28.4425" gradientUnits="userSpaceOnUse">
<stop offset="0.0572756" stop-color="#5EE0B6"/>
<stop offset="0.24178" stop-color="#2F8F5B" stop-opacity="0.7"/>
<stop offset="0.903846" stop-color="#0F2A20" stop-opacity="0"/>
</linearGradient>
</defs>
</svg>
