<svg width="20" height="18" viewBox="0 0 20 18" fill="none" xmlns="http://www.w3.org/2000/svg">
<path d="M9.68774 0.0215269C10.3815 -0.0729925 10.9713 0.142302 11.3973 0.695998L19.7418 15.1061C20.3999 16.1843 19.736 17.6266 18.4734 17.7778H1.53574C0.497776 17.6716 -0.191282 16.6307 0.0473501 15.6301C2.80008 10.5791 5.76694 5.62793 8.6492 0.645821C8.89483 0.345343 9.29683 0.0746211 9.68774 0.0215269ZM1.77787 16.0262H18.2312L9.98297 1.80456L1.77787 16.0262Z" fill="#5EE0B6" fill-opacity="0.6"/>
<path d="M9.7733 5.84093C10.5452 5.71957 11.1362 6.22659 11.1882 6.99033L10.3416 12.4048C10.2109 12.7904 9.79605 12.7922 9.66477 12.4048L8.82227 6.99033C8.86544 6.4413 9.20035 5.93136 9.7733 5.84093Z" fill="#5EE0B6" fill-opacity="0.6"/>
<path d="M9.86413 13.5437C11.2172 13.3629 11.4902 15.3063 10.1541 15.4528C8.75908 15.6057 8.53503 13.7217 9.86413 13.5437Z" fill="#5EE0B6" fill-opacity="0.6"/>
</svg>
