<svg width="39" height="38" viewBox="0 0 39 38" fill="none" xmlns="http://www.w3.org/2000/svg">
<path d="M5.52621 0.0160631L20.3162 0C22.0621 0.358743 22.0568 2.74144 20.3268 3.1216C15.7777 3.33578 10.9563 2.83247 6.43924 3.11625C4.87481 3.21263 3.68414 3.99437 3.24098 5.54178C3.04342 14.4675 3.07546 23.4629 3.22496 32.3886C3.5026 33.5666 4.44233 34.4822 5.60096 34.7713C14.4856 34.932 23.429 34.932 32.3083 34.7713C33.7873 34.3751 34.6576 33.2186 34.7858 31.7033L34.8071 17.4874C35.3304 15.8222 37.6423 15.9721 37.9093 17.7016C37.6637 22.4295 38.2296 27.484 37.9093 32.1745C37.701 35.2318 35.1328 37.7751 32.1001 38H5.73444C2.72306 37.7055 0.293663 35.2746 0 32.2494V5.66493C0.331039 2.75215 2.62161 0.39087 5.52621 0.0160631Z" fill="url(#paint0_linear_614_6136)"/>
<path d="M24.3748 4.76532L33.1473 13.5626L19.7776 26.9753C17.9836 28.5388 16.7449 28.6244 14.4757 28.6137C13.3811 28.6084 11.5924 28.7636 10.5886 28.5227C9.21107 28.1854 9.48872 26.7932 9.446 25.7598C9.30718 22.74 8.95479 20.5286 11.0798 18.0977L24.3801 4.76532H24.3748Z" fill="url(#paint1_linear_614_6136)"/>
<path d="M30.5579 0.0162654C31.4175 -0.0479871 32.4106 0.203669 33.1421 0.664145C34.0658 1.24777 37.0932 4.30512 37.531 5.2582C38.663 7.73728 37.2854 9.70769 35.438 11.2497L26.6815 2.52211C27.728 1.25848 28.8226 0.14477 30.5579 0.0162654Z" fill="url(#paint2_linear_614_6136)"/>
<defs>
<linearGradient id="paint0_linear_614_6136" x1="-3.80106" y1="-11.9429" x2="61.1532" y2="-4.38495" gradientUnits="userSpaceOnUse">
<stop stop-color="#5EE0B6"/>
<stop offset="1" stop-color="#0F2A20"/>
</linearGradient>
<linearGradient id="paint1_linear_614_6136" x1="6.95408" y1="-2.74382" x2="47.6494" y2="1.9741" gradientUnits="userSpaceOnUse">
<stop stop-color="#5EE0B6"/>
<stop offset="1" stop-color="#0F2A20"/>
</linearGradient>
<linearGradient id="paint2_linear_614_6136" x1="25.5555" y1="-3.52729" x2="44.7964" y2="-1.28581" gradientUnits="userSpaceOnUse">
<stop stop-color="#5EE0B6"/>
<stop offset="1" stop-color="#0F2A20"/>
</linearGradient>
</defs>
</svg>
