<svg width="32" height="40" viewBox="0 0 32 40" fill="none" xmlns="http://www.w3.org/2000/svg">
<path d="M31.8143 12.6516L19.5327 0.298295L18.7086 0.0844246C14.2045 0.321542 9.39804 -0.233282 4.92922 0.123169C2.19298 0.341689 0.380587 1.88528 0.0061385 4.68264L0 35.1375C0.178016 37.3971 1.71111 39.201 3.88874 39.6954C11.3439 39.6195 19.3409 40.2921 26.7654 39.8458C29.6275 39.6737 31.5933 38.2169 31.9939 35.2475L32 13.394L31.8143 12.6516ZM20.3737 5.43584L26.8176 11.9449H20.3737V5.43584ZM29.0044 35.1344C29.0044 35.6551 28.0714 36.7539 27.4529 36.7059L4.65912 36.709C3.88874 36.6811 3.32553 36.0767 3.10608 35.3715C2.90351 25.1584 2.96336 14.8647 3.07539 4.6439C3.10455 4.20221 3.93631 3.22739 4.31997 3.22739H17.2661V13.3971C17.2661 13.9008 17.9659 14.967 18.4738 14.967H29.0044V35.1344Z" fill="url(#paint0_linear_614_6116)"/>
<path d="M16.3421 21.0112H8.08429C7.23844 21.0112 6.55273 21.7037 6.55273 22.5579V22.5595C6.55273 23.4137 7.23844 24.1062 8.08429 24.1062H16.3421C17.188 24.1062 17.8737 23.4137 17.8737 22.5595V22.5579C17.8737 21.7037 17.188 21.0112 16.3421 21.0112Z" fill="url(#paint1_linear_614_6116)"/>
<path d="M23.8311 27.4712H8.08429C7.23844 27.4712 6.55273 28.1637 6.55273 29.0179V29.0194C6.55273 29.8736 7.23844 30.5661 8.08429 30.5661H23.8311C24.6769 30.5661 25.3626 29.8736 25.3626 29.0194V29.0179C25.3626 28.1637 24.6769 27.4712 23.8311 27.4712Z" fill="url(#paint2_linear_614_6116)"/>
<defs>
<linearGradient id="paint0_linear_614_6116" x1="-3.20003" y1="-12.5714" x2="51.7479" y2="-7.45789" gradientUnits="userSpaceOnUse">
<stop stop-color="#5EE0B6"/>
<stop offset="1" stop-color="#0F2A20"/>
</linearGradient>
<linearGradient id="paint1_linear_614_6116" x1="5.42063" y1="20.0385" x2="22.0225" y2="27.1028" gradientUnits="userSpaceOnUse">
<stop stop-color="#5EE0B6"/>
<stop offset="1" stop-color="#0F2A20"/>
</linearGradient>
<linearGradient id="paint2_linear_614_6116" x1="4.67173" y1="26.4985" x2="26.3932" y2="41.8554" gradientUnits="userSpaceOnUse">
<stop stop-color="#5EE0B6"/>
<stop offset="1" stop-color="#0F2A20"/>
</linearGradient>
</defs>
</svg>
