<svg width="20" height="18" viewBox="0 0 20 18" fill="none" xmlns="http://www.w3.org/2000/svg">
<path d="M9.68774 0.0213795C10.3815 -0.0724928 10.9713 0.141327 11.3973 0.691233L19.7418 15.0027C20.3999 16.0735 19.736 17.506 18.4734 17.656H1.53574C0.497776 17.5506 -0.191282 16.5168 0.0473501 15.5231C2.80008 10.5067 5.76694 5.5894 8.6492 0.6414C8.89483 0.342979 9.29683 0.0741102 9.68774 0.0213795ZM1.77787 15.9165H18.2312L9.98297 1.7922L1.77787 15.9165Z" fill="#5EE0B6" fill-opacity="0.6"/>
<path d="M9.77427 5.80089C10.5462 5.68036 11.1372 6.18391 11.1891 6.94242L10.3426 12.3198C10.2119 12.7028 9.79702 12.7046 9.66574 12.3198L8.82324 6.94242C8.86642 6.39715 9.20132 5.8907 9.77427 5.80089Z" fill="#5EE0B6" fill-opacity="0.6"/>
<path d="M9.86316 13.451C11.2162 13.2713 11.4892 15.2023 10.1531 15.3478C8.7581 15.4997 8.53405 13.6278 9.86316 13.451Z" fill="#5EE0B6" fill-opacity="0.6"/>
</svg>
