<svg width="327" height="119" viewBox="0 0 327 119" fill="none" xmlns="http://www.w3.org/2000/svg">
<path d="M0.801366 14.6647V2.80473H2.21174L8.39813 11.8279V2.80473H9.96877V14.6647H8.5584L2.37201 5.65752V14.6647H0.801366ZM16.4664 18.0303C15.7613 18.0303 15.1736 17.9341 14.7035 17.7418C14.2334 17.5602 13.854 17.3251 13.5656 17.0366C13.2878 16.7588 13.0794 16.481 12.9405 16.2032C12.8016 15.9254 12.7108 15.6904 12.6681 15.4981C12.6253 15.3164 12.6039 15.2256 12.6039 15.2256H14.1265C14.1265 15.2256 14.1532 15.3004 14.2066 15.45C14.2601 15.5996 14.3616 15.7705 14.5112 15.9628C14.6714 16.1552 14.9065 16.3261 15.2163 16.4757C15.5262 16.6253 15.9429 16.7001 16.4664 16.7001C17.0861 16.7001 17.5723 16.5772 17.9249 16.3315C18.2775 16.0964 18.5286 15.7865 18.6782 15.4019C18.8384 15.0172 18.9186 14.6112 18.9186 14.1838V13.2062H18.8384C18.7316 13.3878 18.5606 13.5962 18.3256 13.8313C18.1012 14.0556 17.802 14.2533 17.4281 14.4243C17.0541 14.5845 16.5947 14.6647 16.0497 14.6647C15.4087 14.6647 14.8477 14.5418 14.3669 14.296C13.8861 14.0503 13.4854 13.7191 13.1649 13.3024C12.855 12.8857 12.62 12.4209 12.4597 11.908C12.2994 11.3952 12.2193 10.8716 12.2193 10.3374C12.2193 9.80315 12.2994 9.27961 12.4597 8.76674C12.62 8.25388 12.855 7.7891 13.1649 7.3724C13.4854 6.9557 13.8861 6.62448 14.3669 6.37873C14.8477 6.13299 15.4087 6.01011 16.0497 6.01011C16.5947 6.01011 17.0541 6.09559 17.4281 6.26654C17.802 6.42681 18.1012 6.61914 18.3256 6.84351C18.5606 7.06789 18.7316 7.27624 18.8384 7.46856H18.9186V6.17038H20.4411V14.1678C20.4411 15.3538 20.0939 16.2941 19.3994 16.9886C18.7156 17.6831 17.7379 18.0303 16.4664 18.0303ZM16.3382 13.3665C16.9045 13.3665 17.3746 13.2222 17.7486 12.9337C18.1332 12.6346 18.4164 12.2553 18.598 11.7958C18.7903 11.3364 18.8865 10.8502 18.8865 10.3374C18.8865 9.82452 18.7903 9.33837 18.598 8.87893C18.4164 8.40881 18.1332 8.02951 17.7486 7.74102C17.3746 7.45254 16.9045 7.30829 16.3382 7.30829C15.7719 7.30829 15.2965 7.45254 14.9118 7.74102C14.5272 8.02951 14.2387 8.40881 14.0464 8.87893C13.8647 9.33837 13.7739 9.82452 13.7739 10.3374C13.7739 10.8502 13.8647 11.3364 14.0464 11.7958C14.2387 12.2553 14.5272 12.6346 14.9118 12.9337C15.2965 13.2222 15.7719 13.3665 16.3382 13.3665ZM22.8384 14.6647V2.48419H24.361V7.40446H24.4571C24.5319 7.27624 24.6548 7.09994 24.8257 6.87557C25.0074 6.65119 25.2638 6.45352 25.595 6.28257C25.9262 6.10093 26.3429 6.01011 26.8451 6.01011C27.4648 6.01011 27.9937 6.15436 28.4318 6.44284C28.8699 6.72064 29.2011 7.09994 29.4255 7.58075C29.6605 8.06156 29.7781 8.60113 29.7781 9.19947V14.6647H28.2555V9.29563C28.2555 8.72935 28.0952 8.25923 27.7747 7.88526C27.4648 7.5113 27.0107 7.32432 26.4124 7.32432C25.9316 7.32432 25.5416 7.44719 25.2424 7.69294C24.9433 7.928 24.7189 8.2432 24.5693 8.63853C24.4304 9.02318 24.361 9.43453 24.361 9.8726V14.6647H22.8384ZM33.0156 4.55166C32.7271 4.55166 32.4867 4.4555 32.2944 4.26318C32.1128 4.07085 32.0219 3.84113 32.0219 3.57402C32.0219 3.29622 32.1128 3.06116 32.2944 2.86883C32.4867 2.67651 32.7271 2.58035 33.0156 2.58035C33.2934 2.58035 33.5285 2.67651 33.7208 2.86883C33.9131 3.06116 34.0093 3.29622 34.0093 3.57402C34.0093 3.84113 33.9131 4.07085 33.7208 4.26318C33.5285 4.4555 33.2934 4.55166 33.0156 4.55166ZM32.2624 14.6647V6.17038H33.7849V14.6647H32.2624ZM37.546 4.96836L39.4852 2.29187H40.7834L42.7227 4.96836H41.3444L40.1263 3.25348L38.9243 4.96836H37.546ZM40.1904 14.8249C39.4959 14.8249 38.8922 14.7021 38.3794 14.4563C37.8772 14.1999 37.4605 13.858 37.1293 13.4306C36.8087 13.0032 36.5683 12.5331 36.4081 12.0202C36.2478 11.4967 36.1677 10.9624 36.1677 10.4175C36.1677 9.88329 36.2425 9.3544 36.392 8.83085C36.5523 8.30731 36.7927 7.83184 37.1133 7.40446C37.4445 6.97707 37.8558 6.64051 38.3473 6.39476C38.8495 6.13833 39.4425 6.01011 40.1263 6.01011C40.8529 6.01011 41.4939 6.17572 42.0495 6.50695C42.6051 6.83817 43.0432 7.32966 43.3638 7.98143C43.6843 8.63319 43.8446 9.45056 43.8446 10.4335V10.8823H37.7063C37.7383 11.3631 37.8505 11.8065 38.0428 12.2125C38.2458 12.6079 38.529 12.9284 38.8922 13.1742C39.2555 13.4092 39.6882 13.5267 40.1904 13.5267C40.6285 13.5267 40.9811 13.4573 41.2482 13.3184C41.526 13.1688 41.745 12.9979 41.9053 12.8055C42.0656 12.6132 42.1724 12.4476 42.2258 12.3087C42.29 12.1591 42.322 12.0843 42.322 12.0843H43.7484C43.7484 12.0843 43.7217 12.1805 43.6683 12.3728C43.6148 12.5544 43.5187 12.7788 43.3798 13.0459C43.2409 13.3131 43.0379 13.5855 42.7708 13.8633C42.5036 14.1304 42.1617 14.3601 41.745 14.5525C41.3283 14.7341 40.8101 14.8249 40.1904 14.8249ZM37.7223 9.69631H42.3541C42.3327 9.14071 42.2152 8.69195 42.0015 8.35004C41.7878 7.99745 41.5153 7.73568 41.1841 7.56473C40.8529 7.39377 40.5003 7.30829 40.1263 7.30829C39.4532 7.30829 38.9029 7.52733 38.4755 7.9654C38.0482 8.39278 37.7971 8.96975 37.7223 9.69631ZM46.0142 14.6647V6.17038H47.5368V7.40446H47.6329C47.7077 7.27624 47.8306 7.09994 48.0015 6.87557C48.1832 6.65119 48.4396 6.45352 48.7708 6.28257C49.1021 6.10093 49.5188 6.01011 50.0209 6.01011C50.6407 6.01011 51.1695 6.15436 51.6076 6.44284C52.0457 6.72064 52.3769 7.09994 52.6013 7.58075C52.8363 8.06156 52.9539 8.60113 52.9539 9.19947V14.6647H51.4313V9.29563C51.4313 8.72935 51.271 8.25923 50.9505 7.88526C50.6407 7.5113 50.1866 7.32432 49.5882 7.32432C49.1074 7.32432 48.7174 7.44719 48.4183 7.69294C48.1191 7.928 47.8947 8.2432 47.7451 8.63853C47.6062 9.02318 47.5368 9.43453 47.5368 9.8726V14.6647H46.0142ZM62.918 14.8249C62.2235 14.8249 61.6145 14.7021 61.0909 14.4563C60.5674 14.1999 60.1293 13.8633 59.7767 13.4466C59.4348 13.0192 59.173 12.5438 58.9914 12.0202C58.8204 11.4967 58.735 10.9624 58.735 10.4175C58.735 9.8726 58.8204 9.34371 58.9914 8.83085C59.1623 8.30731 59.4188 7.83184 59.7607 7.40446C60.1133 6.97707 60.5513 6.64051 61.0749 6.39476C61.5984 6.13833 62.2128 6.01011 62.918 6.01011C63.6018 6.01011 64.1681 6.11162 64.6168 6.31462C65.0656 6.51763 65.4235 6.77406 65.6906 7.08392C65.9684 7.38309 66.1715 7.6876 66.2997 7.99745C66.4386 8.29662 66.5294 8.54771 66.5721 8.75072C66.6149 8.95373 66.6362 9.05523 66.6362 9.05523H65.1618C65.1618 9.05523 65.135 8.96975 65.0816 8.7988C65.0282 8.61716 64.9267 8.41415 64.7771 8.18978C64.6275 7.9654 64.4032 7.76773 64.104 7.59678C63.8048 7.41514 63.4095 7.32432 62.918 7.32432C62.3303 7.32432 61.8335 7.47391 61.4275 7.77308C61.0322 8.06156 60.733 8.44086 60.53 8.91099C60.3377 9.38111 60.2415 9.88329 60.2415 10.4175C60.2415 10.9517 60.3377 11.4539 60.53 11.9241C60.733 12.3942 61.0322 12.7788 61.4275 13.078C61.8335 13.3665 62.3303 13.5107 62.918 13.5107C63.4095 13.5107 63.8048 13.4252 64.104 13.2543C64.4032 13.0726 64.6275 12.8696 64.7771 12.6453C64.9267 12.4209 65.0282 12.2232 65.0816 12.0523C65.135 11.8706 65.1618 11.7798 65.1618 11.7798H66.6362C66.6362 11.7798 66.6149 11.8813 66.5721 12.0843C66.5294 12.2873 66.4386 12.5438 66.2997 12.8536C66.1715 13.1528 65.9684 13.4573 65.6906 13.7671C65.4235 14.0663 65.0656 14.3174 64.6168 14.5204C64.1681 14.7234 63.6018 14.8249 62.918 14.8249ZM72.8592 4.88823L71.561 4.8722L72.9393 1.98735H74.51L72.8592 4.88823ZM71.7373 14.8249C70.8932 14.8249 70.2201 14.5632 69.7179 14.0396C69.2157 13.5161 68.9646 12.7895 68.9646 11.8599V6.17038H70.4872V11.7798C70.4872 12.3354 70.6368 12.7628 70.936 13.062C71.2458 13.3611 71.6518 13.5107 72.154 13.5107C72.6669 13.5107 73.0782 13.3772 73.3881 13.11C73.6979 12.8429 73.9223 12.501 74.0612 12.0843C74.2001 11.6676 74.2696 11.2402 74.2696 10.8022V6.17038H75.5677C75.9844 6.17038 76.1928 5.95135 76.1928 5.51328V4.55166H77.5391V5.51328C77.5391 6.00477 77.4108 6.4001 77.1544 6.69927C76.898 6.99844 76.508 7.14803 75.9844 7.14803H75.7921V14.6647H74.2696V13.4466H74.1734C74.1093 13.5748 73.9864 13.7511 73.8048 13.9755C73.6231 14.1892 73.3667 14.3869 73.0355 14.5685C72.7043 14.7394 72.2715 14.8249 71.7373 14.8249ZM81.4511 14.8249C80.607 14.8249 79.9339 14.5632 79.4317 14.0396C78.9296 13.5161 78.6785 12.7895 78.6785 11.8599V6.17038H80.201V11.7798C80.201 12.3354 80.3506 12.7628 80.6498 13.062C80.9596 13.3611 81.3657 13.5107 81.8678 13.5107C82.3807 13.5107 82.792 13.3772 83.1019 13.11C83.4118 12.8429 83.6361 12.501 83.775 12.0843C83.9139 11.6676 83.9834 11.2402 83.9834 10.8022V6.17038H85.5059V14.6647H83.9834V13.4466H83.8872C83.8231 13.5748 83.7002 13.7511 83.5186 13.9755C83.337 14.1892 83.0805 14.3869 82.7493 14.5685C82.4181 14.7394 81.9854 14.8249 81.4511 14.8249ZM95.056 14.8249C94.1798 14.8249 93.5174 14.6005 93.0686 14.1518C92.6306 13.703 92.4115 13.0726 92.4115 12.2606V7.42048H90.889V6.17038H92.4115V4.0388H93.9341V6.17038H96.0016V7.42048H93.9341V12.2606C93.9341 12.688 94.0516 13.0032 94.2867 13.2062C94.5218 13.3985 94.8637 13.4947 95.3124 13.4947C95.5475 13.4947 95.7719 13.4787 95.9856 13.4466C96.1992 13.4146 96.3061 13.3985 96.3061 13.3985V14.6967C96.3061 14.6967 96.1832 14.7181 95.9375 14.7608C95.6917 14.8036 95.3979 14.8249 95.056 14.8249ZM101.222 4.88823L99.5713 1.98735H101.142L102.52 4.8722L101.222 4.88823ZM101.318 14.8249C100.474 14.8249 99.801 14.5632 99.2989 14.0396C98.7967 13.5161 98.5456 12.7895 98.5456 11.8599V6.17038H100.068V11.7798C100.068 12.3354 100.218 12.7628 100.517 13.062C100.827 13.3611 101.233 13.5107 101.735 13.5107C102.248 13.5107 102.659 13.3772 102.969 13.11C103.279 12.8429 103.503 12.501 103.642 12.0843C103.781 11.6676 103.851 11.2402 103.851 10.8022V6.17038H105.149C105.565 6.17038 105.774 5.95135 105.774 5.51328V4.55166H107.12V5.51328C107.12 6.00477 106.992 6.4001 106.735 6.69927C106.479 6.99844 106.089 7.14803 105.565 7.14803H105.373V14.6647H103.851V13.4466H103.754C103.69 13.5748 103.567 13.7511 103.386 13.9755C103.204 14.1892 102.948 14.3869 102.616 14.5685C102.285 14.7394 101.852 14.8249 101.318 14.8249ZM111.628 14.6647V2.48419H113.151V9.56809L116.532 6.17038H118.52L114.609 10.0329L118.6 14.6647H116.661L113.151 10.5778V14.6647H111.628ZM120.518 14.6647V2.48419H122.041V7.40446H122.137C122.212 7.27624 122.335 7.09994 122.505 6.87557C122.687 6.65119 122.944 6.45352 123.275 6.28257C123.606 6.10093 124.023 6.01011 124.525 6.01011C125.145 6.01011 125.673 6.15436 126.112 6.44284C126.55 6.72064 126.881 7.09994 127.105 7.58075C127.34 8.06156 127.458 8.60113 127.458 9.19947V14.6647H125.935V9.29563C125.935 8.72935 125.775 8.25923 125.454 7.88526C125.145 7.5113 124.69 7.32432 124.092 7.32432C123.611 7.32432 123.221 7.44719 122.922 7.69294C122.623 7.928 122.399 8.2432 122.249 8.63853C122.11 9.02318 122.041 9.43453 122.041 9.8726V14.6647H120.518ZM134.43 4.8722L133.131 4.85617L134.51 1.97133H136.08L134.43 4.8722ZM133.805 14.8249C132.896 14.8249 132.132 14.6166 131.513 14.1999C130.893 13.7725 130.423 13.2222 130.102 12.5491C129.782 11.876 129.622 11.1654 129.622 10.4175C129.622 9.65891 129.782 8.94838 130.102 8.28594C130.423 7.61281 130.893 7.06789 131.513 6.65119C132.132 6.22381 132.896 6.01011 133.805 6.01011C134.713 6.01011 135.477 6.22381 136.096 6.65119C136.716 7.06789 137.186 7.61281 137.507 8.28594C137.827 8.94838 137.988 9.65891 137.988 10.4175C137.988 11.1654 137.827 11.876 137.507 12.5491C137.186 13.2222 136.716 13.7725 136.096 14.1999C135.477 14.6166 134.713 14.8249 133.805 14.8249ZM133.805 13.4947C134.382 13.4947 134.862 13.3504 135.247 13.062C135.642 12.7628 135.936 12.3781 136.129 11.908C136.332 11.4379 136.433 10.9411 136.433 10.4175C136.433 9.88329 136.332 9.38645 136.129 8.92701C135.936 8.45689 135.642 8.07759 135.247 7.7891C134.862 7.48993 134.382 7.34035 133.805 7.34035C133.238 7.34035 132.758 7.48993 132.362 7.7891C131.967 8.07759 131.668 8.45689 131.465 8.92701C131.272 9.38645 131.176 9.88329 131.176 10.4175C131.176 10.9411 131.272 11.4379 131.465 11.908C131.668 12.3781 131.967 12.7628 132.362 13.062C132.758 13.3504 133.238 13.4947 133.805 13.4947ZM143.765 6.01011C144.299 6.01011 144.748 6.09559 145.111 6.26654C145.474 6.4375 145.768 6.64051 145.992 6.87557C146.217 7.09994 146.388 7.31364 146.505 7.51664H146.601V6.17038H148.124V14.6647H146.601V13.3184H146.505C146.388 13.5214 146.217 13.7404 145.992 13.9755C145.768 14.2106 145.474 14.4136 145.111 14.5845C144.748 14.7448 144.299 14.8249 143.765 14.8249C143.124 14.8249 142.563 14.7021 142.082 14.4563C141.601 14.1999 141.2 13.8633 140.88 13.4466C140.559 13.0192 140.319 12.5438 140.159 12.0202C139.998 11.4967 139.918 10.9624 139.918 10.4175C139.918 9.8726 139.998 9.33837 140.159 8.81483C140.319 8.29128 140.559 7.82116 140.88 7.40446C141.2 6.97707 141.601 6.64051 142.082 6.39476C142.563 6.13833 143.124 6.01011 143.765 6.01011ZM144.021 7.30829C143.455 7.30829 142.979 7.46322 142.595 7.77308C142.21 8.07224 141.922 8.45689 141.729 8.92701C141.548 9.39714 141.457 9.89397 141.457 10.4175C141.457 10.9304 141.548 11.4272 141.729 11.908C141.922 12.3781 142.21 12.7681 142.595 13.078C142.979 13.3772 143.455 13.5267 144.021 13.5267C144.587 13.5267 145.058 13.3772 145.432 13.078C145.816 12.7681 146.099 12.3781 146.281 11.908C146.473 11.4272 146.569 10.9304 146.569 10.4175C146.569 9.89397 146.473 9.39714 146.281 8.92701C146.099 8.45689 145.816 8.07224 145.432 7.77308C145.058 7.46322 144.587 7.30829 144.021 7.30829ZM157.661 14.8249C156.785 14.8249 156.123 14.6005 155.674 14.1518C155.236 13.703 155.017 13.0726 155.017 12.2606V7.42048H153.494V6.17038H155.017V4.0388H156.539V6.17038H158.607V7.42048H156.539V12.2606C156.539 12.688 156.657 13.0032 156.892 13.2062C157.127 13.3985 157.469 13.4947 157.918 13.4947C158.153 13.4947 158.377 13.4787 158.591 13.4466C158.804 13.4146 158.911 13.3985 158.911 13.3985V14.6967C158.911 14.6967 158.788 14.7181 158.543 14.7608C158.297 14.8036 158.003 14.8249 157.661 14.8249ZM161.071 14.6647V2.48419H162.593V7.40446H162.689C162.764 7.27624 162.887 7.09994 163.058 6.87557C163.24 6.65119 163.496 6.45352 163.827 6.28257C164.159 6.10093 164.575 6.01011 165.077 6.01011C165.697 6.01011 166.226 6.15436 166.664 6.44284C167.102 6.72064 167.433 7.09994 167.658 7.58075C167.893 8.06156 168.01 8.60113 168.01 9.19947V14.6647H166.488V9.29563C166.488 8.72935 166.327 8.25923 166.007 7.88526C165.697 7.5113 165.243 7.32432 164.645 7.32432C164.164 7.32432 163.774 7.44719 163.475 7.69294C163.176 7.928 162.951 8.2432 162.802 8.63853C162.663 9.02318 162.593 9.43453 162.593 9.8726V14.6647H161.071ZM174.117 14.8249C173.422 14.8249 172.819 14.7021 172.306 14.4563C171.803 14.1999 171.387 13.858 171.056 13.4306C170.735 13.0032 170.495 12.5331 170.334 12.0202C170.174 11.4967 170.094 10.9624 170.094 10.4175C170.094 9.88329 170.169 9.3544 170.318 8.83085C170.479 8.30731 170.719 7.83184 171.04 7.40446C171.371 6.97707 171.782 6.64051 172.274 6.39476C172.776 6.13833 173.369 6.01011 174.053 6.01011C174.779 6.01011 175.42 6.17572 175.976 6.50695C176.531 6.83817 176.97 7.32966 177.29 7.98143C177.611 8.63319 177.771 9.45056 177.771 10.4335V10.8823H171.633C171.665 11.3631 171.777 11.8065 171.969 12.2125C172.172 12.6079 172.455 12.9284 172.819 13.1742C173.182 13.4092 173.615 13.5267 174.117 13.5267C174.555 13.5267 174.907 13.4573 175.174 13.3184C175.452 13.1688 175.671 12.9979 175.832 12.8055C175.992 12.6132 176.099 12.4476 176.152 12.3087C176.216 12.1591 176.248 12.0843 176.248 12.0843H177.675C177.675 12.0843 177.648 12.1805 177.595 12.3728C177.541 12.5544 177.445 12.7788 177.306 13.0459C177.167 13.3131 176.964 13.5855 176.697 13.8633C176.43 14.1304 176.088 14.3601 175.671 14.5525C175.255 14.7341 174.736 14.8249 174.117 14.8249ZM171.649 9.69631H176.28C176.259 9.14071 176.141 8.69195 175.928 8.35004C175.714 7.99745 175.442 7.73568 175.11 7.56473C174.779 7.39377 174.427 7.30829 174.053 7.30829C173.379 7.30829 172.829 7.52733 172.402 7.9654C171.974 8.39278 171.723 8.96975 171.649 9.69631ZM183.793 14.8249C182.885 14.8249 182.121 14.6166 181.501 14.1999C180.881 13.7725 180.411 13.2222 180.091 12.5491C179.77 11.876 179.61 11.1654 179.61 10.4175C179.61 9.65891 179.77 8.94838 180.091 8.28594C180.411 7.61281 180.881 7.06789 181.501 6.65119C182.121 6.22381 182.885 6.01011 183.793 6.01011C184.701 6.01011 185.465 6.22381 186.085 6.65119C186.705 7.06789 187.175 7.61281 187.495 8.28594C187.816 8.94838 187.976 9.65891 187.976 10.4175C187.976 11.1654 187.816 11.876 187.495 12.5491C187.175 13.2222 186.705 13.7725 186.085 14.1999C185.465 14.6166 184.701 14.8249 183.793 14.8249ZM183.793 13.4947C184.37 13.4947 184.851 13.3504 185.235 13.062C185.631 12.7628 185.925 12.3781 186.117 11.908C186.32 11.4379 186.421 10.9411 186.421 10.4175C186.421 9.88329 186.32 9.38645 186.117 8.92701C185.925 8.45689 185.631 8.07759 185.235 7.7891C184.851 7.48993 184.37 7.34035 183.793 7.34035C183.227 7.34035 182.746 7.48993 182.351 7.7891C181.955 8.07759 181.656 8.45689 181.453 8.92701C181.261 9.38645 181.165 9.88329 181.165 10.4175C181.165 10.9411 181.261 11.4379 181.453 11.908C181.656 12.3781 181.955 12.7628 182.351 13.062C182.746 13.3504 183.227 13.4947 183.793 13.4947ZM193.747 14.6647V6.17038H195.269V7.40446H195.366C195.44 7.27624 195.563 7.09994 195.734 6.87557C195.916 6.65119 196.172 6.45352 196.503 6.28257C196.835 6.10093 197.251 6.01011 197.754 6.01011C198.373 6.01011 198.902 6.15436 199.34 6.44284C199.778 6.72064 200.11 7.09994 200.334 7.58075C200.569 8.06156 200.686 8.60113 200.686 9.19947V14.6647H199.164V9.29563C199.164 8.72935 199.004 8.25923 198.683 7.88526C198.373 7.5113 197.919 7.32432 197.321 7.32432C196.84 7.32432 196.45 7.44719 196.151 7.69294C195.852 7.928 195.627 8.2432 195.478 8.63853C195.339 9.02318 195.269 9.43453 195.269 9.8726V14.6647H193.747ZM203.094 14.6647V2.48419H204.617V7.40446H204.713C204.788 7.27624 204.911 7.09994 205.082 6.87557C205.263 6.65119 205.52 6.45352 205.851 6.28257C206.182 6.10093 206.599 6.01011 207.101 6.01011C207.721 6.01011 208.25 6.15436 208.688 6.44284C209.126 6.72064 209.457 7.09994 209.681 7.58075C209.917 8.06156 210.034 8.60113 210.034 9.19947V14.6647H208.511V9.29563C208.511 8.72935 208.351 8.25923 208.031 7.88526C207.721 7.5113 207.267 7.32432 206.668 7.32432C206.188 7.32432 205.798 7.44719 205.498 7.69294C205.199 7.928 204.975 8.2432 204.825 8.63853C204.686 9.02318 204.617 9.43453 204.617 9.8726V14.6647H203.094ZM215.051 14.8249C214.207 14.8249 213.533 14.5632 213.031 14.0396C212.529 13.5161 212.278 12.7895 212.278 11.8599V6.17038H213.801V11.7798C213.801 12.3354 213.95 12.7628 214.249 13.062C214.559 13.3611 214.965 13.5107 215.467 13.5107C215.98 13.5107 216.392 13.3772 216.701 13.11C217.011 12.8429 217.236 12.501 217.375 12.0843C217.513 11.6676 217.583 11.2402 217.583 10.8022V6.17038H219.105V14.6647H217.583V13.4466H217.487C217.423 13.5748 217.3 13.7511 217.118 13.9755C216.936 14.1892 216.68 14.3869 216.349 14.5685C216.018 14.7394 215.585 14.8249 215.051 14.8249ZM229.072 14.8249C228.378 14.8249 227.769 14.7021 227.245 14.4563C226.722 14.1999 226.283 13.8633 225.931 13.4466C225.589 13.0192 225.327 12.5438 225.146 12.0202C224.975 11.4967 224.889 10.9624 224.889 10.4175C224.889 9.8726 224.975 9.34371 225.146 8.83085C225.317 8.30731 225.573 7.83184 225.915 7.40446C226.267 6.97707 226.706 6.64051 227.229 6.39476C227.753 6.13833 228.367 6.01011 229.072 6.01011C229.756 6.01011 230.322 6.11162 230.771 6.31462C231.22 6.51763 231.578 6.77406 231.845 7.08392C232.123 7.38309 232.326 7.6876 232.454 7.99745C232.593 8.29662 232.684 8.54771 232.726 8.75072C232.769 8.95373 232.79 9.05523 232.79 9.05523H231.316C231.316 9.05523 231.289 8.96975 231.236 8.7988C231.182 8.61716 231.081 8.41415 230.931 8.18978C230.782 7.9654 230.557 7.76773 230.258 7.59678C229.959 7.41514 229.564 7.32432 229.072 7.32432C228.485 7.32432 227.988 7.47391 227.582 7.77308C227.186 8.06156 226.887 8.44086 226.684 8.91099C226.492 9.38111 226.396 9.88329 226.396 10.4175C226.396 10.9517 226.492 11.4539 226.684 11.9241C226.887 12.3942 227.186 12.7788 227.582 13.078C227.988 13.3665 228.485 13.5107 229.072 13.5107C229.564 13.5107 229.959 13.4252 230.258 13.2543C230.557 13.0726 230.782 12.8696 230.931 12.6453C231.081 12.4209 231.182 12.2232 231.236 12.0523C231.289 11.8706 231.316 11.7798 231.316 11.7798H232.79C232.79 11.7798 232.769 11.8813 232.726 12.0843C232.684 12.2873 232.593 12.5438 232.454 12.8536C232.326 13.1528 232.123 13.4573 231.845 13.7671C231.578 14.0663 231.22 14.3174 230.771 14.5204C230.322 14.7234 229.756 14.8249 229.072 14.8249ZM241.193 2.90089L239.542 1.43292e-05H241.113L242.491 2.88486L241.193 2.90089ZM236.417 4.95234L238.356 2.59638H239.654L241.594 4.95234H240.215L238.997 3.47786L237.795 4.95234H236.417ZM238.645 6.01011C239.179 6.01011 239.628 6.09559 239.991 6.26654C240.354 6.4375 240.648 6.64051 240.872 6.87557C241.097 7.09994 241.268 7.31364 241.385 7.51664H241.482V6.17038H243.004V14.6647H241.482V13.3184H241.385C241.268 13.5214 241.097 13.7404 240.872 13.9755C240.648 14.2106 240.354 14.4136 239.991 14.5845C239.628 14.7448 239.179 14.8249 238.645 14.8249C238.004 14.8249 237.443 14.7021 236.962 14.4563C236.481 14.1999 236.08 13.8633 235.76 13.4466C235.439 13.0192 235.199 12.5438 235.039 12.0202C234.878 11.4967 234.798 10.9624 234.798 10.4175C234.798 9.8726 234.878 9.33837 235.039 8.81483C235.199 8.29128 235.439 7.82116 235.76 7.40446C236.08 6.97707 236.481 6.64051 236.962 6.39476C237.443 6.13833 238.004 6.01011 238.645 6.01011ZM238.901 7.30829C238.335 7.30829 237.859 7.46322 237.475 7.77308C237.09 8.07224 236.802 8.45689 236.609 8.92701C236.428 9.39714 236.337 9.89397 236.337 10.4175C236.337 10.9304 236.428 11.4272 236.609 11.908C236.802 12.3781 237.09 12.7681 237.475 13.078C237.859 13.3772 238.335 13.5267 238.901 13.5267C239.467 13.5267 239.938 13.3772 240.312 13.078C240.696 12.7681 240.979 12.3781 241.161 11.908C241.353 11.4272 241.449 10.9304 241.449 10.4175C241.449 9.89397 241.353 9.39714 241.161 8.92701C240.979 8.45689 240.696 8.07224 240.312 7.77308C239.938 7.46322 239.467 7.30829 238.901 7.30829ZM248.122 14.8249C247.278 14.8249 246.605 14.5632 246.102 14.0396C245.6 13.5161 245.349 12.7895 245.349 11.8599V6.17038H246.872V11.7798C246.872 12.3354 247.021 12.7628 247.32 13.062C247.63 13.3611 248.036 13.5107 248.539 13.5107C249.051 13.5107 249.463 13.3772 249.773 13.11C250.082 12.8429 250.307 12.501 250.446 12.0843C250.585 11.6676 250.654 11.2402 250.654 10.8022V6.17038H252.177V14.6647H250.654V13.4466H250.558C250.494 13.5748 250.371 13.7511 250.189 13.9755C250.008 14.1892 249.751 14.3869 249.42 14.5685C249.089 14.7394 248.656 14.8249 248.122 14.8249ZM261.727 14.8249C260.851 14.8249 260.188 14.6005 259.739 14.1518C259.301 13.703 259.082 13.0726 259.082 12.2606V7.42048H257.56V6.17038H259.082V4.0388H260.605V6.17038H262.672V7.42048H260.605V12.2606C260.605 12.688 260.722 13.0032 260.957 13.2062C261.192 13.3985 261.534 13.4947 261.983 13.4947C262.218 13.4947 262.443 13.4787 262.656 13.4466C262.87 13.4146 262.977 13.3985 262.977 13.3985V14.6967C262.977 14.6967 262.854 14.7181 262.608 14.7608C262.362 14.8036 262.069 14.8249 261.727 14.8249ZM265.489 4.88823L263.838 1.98735H265.409L266.787 4.8722L265.489 4.88823ZM265.312 14.6647V6.17038H266.835V14.6647H265.312ZM269.405 14.6647V6.17038H270.928V7.40446H270.992C271.077 7.24419 271.211 7.05721 271.393 6.84351C271.574 6.61914 271.82 6.42681 272.13 6.26654C272.45 6.09559 272.851 6.01011 273.332 6.01011C273.962 6.01011 274.491 6.16504 274.918 6.47489C275.357 6.77406 275.682 7.18008 275.896 7.69294H275.912C276.147 7.22282 276.478 6.82749 276.906 6.50695C277.344 6.17572 277.91 6.01011 278.605 6.01011C279.524 6.01011 280.229 6.32531 280.72 6.9557C281.222 7.57541 281.473 8.37676 281.473 9.35974V14.6647H279.951V9.43988C279.951 8.80948 279.801 8.30196 279.502 7.91732C279.203 7.52199 278.77 7.32432 278.204 7.32432C277.712 7.32432 277.317 7.45788 277.018 7.72499C276.729 7.99211 276.521 8.32333 276.393 8.71866C276.265 9.11399 276.201 9.50933 276.201 9.90466V14.6647H274.678V9.43988C274.678 8.80948 274.528 8.30196 274.229 7.91732C273.941 7.52199 273.508 7.32432 272.931 7.32432C272.44 7.32432 272.044 7.45788 271.745 7.72499C271.457 7.99211 271.248 8.32868 271.12 8.73469C270.992 9.13002 270.928 9.52001 270.928 9.90466V14.6647H269.405ZM287.564 14.6647V2.48419H289.087V9.56809L292.469 6.17038H294.456L290.545 10.0329L294.536 14.6647H292.597L289.087 10.5778V14.6647H287.564ZM297.288 4.55166C296.999 4.55166 296.759 4.4555 296.567 4.26318C296.385 4.07085 296.294 3.84113 296.294 3.57402C296.294 3.29622 296.385 3.06116 296.567 2.86883C296.759 2.67651 296.999 2.58035 297.288 2.58035C297.566 2.58035 297.801 2.67651 297.993 2.86883C298.185 3.06116 298.281 3.29622 298.281 3.57402C298.281 3.84113 298.185 4.07085 297.993 4.26318C297.801 4.4555 297.566 4.55166 297.288 4.55166ZM296.535 14.6647V6.17038H298.057V14.6647H296.535ZM307.492 2.91692L306.194 2.90089L307.572 0.0160411H309.142L307.492 2.91692ZM301.818 4.96836L303.757 2.6124H305.056L306.995 4.96836H305.617L304.398 3.49388L303.196 4.96836H301.818ZM304.463 14.8249C303.768 14.8249 303.164 14.7021 302.652 14.4563C302.149 14.1999 301.733 13.858 301.401 13.4306C301.081 13.0032 300.841 12.5331 300.68 12.0202C300.52 11.4967 300.44 10.9624 300.44 10.4175C300.44 9.88329 300.515 9.3544 300.664 8.83085C300.824 8.30731 301.065 7.83184 301.385 7.40446C301.717 6.97707 302.128 6.64051 302.619 6.39476C303.122 6.13833 303.715 6.01011 304.398 6.01011C305.125 6.01011 305.766 6.17572 306.322 6.50695C306.877 6.83817 307.315 7.32966 307.636 7.98143C307.956 8.63319 308.117 9.45056 308.117 10.4335V10.8823H301.978C302.01 11.3631 302.123 11.8065 302.315 12.2125C302.518 12.6079 302.801 12.9284 303.164 13.1742C303.528 13.4092 303.96 13.5267 304.463 13.5267C304.901 13.5267 305.253 13.4573 305.52 13.3184C305.798 13.1688 306.017 12.9979 306.177 12.8055C306.338 12.6132 306.445 12.4476 306.498 12.3087C306.562 12.1591 306.594 12.0843 306.594 12.0843H308.021C308.021 12.0843 307.994 12.1805 307.94 12.3728C307.887 12.5544 307.791 12.7788 307.652 13.0459C307.513 13.3131 307.31 13.5855 307.043 13.8633C306.776 14.1304 306.434 14.3601 306.017 14.5525C305.601 14.7341 305.082 14.8249 304.463 14.8249ZM301.994 9.69631H306.626C306.605 9.14071 306.487 8.69195 306.274 8.35004C306.06 7.99745 305.787 7.73568 305.456 7.56473C305.125 7.39377 304.772 7.30829 304.398 7.30829C303.725 7.30829 303.175 7.52733 302.748 7.9654C302.32 8.39278 302.069 8.96975 301.994 9.69631ZM310.286 14.6647V6.17038H311.809V7.40446H311.873C311.959 7.24419 312.092 7.05721 312.274 6.84351C312.455 6.61914 312.701 6.42681 313.011 6.26654C313.331 6.09559 313.732 6.01011 314.213 6.01011C314.843 6.01011 315.372 6.16504 315.8 6.47489C316.238 6.77406 316.564 7.18008 316.777 7.69294H316.793C317.028 7.22282 317.36 6.82749 317.787 6.50695C318.225 6.17572 318.791 6.01011 319.486 6.01011C320.405 6.01011 321.11 6.32531 321.601 6.9557C322.104 7.57541 322.355 8.37676 322.355 9.35974V14.6647H320.832V9.43988C320.832 8.80948 320.683 8.30196 320.383 7.91732C320.084 7.52199 319.651 7.32432 319.085 7.32432C318.594 7.32432 318.198 7.45788 317.899 7.72499C317.611 7.99211 317.402 8.32333 317.274 8.71866C317.146 9.11399 317.082 9.50933 317.082 9.90466V14.6647H315.559V9.43988C315.559 8.80948 315.41 8.30196 315.11 7.91732C314.822 7.52199 314.389 7.32432 313.812 7.32432C313.321 7.32432 312.925 7.45788 312.626 7.72499C312.338 7.99211 312.129 8.32868 312.001 8.73469C311.873 9.13002 311.809 9.52001 311.809 9.90466V14.6647H310.286ZM325.762 14.8249C325.462 14.8249 325.211 14.7234 325.008 14.5204C324.816 14.3067 324.72 14.061 324.72 13.7832C324.72 13.4947 324.816 13.2489 325.008 13.0459C325.211 12.8429 325.462 12.7414 325.762 12.7414C326.061 12.7414 326.307 12.8429 326.499 13.0459C326.702 13.2489 326.803 13.4947 326.803 13.7832C326.803 14.0717 326.702 14.3174 326.499 14.5204C326.307 14.7234 326.061 14.8249 325.762 14.8249ZM0.801366 40.7084V28.8485H4.64783C5.59876 28.8485 6.42682 29.0194 7.132 29.3613C7.83719 29.6926 8.42484 30.1413 8.89497 30.7076C9.36509 31.2739 9.71768 31.9096 9.95274 32.6148C10.1878 33.32 10.3053 34.0412 10.3053 34.7785C10.3053 35.5157 10.1878 36.2369 9.95274 36.9421C9.71768 37.6473 9.36509 38.283 8.89497 38.8493C8.42484 39.4156 7.83719 39.8697 7.132 40.2116C6.42682 40.5428 5.59876 40.7084 4.64783 40.7084H0.801366ZM4.58372 30.2268H2.37201V39.3301H4.58372C5.27822 39.3301 5.8819 39.2019 6.39476 38.9455C6.91831 38.689 7.35104 38.3471 7.69295 37.9197C8.04554 37.4817 8.30731 36.9902 8.47827 36.4453C8.64922 35.9003 8.7347 35.3447 8.7347 34.7785C8.7347 34.2122 8.64922 33.6566 8.47827 33.1117C8.30731 32.5667 8.04554 32.0806 7.69295 31.6532C7.35104 31.2151 6.91831 30.8679 6.39476 30.6114C5.8819 30.355 5.27822 30.2268 4.58372 30.2268ZM15.8433 30.932L14.1925 28.0311H15.7631L17.1414 30.916L15.8433 30.932ZM16.0676 32.0539C16.6019 32.0539 17.0506 32.1394 17.4139 32.3103C17.7772 32.4813 18.071 32.6843 18.2954 32.9193C18.5198 33.1437 18.6907 33.3574 18.8082 33.5604H18.9044V32.2141H20.427V40.7084H18.9044V39.3622H18.8082C18.6907 39.5652 18.5198 39.7842 18.2954 40.0193C18.071 40.2543 17.7772 40.4573 17.4139 40.6283C17.0506 40.7886 16.6019 40.8687 16.0676 40.8687C15.4266 40.8687 14.8656 40.7458 14.3848 40.5001C13.904 40.2436 13.5033 39.9071 13.1828 39.4904C12.8623 39.063 12.6219 38.5875 12.4616 38.064C12.3013 37.5404 12.2212 37.0062 12.2212 36.4613C12.2212 35.9164 12.3013 35.3821 12.4616 34.8586C12.6219 34.335 12.8623 33.8649 13.1828 33.4482C13.5033 33.0208 13.904 32.6843 14.3848 32.4385C14.8656 32.1821 15.4266 32.0539 16.0676 32.0539ZM16.3241 33.3521C15.7578 33.3521 15.2823 33.507 14.8977 33.8168C14.513 34.116 14.2245 34.5007 14.0322 34.9708C13.8506 35.4409 13.7598 35.9377 13.7598 36.4613C13.7598 36.9741 13.8506 37.471 14.0322 37.9518C14.2245 38.4219 14.513 38.8119 14.8977 39.1217C15.2823 39.4209 15.7578 39.5705 16.3241 39.5705C16.8904 39.5705 17.3605 39.4209 17.7344 39.1217C18.1191 38.8119 18.4022 38.4219 18.5839 37.9518C18.7762 37.471 18.8724 36.9741 18.8724 36.4613C18.8724 35.9377 18.7762 35.4409 18.5839 34.9708C18.4022 34.5007 18.1191 34.116 17.7344 33.8168C17.3605 33.507 16.8904 33.3521 16.3241 33.3521ZM22.772 40.7084V32.2141H24.2946V33.4482H24.3908C24.4655 33.32 24.5884 33.1437 24.7594 32.9193C24.941 32.695 25.1974 32.4973 25.5287 32.3263C25.8599 32.1447 26.2766 32.0539 26.7788 32.0539C27.3985 32.0539 27.9274 32.1981 28.3654 32.4866C28.8035 32.7644 29.1347 33.1437 29.3591 33.6245C29.5942 34.1053 29.7117 34.6449 29.7117 35.2432V40.7084H28.1891V35.3394C28.1891 34.7731 28.0289 34.303 27.7083 33.929C27.3985 33.5551 26.9444 33.3681 26.346 33.3681C25.8652 33.3681 25.4752 33.491 25.1761 33.7367C24.8769 33.9718 24.6525 34.287 24.5029 34.6823C24.364 35.0669 24.2946 35.4783 24.2946 35.9164V40.7084H22.772ZM39.7399 30.932L38.4417 30.916L39.8201 28.0311H41.3907L39.7399 30.932ZM35.9736 43.8337C35.7278 43.8337 35.5195 43.823 35.3485 43.8016C35.1776 43.7802 35.0921 43.7696 35.0921 43.7696V42.4714C35.0921 42.4714 35.1776 42.4767 35.3485 42.4874C35.5302 42.5088 35.7225 42.5195 35.9255 42.5195C36.5559 42.5195 37.0688 42.3859 37.4641 42.1188C37.8701 41.8624 38.212 41.435 38.4898 40.8366L35.2043 32.2141H36.791L39.2431 38.8493L41.7112 32.2141H43.3139L40.0284 40.7244C39.6117 41.7929 39.0721 42.5782 38.4097 43.0804C37.7579 43.5826 36.9459 43.8337 35.9736 43.8337ZM53.8833 43.9138C52.9751 43.7749 52.1791 43.449 51.4953 42.9362C50.8222 42.4233 50.2559 41.7769 49.7964 40.9969C49.3477 40.2276 49.0111 39.3782 48.7867 38.4486C48.5624 37.5191 48.4502 36.5735 48.4502 35.6119C48.4502 34.6396 48.5624 33.694 48.7867 32.7751C49.0111 31.8455 49.3477 30.9961 49.7964 30.2268C50.2559 29.4468 50.8222 28.8004 51.4953 28.2875C52.1791 27.7747 52.9751 27.4488 53.8833 27.3099V28.7042C53.2422 28.8538 52.6759 29.1477 52.1845 29.5857C51.7036 30.0238 51.2976 30.5634 50.9664 31.2044C50.6459 31.8348 50.4055 32.5293 50.2452 33.2879C50.0849 34.0466 50.0048 34.8212 50.0048 35.6119C50.0048 36.4025 50.0849 37.1771 50.2452 37.9358C50.4055 38.6944 50.6459 39.3942 50.9664 40.0353C51.2976 40.6657 51.7036 41.1999 52.1845 41.638C52.6759 42.076 53.2422 42.3699 53.8833 42.5195V43.9138ZM59.3397 40.8687C58.4636 40.8687 57.8011 40.6443 57.3524 40.1956C56.9143 39.7468 56.6953 39.1164 56.6953 38.3044V33.4642H55.1727V32.2141H56.6953V30.0826H58.2178V32.2141H60.2853V33.4642H58.2178V38.3044C58.2178 38.7318 58.3354 39.047 58.5704 39.25C58.8055 39.4423 59.1474 39.5384 59.5962 39.5384C59.8312 39.5384 60.0556 39.5224 60.2693 39.4904C60.483 39.4583 60.5898 39.4423 60.5898 39.4423V40.7405C60.5898 40.7405 60.467 40.7618 60.2212 40.8046C59.9755 40.8473 59.6816 40.8687 59.3397 40.8687ZM65.6341 30.932L63.9833 28.0311H65.5539L66.9322 30.916L65.6341 30.932ZM65.602 40.8687C64.7579 40.8687 64.0848 40.6069 63.5826 40.0834C63.0804 39.5598 62.8293 38.8333 62.8293 37.9037V32.2141H64.3519V37.8236C64.3519 38.3792 64.5015 38.8066 64.8007 39.1057C65.1105 39.4049 65.5165 39.5545 66.0187 39.5545C66.5316 39.5545 66.9429 39.4209 67.2528 39.1538C67.5626 38.8867 67.787 38.5448 67.9259 38.1281C68.0648 37.7114 68.1343 37.284 68.1343 36.8459V32.2141H69.6568V40.7084H68.1343V39.4904H68.0381C67.974 39.6186 67.8511 39.7949 67.6695 40.0193C67.4878 40.2329 67.2314 40.4306 66.9002 40.6123C66.569 40.7832 66.1362 40.8687 65.602 40.8687ZM72.3785 43.8337C72.1328 43.8337 71.9244 43.823 71.7535 43.8016C71.5825 43.7802 71.497 43.7696 71.497 43.7696V42.4714C71.497 42.4714 71.5825 42.4767 71.7535 42.4874C71.9351 42.5088 72.1274 42.5195 72.3304 42.5195C72.9608 42.5195 73.4737 42.3859 73.869 42.1188C74.275 41.8624 74.6169 41.435 74.8947 40.8366L71.6092 32.2141H73.1959L75.648 38.8493L78.1162 32.2141H79.7188L76.4333 40.7244C76.0166 41.7929 75.477 42.5782 74.8146 43.0804C74.1628 43.5826 73.3508 43.8337 72.3785 43.8337ZM85.0955 40.7084V32.2141H86.6181V33.4482H86.6822C86.7676 33.2879 86.9012 33.101 87.0828 32.8873C87.2645 32.6629 87.5102 32.4706 87.8201 32.3103C88.1406 32.1394 88.5413 32.0539 89.0221 32.0539C89.6525 32.0539 90.1814 32.2088 90.6088 32.5187C91.0468 32.8178 91.3727 33.2238 91.5864 33.7367H91.6024C91.8375 33.2666 92.1687 32.8712 92.5961 32.5507C93.0342 32.2195 93.6005 32.0539 94.295 32.0539C95.2138 32.0539 95.919 32.3691 96.4105 32.9995C96.9127 33.6192 97.1638 34.4205 97.1638 35.4035V40.7084H95.6412V35.4836C95.6412 34.8532 95.4916 34.3457 95.1925 33.9611C94.8933 33.5657 94.4606 33.3681 93.8943 33.3681C93.4028 33.3681 93.0075 33.5016 92.7083 33.7688C92.4198 34.0359 92.2115 34.3671 92.0832 34.7624C91.955 35.1578 91.8909 35.5531 91.8909 35.9484V40.7084H90.3684V35.4836C90.3684 34.8532 90.2188 34.3457 89.9196 33.9611C89.6311 33.5657 89.1984 33.3681 88.6214 33.3681C88.1299 33.3681 87.7346 33.5016 87.4354 33.7688C87.1469 34.0359 86.9386 34.3724 86.8104 34.7785C86.6822 35.1738 86.6181 35.5638 86.6181 35.9484V40.7084H85.0955ZM103.536 30.932L102.238 30.916L103.616 28.0311H105.187L103.536 30.932ZM102.414 40.8687C101.57 40.8687 100.897 40.6069 100.394 40.0834C99.8923 39.5598 99.6412 38.8333 99.6412 37.9037V32.2141H101.164V37.8236C101.164 38.3792 101.313 38.8066 101.613 39.1057C101.922 39.4049 102.328 39.5545 102.831 39.5545C103.343 39.5545 103.755 39.4209 104.065 39.1538C104.374 38.8867 104.599 38.5448 104.738 38.1281C104.877 37.7114 104.946 37.284 104.946 36.8459V32.2141H106.244C106.661 32.2141 106.869 31.9951 106.869 31.557V30.5954H108.216V31.557C108.216 32.0485 108.087 32.4439 107.831 32.743C107.575 33.0422 107.185 33.1918 106.661 33.1918H106.469V40.7084H104.946V39.4904H104.85C104.786 39.6186 104.663 39.7949 104.481 40.0193C104.3 40.2329 104.043 40.4306 103.712 40.6123C103.381 40.7832 102.948 40.8687 102.414 40.8687ZM113.127 40.8687C112.433 40.8687 111.824 40.7458 111.3 40.5001C110.777 40.2436 110.339 39.9071 109.986 39.4904C109.644 39.063 109.382 38.5875 109.201 38.064C109.03 37.5404 108.944 37.0062 108.944 36.4613C108.944 35.9164 109.03 35.3875 109.201 34.8746C109.372 34.3511 109.628 33.8756 109.97 33.4482C110.323 33.0208 110.761 32.6843 111.284 32.4385C111.808 32.1821 112.422 32.0539 113.127 32.0539C113.811 32.0539 114.377 32.1554 114.826 32.3584C115.275 32.5614 115.633 32.8178 115.9 33.1277C116.178 33.4268 116.381 33.7314 116.509 34.0412C116.648 34.3404 116.739 34.5915 116.781 34.7945C116.824 34.9975 116.846 35.099 116.846 35.099H115.371C115.371 35.099 115.344 35.0135 115.291 34.8426C115.238 34.6609 115.136 34.4579 114.986 34.2335C114.837 34.0092 114.613 33.8115 114.313 33.6405C114.014 33.4589 113.619 33.3681 113.127 33.3681C112.54 33.3681 112.043 33.5177 111.637 33.8168C111.242 34.1053 110.942 34.4846 110.739 34.9547C110.547 35.4249 110.451 35.927 110.451 36.4613C110.451 36.9955 110.547 37.4977 110.739 37.9678C110.942 38.4379 111.242 38.8226 111.637 39.1217C112.043 39.4102 112.54 39.5545 113.127 39.5545C113.619 39.5545 114.014 39.469 114.313 39.298C114.613 39.1164 114.837 38.9134 114.986 38.689C115.136 38.4646 115.238 38.267 115.291 38.096C115.344 37.9144 115.371 37.8236 115.371 37.8236H116.846C116.846 37.8236 116.824 37.9251 116.781 38.1281C116.739 38.3311 116.648 38.5875 116.509 38.8974C116.381 39.1965 116.178 39.5011 115.9 39.8109C115.633 40.1101 115.275 40.3612 114.826 40.5642C114.377 40.7672 113.811 40.8687 113.127 40.8687ZM118.533 27.3099C119.441 27.4488 120.232 27.7747 120.905 28.2875C121.589 28.8004 122.155 29.4468 122.604 30.2268C123.063 30.9961 123.405 31.8455 123.629 32.7751C123.854 33.7046 123.966 34.6502 123.966 35.6119C123.966 36.5842 123.854 37.5351 123.629 38.4646C123.405 39.3835 123.063 40.2276 122.604 40.9969C122.155 41.7769 121.589 42.4233 120.905 42.9362C120.232 43.449 119.441 43.7749 118.533 43.9138V42.5195C119.174 42.3699 119.735 42.076 120.216 41.638C120.707 41.1999 121.113 40.6657 121.434 40.0353C121.765 39.3942 122.011 38.6944 122.171 37.9358C122.331 37.1771 122.411 36.4025 122.411 35.6119C122.411 34.8212 122.331 34.0466 122.171 33.2879C122.011 32.5293 121.765 31.8348 121.434 31.2044C121.113 30.5634 120.707 30.0238 120.216 29.5857C119.735 29.1477 119.174 28.8538 118.533 28.7042V27.3099ZM127.147 40.8687C126.847 40.8687 126.596 40.7672 126.393 40.5642C126.201 40.3505 126.105 40.1047 126.105 39.8269C126.105 39.5384 126.201 39.2927 126.393 39.0897C126.596 38.8867 126.847 38.7852 127.147 38.7852C127.446 38.7852 127.692 38.8867 127.884 39.0897C128.087 39.2927 128.188 39.5384 128.188 39.8269C128.188 40.1154 128.087 40.3612 127.884 40.5642C127.692 40.7672 127.446 40.8687 127.147 40.8687ZM4.18305 66.7522L1.95832e-05 54.8922H1.66682L5.17672 64.9572L8.68662 54.8922H10.3534L6.15436 66.7522H4.18305ZM12.9507 56.6392C12.6622 56.6392 12.4218 56.543 12.2294 56.3507C12.0478 56.1584 11.957 55.9287 11.957 55.6615C11.957 55.3837 12.0478 55.1487 12.2294 54.9564C12.4218 54.764 12.6622 54.6679 12.9507 54.6679C13.2285 54.6679 13.4635 54.764 13.6558 54.9564C13.8482 55.1487 13.9443 55.3837 13.9443 55.6615C13.9443 55.9287 13.8482 56.1584 13.6558 56.3507C13.4635 56.543 13.2285 56.6392 12.9507 56.6392ZM12.1974 66.7522V58.2579H13.7199V66.7522H12.1974ZM23.1546 55.0044L21.8564 54.9884L23.2347 52.1036H24.8053L23.1546 55.0044ZM17.481 57.0559L19.4203 54.6999H20.7185L22.6577 57.0559H21.2794L20.0614 55.5814L18.8593 57.0559H17.481ZM20.1255 66.9124C19.431 66.9124 18.8273 66.7896 18.3144 66.5438C17.8122 66.2874 17.3955 65.9455 17.0643 65.5181C16.7438 65.0907 16.5034 64.6206 16.3431 64.1077C16.1828 63.5842 16.1027 63.05 16.1027 62.505C16.1027 61.9708 16.1775 61.4419 16.3271 60.9184C16.4873 60.3948 16.7278 59.9194 17.0483 59.492C17.3795 59.0646 17.7909 58.728 18.2824 58.4823C18.7845 58.2258 19.3775 58.0976 20.0614 58.0976C20.7879 58.0976 21.429 58.2632 21.9846 58.5945C22.5402 58.9257 22.9783 59.4172 23.2988 60.0689C23.6193 60.7207 23.7796 61.5381 23.7796 62.5211V62.9698H17.6413C17.6733 63.4506 17.7855 63.894 17.9779 64.3001C18.1809 64.6954 18.464 65.0159 18.8273 65.2617C19.1906 65.4967 19.6233 65.6143 20.1255 65.6143C20.5635 65.6143 20.9161 65.5448 21.1832 65.4059C21.461 65.2563 21.6801 65.0854 21.8403 64.8931C22.0006 64.7007 22.1075 64.5351 22.1609 64.3962C22.225 64.2466 22.257 64.1718 22.257 64.1718H23.6834C23.6834 64.1718 23.6567 64.268 23.6033 64.4603C23.5499 64.642 23.4537 64.8663 23.3148 65.1335C23.1759 65.4006 22.9729 65.673 22.7058 65.9508C22.4387 66.2179 22.0968 66.4477 21.6801 66.64C21.2634 66.8216 20.7452 66.9124 20.1255 66.9124ZM17.6573 61.7838H22.2891C22.2677 61.2282 22.1502 60.7795 21.9365 60.4376C21.7228 60.085 21.4504 59.8232 21.1191 59.6522C20.7879 59.4813 20.4353 59.3958 20.0614 59.3958C19.3882 59.3958 18.838 59.6148 18.4106 60.0529C17.9832 60.4803 17.7321 61.0573 17.6573 61.7838ZM29.3988 66.9124C28.5227 66.9124 27.8602 66.6881 27.4115 66.2393C26.9734 65.7906 26.7543 65.1602 26.7543 64.3481V59.508H25.2318V58.2579H26.7543V56.1263H28.2769V58.2579H30.3444V59.508H28.2769V64.3481C28.2769 64.7755 28.3944 65.0907 28.6295 65.2937C28.8646 65.486 29.2065 65.5822 29.6552 65.5822C29.8903 65.5822 30.1147 65.5662 30.3284 65.5341C30.542 65.5021 30.6489 65.486 30.6489 65.486V66.7842C30.6489 66.7842 30.526 66.8056 30.2803 66.8483C30.0345 66.8911 29.7407 66.9124 29.3988 66.9124ZM36.3417 66.7522V58.2579H37.8643V59.492H37.9604C38.0352 59.3638 38.1581 59.1875 38.329 58.9631C38.5107 58.7387 38.7671 58.541 39.0983 58.3701C39.4296 58.1885 39.8463 58.0976 40.3484 58.0976C40.9681 58.0976 41.497 58.2419 41.9351 58.5304C42.3732 58.8082 42.7044 59.1875 42.9288 59.6683C43.1638 60.1491 43.2814 60.6887 43.2814 61.287V66.7522H41.7588V61.3832C41.7588 60.8169 41.5985 60.3467 41.278 59.9728C40.9681 59.5988 40.5141 59.4118 39.9157 59.4118C39.4349 59.4118 39.0449 59.5347 38.7457 59.7805C38.4466 60.0155 38.2222 60.3307 38.0726 60.7261C37.9337 61.1107 37.8643 61.5221 37.8643 61.9601V66.7522H36.3417ZM47.0356 57.0238L48.9748 54.3473H50.273L52.2123 57.0238H50.8339L49.6159 55.3089L48.4139 57.0238H47.0356ZM49.6319 66.9124C48.7237 66.9124 47.9598 66.7041 47.3401 66.2874C46.7204 65.86 46.2502 65.3098 45.9297 64.6366C45.6092 63.9635 45.4489 63.253 45.4489 62.505C45.4489 61.7464 45.6092 61.0359 45.9297 60.3735C46.2502 59.7003 46.7204 59.1554 47.3401 58.7387C47.9598 58.3113 48.7237 58.0976 49.6319 58.0976C50.5401 58.0976 51.3041 58.3113 51.9238 58.7387C52.5435 59.1554 53.0136 59.7003 53.3341 60.3735C53.6547 61.0359 53.8149 61.7464 53.8149 62.505C53.8149 63.253 53.6547 63.9635 53.3341 64.6366C53.0136 65.3098 52.5435 65.86 51.9238 66.2874C51.3041 66.7041 50.5401 66.9124 49.6319 66.9124ZM49.6319 65.5822C50.2089 65.5822 50.6897 65.438 51.0743 65.1495C51.4697 64.8503 51.7635 64.4657 51.9558 63.9955C52.1588 63.5254 52.2603 63.0286 52.2603 62.505C52.2603 61.9708 52.1588 61.474 51.9558 61.0145C51.7635 60.5444 51.4697 60.1651 51.0743 59.8766C50.6897 59.5775 50.2089 59.4279 49.6319 59.4279C49.0656 59.4279 48.5848 59.5775 48.1895 59.8766C47.7942 60.1651 47.495 60.5444 47.292 61.0145C47.0997 61.474 47.0035 61.9708 47.0035 62.505C47.0035 63.0286 47.0997 63.5254 47.292 63.9955C47.495 64.4657 47.7942 64.8503 48.1895 65.1495C48.5848 65.438 49.0656 65.5822 49.6319 65.5822ZM49.6319 70.3903C49.3327 70.3903 49.0817 70.2834 48.8786 70.0698C48.6863 69.8667 48.5902 69.6263 48.5902 69.3485C48.5902 69.0601 48.6863 68.8143 48.8786 68.6113C49.0817 68.4083 49.3327 68.3068 49.6319 68.3068C49.9311 68.3068 50.1768 68.4083 50.3692 68.6113C50.5722 68.8143 50.6737 69.0601 50.6737 69.3485C50.6737 69.637 50.5722 69.8828 50.3692 70.0858C50.1768 70.2888 49.9311 70.3903 49.6319 70.3903ZM56.9778 56.6392C56.6893 56.6392 56.4489 56.543 56.2565 56.3507C56.0749 56.1584 55.9841 55.9287 55.9841 55.6615C55.9841 55.3837 56.0749 55.1487 56.2565 54.9564C56.4489 54.764 56.6893 54.6679 56.9778 54.6679C57.2556 54.6679 57.4906 54.764 57.6829 54.9564C57.8753 55.1487 57.9714 55.3837 57.9714 55.6615C57.9714 55.9287 57.8753 56.1584 57.6829 56.3507C57.4906 56.543 57.2556 56.6392 56.9778 56.6392ZM56.2245 66.7522V58.2579H57.747V66.7522H56.2245ZM67.5898 66.9124C66.9488 66.9124 66.3878 66.7896 65.907 66.5438C65.4262 66.2874 65.0255 65.9508 64.705 65.5341C64.3845 65.1067 64.144 64.6313 63.9838 64.1077C63.8235 63.5842 63.7434 63.05 63.7434 62.505C63.7434 61.9601 63.8235 61.4259 63.9838 60.9023C64.144 60.3788 64.3845 59.9087 64.705 59.492C65.0255 59.0646 65.4262 58.728 65.907 58.4823C66.3878 58.2258 66.9488 58.0976 67.5898 58.0976C68.1241 58.0976 68.5728 58.1831 68.9361 58.3541C69.2994 58.525 69.5932 58.728 69.8176 58.9631C70.042 59.1875 70.2129 59.4012 70.3304 59.6042H70.4266V54.5717H71.9492V66.7522H70.4266V65.4059H70.3304C70.2129 65.6089 70.042 65.828 69.8176 66.063C69.5932 66.2981 69.2994 66.5011 68.9361 66.672C68.5728 66.8323 68.1241 66.9124 67.5898 66.9124ZM67.8463 65.6143C68.4126 65.6143 68.8827 65.4647 69.2566 65.1655C69.6413 64.8557 69.9244 64.4657 70.1061 63.9955C70.2984 63.5147 70.3946 63.0179 70.3946 62.505C70.3946 61.9815 70.2984 61.4847 70.1061 61.0145C69.9244 60.5444 69.6413 60.1598 69.2566 59.8606C68.8827 59.5507 68.4126 59.3958 67.8463 59.3958C67.28 59.3958 66.8045 59.5507 66.4199 59.8606C66.0352 60.1598 65.7467 60.5444 65.5544 61.0145C65.3728 61.4847 65.282 61.9815 65.282 62.505C65.282 63.0179 65.3728 63.5147 65.5544 63.9955C65.7467 64.4657 66.0352 64.8557 66.4199 65.1655C66.8045 65.4647 67.28 65.6143 67.8463 65.6143ZM77.1314 66.9124C76.2873 66.9124 75.6142 66.6507 75.112 66.1271C74.6098 65.6036 74.3587 64.877 74.3587 63.9475V58.2579H75.8813V63.8673C75.8813 64.4229 76.0309 64.8503 76.33 65.1495C76.6399 65.4487 77.0459 65.5982 77.5481 65.5982C78.0609 65.5982 78.4723 65.4647 78.7821 65.1976C79.092 64.9304 79.3164 64.5885 79.4553 64.1718C79.5942 63.7551 79.6636 63.3278 79.6636 62.8897V58.2579H81.1862V66.7522H79.6636V65.5341H79.5675C79.5034 65.6623 79.3805 65.8386 79.1988 66.063C79.0172 66.2767 78.7608 66.4744 78.4296 66.656C78.0983 66.827 77.6656 66.9124 77.1314 66.9124ZM83.4365 66.7522V58.2579H84.959V59.492H85.0552C85.13 59.3638 85.2529 59.1875 85.4238 58.9631C85.6054 58.7387 85.8619 58.541 86.1931 58.3701C86.5243 58.1885 86.941 58.0976 87.4432 58.0976C88.0629 58.0976 88.5918 58.2419 89.0299 58.5304C89.4679 58.8082 89.7992 59.1875 90.0235 59.6683C90.2586 60.1491 90.3761 60.6887 90.3761 61.287V66.7522H88.8536V61.3832C88.8536 60.8169 88.6933 60.3467 88.3728 59.9728C88.0629 59.5988 87.6088 59.4118 87.0105 59.4118C86.5297 59.4118 86.1397 59.5347 85.8405 59.7805C85.5413 60.0155 85.317 60.3307 85.1674 60.7261C85.0285 61.1107 84.959 61.5221 84.959 61.9601V66.7522H83.4365ZM96.7106 70.1178C96.0055 70.1178 95.4178 70.0217 94.9477 69.8293C94.4776 69.6477 94.0983 69.4126 93.8098 69.1242C93.532 68.8464 93.3236 68.5686 93.1847 68.2908C93.0458 68.013 92.955 67.7779 92.9123 67.5856C92.8695 67.4039 92.8482 67.3131 92.8482 67.3131H94.3707C94.3707 67.3131 94.3974 67.3879 94.4508 67.5375C94.5043 67.6871 94.6058 67.858 94.7554 68.0504C94.9156 68.2427 95.1507 68.4136 95.4605 68.5632C95.7704 68.7128 96.1871 68.7876 96.7106 68.7876C97.3304 68.7876 97.8165 68.6647 98.1691 68.419C98.5217 68.1839 98.7728 67.8741 98.9224 67.4894C99.0826 67.1048 99.1628 66.6988 99.1628 66.2714V65.2937H99.0826C98.9758 65.4754 98.8048 65.6837 98.5698 65.9188C98.3454 66.1432 98.0462 66.3408 97.6723 66.5118C97.2983 66.672 96.8389 66.7522 96.2939 66.7522C95.6529 66.7522 95.0919 66.6293 94.6111 66.3836C94.1303 66.1378 93.7296 65.8066 93.4091 65.3899C93.0992 64.9732 92.8642 64.5084 92.7039 63.9955C92.5436 63.4827 92.4635 62.9591 92.4635 62.4249C92.4635 61.8907 92.5436 61.3671 92.7039 60.8543C92.8642 60.3414 93.0992 59.8766 93.4091 59.4599C93.7296 59.0432 94.1303 58.712 94.6111 58.4663C95.0919 58.2205 95.6529 58.0976 96.2939 58.0976C96.8389 58.0976 97.2983 58.1831 97.6723 58.3541C98.0462 58.5143 98.3454 58.7067 98.5698 58.931C98.8048 59.1554 98.9758 59.3638 99.0826 59.5561H99.1628V58.2579H100.685V66.2553C100.685 67.4413 100.338 68.3816 99.6436 69.0761C98.9598 69.7706 97.9821 70.1178 96.7106 70.1178ZM96.5824 65.454C97.1487 65.454 97.6188 65.3098 97.9928 65.0213C98.3774 64.7221 98.6606 64.3428 98.8422 63.8834C99.0345 63.4239 99.1307 62.9378 99.1307 62.4249C99.1307 61.912 99.0345 61.4259 98.8422 60.9665C98.6606 60.4963 98.3774 60.117 97.9928 59.8285C97.6188 59.5401 97.1487 59.3958 96.5824 59.3958C96.0161 59.3958 95.5407 59.5401 95.156 59.8285C94.7714 60.117 94.4829 60.4963 94.2906 60.9665C94.1089 61.4259 94.0181 61.912 94.0181 62.4249C94.0181 62.9378 94.1089 63.4239 94.2906 63.8834C94.4829 64.3428 94.7714 64.7221 95.156 65.0213C95.5407 65.3098 96.0161 65.454 96.5824 65.454ZM106.776 66.7522V54.5717H108.299V61.6556L111.681 58.2579H113.668L109.757 62.1204L113.748 66.7522H111.809L108.299 62.6653V66.7522H106.776ZM115.666 66.7522V54.5717H117.189V59.492H117.285C117.36 59.3638 117.483 59.1875 117.654 58.9631C117.835 58.7387 118.092 58.541 118.423 58.3701C118.754 58.1885 119.171 58.0976 119.673 58.0976C120.293 58.0976 120.822 58.2419 121.26 58.5304C121.698 58.8082 122.029 59.1875 122.253 59.6683C122.488 60.1491 122.606 60.6887 122.606 61.287V66.7522H121.083V61.3832C121.083 60.8169 120.923 60.3467 120.603 59.9728C120.293 59.5988 119.839 59.4118 119.24 59.4118C118.759 59.4118 118.369 59.5347 118.07 59.7805C117.771 60.0155 117.547 60.3307 117.397 60.7261C117.258 61.1107 117.189 61.5221 117.189 61.9601V66.7522H115.666ZM126.356 57.0238L128.296 54.3473H129.594L131.533 57.0238H130.155L128.937 55.3089L127.735 57.0238H126.356ZM128.953 66.9124C128.045 66.9124 127.281 66.7041 126.661 66.2874C126.041 65.86 125.571 65.3098 125.25 64.6366C124.93 63.9635 124.77 63.253 124.77 62.505C124.77 61.7464 124.93 61.0359 125.25 60.3735C125.571 59.7003 126.041 59.1554 126.661 58.7387C127.281 58.3113 128.045 58.0976 128.953 58.0976C129.861 58.0976 130.625 58.3113 131.245 58.7387C131.864 59.1554 132.334 59.7003 132.655 60.3735C132.975 61.0359 133.136 61.7464 133.136 62.505C133.136 63.253 132.975 63.9635 132.655 64.6366C132.334 65.3098 131.864 65.86 131.245 66.2874C130.625 66.7041 129.861 66.9124 128.953 66.9124ZM128.953 65.5822C129.53 65.5822 130.01 65.438 130.395 65.1495C130.79 64.8503 131.084 64.4657 131.277 63.9955C131.48 63.5254 131.581 63.0286 131.581 62.505C131.581 61.9708 131.48 61.474 131.277 61.0145C131.084 60.5444 130.79 60.1651 130.395 59.8766C130.01 59.5775 129.53 59.4279 128.953 59.4279C128.386 59.4279 127.906 59.5775 127.51 59.8766C127.115 60.1651 126.816 60.5444 126.613 61.0145C126.42 61.474 126.324 61.9708 126.324 62.505C126.324 63.0286 126.42 63.5254 126.613 63.9955C126.816 64.4657 127.115 64.8503 127.51 65.1495C127.906 65.438 128.386 65.5822 128.953 65.5822ZM135.305 66.7522V58.2579H136.827V59.492H136.924C136.998 59.3638 137.121 59.1875 137.292 58.9631C137.474 58.7387 137.73 58.541 138.061 58.3701C138.393 58.1885 138.809 58.0976 139.312 58.0976C139.931 58.0976 140.46 58.2419 140.898 58.5304C141.336 58.8082 141.668 59.1875 141.892 59.6683C142.127 60.1491 142.245 60.6887 142.245 61.287V66.7522H140.722V61.3832C140.722 60.8169 140.562 60.3467 140.241 59.9728C139.931 59.5988 139.477 59.4118 138.879 59.4118C138.398 59.4118 138.008 59.5347 137.709 59.7805C137.41 60.0155 137.185 60.3307 137.036 60.7261C136.897 61.1107 136.827 61.5221 136.827 61.9601V66.7522H135.305ZM148.579 70.1178C147.874 70.1178 147.286 70.0217 146.816 69.8293C146.346 69.6477 145.967 69.4126 145.678 69.1242C145.4 68.8464 145.192 68.5686 145.053 68.2908C144.914 68.013 144.823 67.7779 144.781 67.5856C144.738 67.4039 144.717 67.3131 144.717 67.3131H146.239C146.239 67.3131 146.266 67.3879 146.319 67.5375C146.373 67.6871 146.474 67.858 146.624 68.0504C146.784 68.2427 147.019 68.4136 147.329 68.5632C147.639 68.7128 148.056 68.7876 148.579 68.7876C149.199 68.7876 149.685 68.6647 150.037 68.419C150.39 68.1839 150.641 67.8741 150.791 67.4894C150.951 67.1048 151.031 66.6988 151.031 66.2714V65.2937H150.951C150.844 65.4754 150.673 65.6837 150.438 65.9188C150.214 66.1432 149.915 66.3408 149.541 66.5118C149.167 66.672 148.707 66.7522 148.162 66.7522C147.521 66.7522 146.96 66.6293 146.48 66.3836C145.999 66.1378 145.598 65.8066 145.277 65.3899C144.968 64.9732 144.733 64.5084 144.572 63.9955C144.412 63.4827 144.332 62.9591 144.332 62.4249C144.332 61.8907 144.412 61.3671 144.572 60.8543C144.733 60.3414 144.968 59.8766 145.277 59.4599C145.598 59.0432 145.999 58.712 146.48 58.4663C146.96 58.2205 147.521 58.0976 148.162 58.0976C148.707 58.0976 149.167 58.1831 149.541 58.3541C149.915 58.5143 150.214 58.7067 150.438 58.931C150.673 59.1554 150.844 59.3638 150.951 59.5561H151.031V58.2579H152.554V66.2553C152.554 67.4413 152.206 68.3816 151.512 69.0761C150.828 69.7706 149.851 70.1178 148.579 70.1178ZM148.451 65.454C149.017 65.454 149.487 65.3098 149.861 65.0213C150.246 64.7221 150.529 64.3428 150.711 63.8834C150.903 63.4239 150.999 62.9378 150.999 62.4249C150.999 61.912 150.903 61.4259 150.711 60.9665C150.529 60.4963 150.246 60.117 149.861 59.8285C149.487 59.5401 149.017 59.3958 148.451 59.3958C147.885 59.3958 147.409 59.5401 147.024 59.8285C146.64 60.117 146.351 60.4963 146.159 60.9665C145.977 61.4259 145.887 61.912 145.887 62.4249C145.887 62.9378 145.977 63.4239 146.159 63.8834C146.351 64.3428 146.64 64.7221 147.024 65.0213C147.409 65.3098 147.885 65.454 148.451 65.454ZM162.09 66.9124C161.214 66.9124 160.552 66.6881 160.103 66.2393C159.665 65.7906 159.446 65.1602 159.446 64.3481V59.508H157.923V58.2579H159.446V56.1263H160.969V58.2579H163.036V59.508H160.969V64.3481C160.969 64.7755 161.086 65.0907 161.321 65.2937C161.556 65.486 161.898 65.5822 162.347 65.5822C162.582 65.5822 162.806 65.5662 163.02 65.5341C163.234 65.5021 163.341 65.486 163.341 65.486V66.7842C163.341 66.7842 163.218 66.8056 162.972 66.8483C162.726 66.8911 162.432 66.9124 162.09 66.9124ZM165.34 66.7522V58.2579H166.862V59.3157H166.926C167.108 58.9951 167.375 58.712 167.728 58.4663C168.08 58.2205 168.577 58.0976 169.218 58.0976C169.4 58.0976 169.565 58.1083 169.715 58.1297C169.865 58.1404 169.939 58.1457 169.939 58.1457V59.6042C169.939 59.6042 169.854 59.5988 169.683 59.5881C169.523 59.5668 169.352 59.5561 169.17 59.5561C168.433 59.5561 167.861 59.7698 167.455 60.1972C167.06 60.6139 166.862 61.2977 166.862 62.2486V66.7522H165.34ZM174.661 56.9757L173.01 54.0749H174.581L175.959 56.9597L174.661 56.9757ZM174.629 66.9124C173.785 66.9124 173.112 66.6507 172.61 66.1271C172.107 65.6036 171.856 64.877 171.856 63.9475V58.2579H173.379V63.8673C173.379 64.4229 173.528 64.8503 173.828 65.1495C174.137 65.4487 174.543 65.5982 175.046 65.5982C175.559 65.5982 175.97 65.4647 176.28 65.1976C176.59 64.9304 176.814 64.5885 176.953 64.1718C177.092 63.7551 177.161 63.3278 177.161 62.8897V58.2579H178.684V66.7522H177.161V65.5341H177.065C177.001 65.6623 176.878 65.8386 176.696 66.063C176.515 66.2767 176.258 66.4744 175.927 66.656C175.596 66.827 175.163 66.9124 174.629 66.9124ZM181.085 66.7522V58.2579H182.607V59.492H182.704C182.778 59.3638 182.901 59.1875 183.072 58.9631C183.254 58.7387 183.51 58.541 183.842 58.3701C184.173 58.1885 184.589 58.0976 185.092 58.0976C185.711 58.0976 186.24 58.2419 186.678 58.5304C187.116 58.8082 187.448 59.1875 187.672 59.6683C187.907 60.1491 188.025 60.6887 188.025 61.287V66.7522H186.502V61.3832C186.502 60.8169 186.342 60.3467 186.021 59.9728C185.711 59.5988 185.257 59.4118 184.659 59.4118C184.178 59.4118 183.788 59.5347 183.489 59.7805C183.19 60.0155 182.965 60.3307 182.816 60.7261C182.677 61.1107 182.607 61.5221 182.607 61.9601V66.7522H181.085ZM194.359 70.1178C193.654 70.1178 193.066 70.0217 192.596 69.8293C192.126 69.6477 191.747 69.4126 191.458 69.1242C191.18 68.8464 190.972 68.5686 190.833 68.2908C190.694 68.013 190.603 67.7779 190.561 67.5856C190.518 67.4039 190.497 67.3131 190.497 67.3131H192.019C192.019 67.3131 192.046 67.3879 192.099 67.5375C192.153 67.6871 192.254 67.858 192.404 68.0504C192.564 68.2427 192.799 68.4136 193.109 68.5632C193.419 68.7128 193.836 68.7876 194.359 68.7876C194.979 68.7876 195.465 68.6647 195.818 68.419C196.17 68.1839 196.421 67.8741 196.571 67.4894C196.731 67.1048 196.811 66.6988 196.811 66.2714V65.2937H196.731C196.624 65.4754 196.453 65.6837 196.218 65.9188C195.994 66.1432 195.695 66.3408 195.321 66.5118C194.947 66.672 194.487 66.7522 193.942 66.7522C193.301 66.7522 192.74 66.6293 192.26 66.3836C191.779 66.1378 191.378 65.8066 191.058 65.3899C190.748 64.9732 190.513 64.5084 190.352 63.9955C190.192 63.4827 190.112 62.9591 190.112 62.4249C190.112 61.8907 190.192 61.3671 190.352 60.8543C190.513 60.3414 190.748 59.8766 191.058 59.4599C191.378 59.0432 191.779 58.712 192.26 58.4663C192.74 58.2205 193.301 58.0976 193.942 58.0976C194.487 58.0976 194.947 58.1831 195.321 58.3541C195.695 58.5143 195.994 58.7067 196.218 58.931C196.453 59.1554 196.624 59.3638 196.731 59.5561H196.811V58.2579H198.334V66.2553C198.334 67.4413 197.987 68.3816 197.292 69.0761C196.608 69.7706 195.631 70.1178 194.359 70.1178ZM194.231 65.454C194.797 65.454 195.267 65.3098 195.641 65.0213C196.026 64.7221 196.309 64.3428 196.491 63.8834C196.683 63.4239 196.779 62.9378 196.779 62.4249C196.779 61.912 196.683 61.4259 196.491 60.9665C196.309 60.4963 196.026 60.117 195.641 59.8285C195.267 59.5401 194.797 59.3958 194.231 59.3958C193.665 59.3958 193.189 59.5401 192.804 59.8285C192.42 60.117 192.131 60.4963 191.939 60.9665C191.757 61.4259 191.667 61.912 191.667 62.4249C191.667 62.9378 191.757 63.4239 191.939 63.8834C192.131 64.3428 192.42 64.7221 192.804 65.0213C193.189 65.3098 193.665 65.454 194.231 65.454ZM204.425 66.7522L204.441 54.5717H205.947V66.7522H204.425ZM212.468 57.0559C211.956 57.0559 211.533 56.9757 211.202 56.8155C210.882 56.6445 210.631 56.4415 210.449 56.2065C210.267 55.9607 210.139 55.7203 210.064 55.4852C209.99 55.2395 209.941 55.0365 209.92 54.8762C209.909 54.7053 209.904 54.6198 209.904 54.6198H211.042C211.042 54.6198 211.053 54.6946 211.074 54.8442C211.095 54.9831 211.144 55.1433 211.218 55.325C211.304 55.5066 211.443 55.6722 211.635 55.8218C211.838 55.9607 212.116 56.0302 212.468 56.0302C212.821 56.0302 213.093 55.9607 213.286 55.8218C213.489 55.6722 213.628 55.5066 213.702 55.325C213.788 55.1433 213.841 54.9831 213.863 54.8442C213.884 54.6946 213.895 54.6198 213.895 54.6198H215.033C215.033 54.6198 215.022 54.7053 215.001 54.8762C214.99 55.0365 214.947 55.2395 214.872 55.4852C214.798 55.7203 214.669 55.9607 214.488 56.2065C214.306 56.4415 214.05 56.6445 213.718 56.8155C213.398 56.9757 212.981 57.0559 212.468 57.0559ZM212.116 58.0976C212.65 58.0976 213.099 58.1831 213.462 58.3541C213.825 58.525 214.119 58.728 214.344 58.9631C214.568 59.1875 214.739 59.4012 214.856 59.6042H214.953V58.2579H216.475V66.7522H214.953V65.4059H214.856C214.739 65.6089 214.568 65.828 214.344 66.063C214.119 66.2981 213.825 66.5011 213.462 66.672C213.099 66.8323 212.65 66.9124 212.116 66.9124C211.475 66.9124 210.914 66.7896 210.433 66.5438C209.952 66.2874 209.551 65.9508 209.231 65.5341C208.91 65.1067 208.67 64.6313 208.51 64.1077C208.349 63.5842 208.269 63.05 208.269 62.505C208.269 61.9601 208.349 61.4259 208.51 60.9023C208.67 60.3788 208.91 59.9087 209.231 59.492C209.551 59.0646 209.952 58.728 210.433 58.4823C210.914 58.2258 211.475 58.0976 212.116 58.0976ZM212.372 59.3958C211.806 59.3958 211.33 59.5507 210.946 59.8606C210.561 60.1598 210.273 60.5444 210.08 61.0145C209.899 61.4847 209.808 61.9815 209.808 62.505C209.808 63.0179 209.899 63.5147 210.08 63.9955C210.273 64.4657 210.561 64.8557 210.946 65.1655C211.33 65.4647 211.806 65.6143 212.372 65.6143C212.939 65.6143 213.409 65.4647 213.783 65.1655C214.167 64.8557 214.45 64.4657 214.632 63.9955C214.824 63.5147 214.921 63.0179 214.921 62.505C214.921 61.9815 214.824 61.4847 214.632 61.0145C214.45 60.5444 214.167 60.1598 213.783 59.8606C213.409 59.5507 212.939 59.3958 212.372 59.3958ZM212.468 70.3903C212.169 70.3903 211.918 70.2834 211.715 70.0698C211.523 69.8667 211.427 69.6263 211.427 69.3485C211.427 69.0601 211.523 68.8143 211.715 68.6113C211.918 68.4083 212.169 68.3068 212.468 68.3068C212.768 68.3068 213.013 68.4083 213.206 68.6113C213.409 68.8143 213.51 69.0601 213.51 69.3485C213.51 69.637 213.409 69.8828 213.206 70.0858C213.013 70.2888 212.768 70.3903 212.468 70.3903ZM218.98 69.8935V58.2579H220.503V59.6042H220.599C220.727 59.4012 220.898 59.1821 221.112 58.9471C221.336 58.712 221.63 58.5143 221.994 58.3541C222.357 58.1831 222.806 58.0976 223.34 58.0976C223.981 58.0976 224.542 58.2258 225.023 58.4823C225.503 58.728 225.904 59.0646 226.225 59.492C226.545 59.9087 226.786 60.3788 226.946 60.9023C227.106 61.4259 227.186 61.9601 227.186 62.505C227.186 63.05 227.106 63.5842 226.946 64.1077C226.786 64.6313 226.545 65.1067 226.225 65.5341C225.904 65.9508 225.503 66.2874 225.023 66.5438C224.542 66.7896 223.981 66.9124 223.34 66.9124C222.806 66.9124 222.357 66.827 221.994 66.656C221.63 66.4851 221.336 66.2821 221.112 66.047C220.898 65.8119 220.727 65.5982 220.599 65.4059H220.503V69.8935H218.98ZM220.535 62.505C220.535 63.0179 220.626 63.5147 220.808 63.9955C221 64.4657 221.283 64.8557 221.657 65.1655C222.042 65.4647 222.517 65.6143 223.083 65.6143C223.66 65.6143 224.136 65.4647 224.51 65.1655C224.894 64.8557 225.178 64.4657 225.359 63.9955C225.552 63.5147 225.648 63.0179 225.648 62.505C225.648 61.9815 225.552 61.4847 225.359 61.0145C225.178 60.5444 224.894 60.1598 224.51 59.8606C224.136 59.5507 223.66 59.3958 223.083 59.3958C222.517 59.3958 222.042 59.5507 221.657 59.8606C221.283 60.1598 221 60.5444 220.808 61.0145C220.626 61.4847 220.535 61.9815 220.535 62.505ZM230.445 66.9124C230.146 66.9124 229.895 66.8109 229.692 66.6079C229.5 66.3942 229.403 66.1485 229.403 65.8707C229.403 65.5822 229.5 65.3365 229.692 65.1335C229.895 64.9304 230.146 64.8289 230.445 64.8289C230.744 64.8289 230.99 64.9304 231.182 65.1335C231.385 65.3365 231.487 65.5822 231.487 65.8707C231.487 66.1592 231.385 66.4049 231.182 66.6079C230.99 66.8109 230.744 66.9124 230.445 66.9124ZM3.94264 92.7959V82.3143H0.240424V80.936H9.2155V82.3143H5.51328V92.7959H3.94264ZM16.805 81.0161L15.5068 81.0001L16.8851 78.1153H18.4558L16.805 81.0161ZM11.1315 83.0676L13.0707 80.7116H14.3689L16.3082 83.0676H14.9299L13.7118 81.5931L12.5098 83.0676H11.1315ZM13.7278 92.9562C12.8196 92.9562 12.0557 92.7479 11.436 92.3312C10.8163 91.9038 10.3462 91.3535 10.0256 90.6804C9.70508 90.0073 9.54481 89.2967 9.54481 88.5488C9.54481 87.7902 9.70508 87.0797 10.0256 86.4172C10.3462 85.7441 10.8163 85.1992 11.436 84.7825C12.0557 84.3551 12.8196 84.1414 13.7278 84.1414C14.636 84.1414 15.4 84.3551 16.0197 84.7825C16.6394 85.1992 17.1095 85.7441 17.4301 86.4172C17.7506 87.0797 17.9109 87.7902 17.9109 88.5488C17.9109 89.2967 17.7506 90.0073 17.4301 90.6804C17.1095 91.3535 16.6394 91.9038 16.0197 92.3312C15.4 92.7479 14.636 92.9562 13.7278 92.9562ZM13.7278 91.626C14.3048 91.626 14.7856 91.4817 15.1703 91.1932C15.5656 90.8941 15.8594 90.5094 16.0517 90.0393C16.2547 89.5692 16.3563 89.0723 16.3563 88.5488C16.3563 88.0146 16.2547 87.5177 16.0517 87.0583C15.8594 86.5882 15.5656 86.2089 15.1703 85.9204C14.7856 85.6212 14.3048 85.4716 13.7278 85.4716C13.1616 85.4716 12.6807 85.6212 12.2854 85.9204C11.8901 86.2089 11.5909 86.5882 11.3879 87.0583C11.1956 87.5177 11.0994 88.0146 11.0994 88.5488C11.0994 89.0723 11.1956 89.5692 11.3879 90.0393C11.5909 90.5094 11.8901 90.8941 12.2854 91.1932C12.6807 91.4817 13.1616 91.626 13.7278 91.626ZM21.0737 82.6829C20.7852 82.6829 20.5448 82.5868 20.3525 82.3945C20.1708 82.2021 20.08 81.9724 20.08 81.7053C20.08 81.4275 20.1708 81.1924 20.3525 81.0001C20.5448 80.8078 20.7852 80.7116 21.0737 80.7116C21.3515 80.7116 21.5865 80.8078 21.7789 81.0001C21.9712 81.1924 22.0673 81.4275 22.0673 81.7053C22.0673 81.9724 21.9712 82.2021 21.7789 82.3945C21.5865 82.5868 21.3515 82.6829 21.0737 82.6829ZM20.3204 92.7959V84.3017H21.843V92.7959H20.3204ZM30.7722 92.9562C29.9281 92.9562 29.255 92.6944 28.7528 92.1709C28.2507 91.6473 27.9996 90.9208 27.9996 89.9912V84.3017H29.5221V89.9111C29.5221 90.4667 29.6717 90.8941 29.9709 91.1932C30.2807 91.4924 30.6867 91.642 31.1889 91.642C31.7018 91.642 32.1131 91.5084 32.423 91.2413C32.7329 90.9742 32.9572 90.6323 33.0961 90.2156C33.235 89.7989 33.3045 89.3715 33.3045 88.9334V84.3017H34.6027C35.0194 84.3017 35.2277 84.0826 35.2277 83.6446V82.6829H36.574V83.6446C36.574 84.1361 36.4458 84.5314 36.1893 84.8306C35.9329 85.1297 35.5429 85.2793 35.0194 85.2793H34.827V92.7959H33.3045V91.5779H33.2083C33.1442 91.7061 33.0213 91.8824 32.8397 92.1068C32.6581 92.3205 32.4016 92.5181 32.0704 92.6998C31.7392 92.8707 31.3065 92.9562 30.7722 92.9562ZM40.4917 92.9562C39.6476 92.9562 38.9745 92.6944 38.4723 92.1709C37.9701 91.6473 37.719 90.9208 37.719 89.9912V84.3017H39.2416V89.9111C39.2416 90.4667 39.3912 90.8941 39.6903 91.1932C40.0002 91.4924 40.4062 91.642 40.9084 91.642C41.4212 91.642 41.8326 91.5084 42.1425 91.2413C42.4523 90.9742 42.6767 90.6323 42.8156 90.2156C42.9545 89.7989 43.0239 89.3715 43.0239 88.9334V84.3017H44.5465V92.7959H43.0239V91.5779H42.9278C42.8637 91.7061 42.7408 91.8824 42.5592 92.1068C42.3775 92.3205 42.1211 92.5181 41.7899 92.6998C41.4586 92.8707 41.0259 92.9562 40.4917 92.9562ZM54.0965 92.9562C53.2204 92.9562 52.558 92.7318 52.1092 92.2831C51.6711 91.8343 51.4521 91.2039 51.4521 90.3919V85.5518H49.9295V84.3017H51.4521V82.1701H52.9747V84.3017H55.0421V85.5518H52.9747V90.3919C52.9747 90.8193 53.0922 91.1345 53.3272 91.3375C53.5623 91.5298 53.9042 91.626 54.353 91.626C54.588 91.626 54.8124 91.6099 55.0261 91.5779C55.2398 91.5458 55.3466 91.5298 55.3466 91.5298V92.828C55.3466 92.828 55.2238 92.8494 54.978 92.8921C54.7323 92.9348 54.4384 92.9562 54.0965 92.9562ZM58.3394 82.6829C58.0509 82.6829 57.8105 82.5868 57.6182 82.3945C57.4366 82.2021 57.3458 81.9724 57.3458 81.7053C57.3458 81.4275 57.4366 81.1924 57.6182 81.0001C57.8105 80.8078 58.0509 80.7116 58.3394 80.7116C58.6172 80.7116 58.8523 80.8078 59.0446 81.0001C59.2369 81.1924 59.3331 81.4275 59.3331 81.7053C59.3331 81.9724 59.2369 82.2021 59.0446 82.3945C58.8523 82.5868 58.6172 82.6829 58.3394 82.6829ZM57.5862 92.7959V84.3017H59.1087V92.7959H57.5862ZM62.8698 83.0996L64.809 80.4231H66.1072L68.0465 83.0996H66.6682L65.4501 81.3848L64.2481 83.0996H62.8698ZM65.5142 92.9562C64.8197 92.9562 64.216 92.8333 63.7032 92.5876C63.201 92.3312 62.7843 91.9892 62.4531 91.5619C62.1325 91.1345 61.8921 90.6644 61.7319 90.1515C61.5716 89.6279 61.4915 89.0937 61.4915 88.5488C61.4915 88.0146 61.5663 87.4857 61.7158 86.9621C61.8761 86.4386 62.1165 85.9631 62.4371 85.5357C62.7683 85.1084 63.1796 84.7718 63.6711 84.526C64.1733 84.2696 64.7663 84.1414 65.4501 84.1414C66.1767 84.1414 66.8177 84.307 67.3733 84.6382C67.9289 84.9695 68.367 85.4609 68.6876 86.1127C69.0081 86.7645 69.1684 87.5818 69.1684 88.5648V89.0136H63.0301C63.0621 89.4944 63.1743 89.9378 63.3666 90.3438C63.5696 90.7391 63.8528 91.0597 64.216 91.3054C64.5793 91.5405 65.012 91.658 65.5142 91.658C65.9523 91.658 66.3049 91.5886 66.572 91.4497C66.8498 91.3001 67.0688 91.1291 67.2291 90.9368C67.3894 90.7445 67.4962 90.5789 67.5496 90.44C67.6138 90.2904 67.6458 90.2156 67.6458 90.2156H69.0722C69.0722 90.2156 69.0455 90.3118 68.9921 90.5041C68.9386 90.6857 68.8425 90.9101 68.7036 91.1772C68.5647 91.4443 68.3617 91.7168 68.0946 91.9946C67.8274 92.2617 67.4855 92.4914 67.0688 92.6837C66.6521 92.8654 66.1339 92.9562 65.5142 92.9562ZM63.0461 87.8276H67.6779C67.6565 87.272 67.539 86.8232 67.3253 86.4813C67.1116 86.1287 66.8391 85.867 66.5079 85.696C66.1767 85.5251 65.8241 85.4396 65.4501 85.4396C64.777 85.4396 64.2267 85.6586 63.7993 86.0967C63.372 86.5241 63.1209 87.101 63.0461 87.8276ZM74.1107 92.9562C73.2666 92.9562 72.5935 92.6944 72.0913 92.1709C71.5891 91.6473 71.338 90.9208 71.338 89.9912V84.3017H72.8606V89.9111C72.8606 90.4667 73.0102 90.8941 73.3093 91.1932C73.6192 91.4924 74.0252 91.642 74.5274 91.642C75.0402 91.642 75.4516 91.5084 75.7614 91.2413C76.0713 90.9742 76.2957 90.6323 76.4346 90.2156C76.5735 89.7989 76.6429 89.3715 76.6429 88.9334V84.3017H78.1655V92.7959H76.6429V91.5779H76.5468C76.4827 91.7061 76.3598 91.8824 76.1781 92.1068C75.9965 92.3205 75.7401 92.5181 75.4089 92.6998C75.0776 92.8707 74.6449 92.9562 74.1107 92.9562ZM87.7957 92.9562C87.1546 92.9562 86.5936 92.8333 86.1128 92.5876C85.632 92.3312 85.2314 91.9946 84.9108 91.5779C84.5903 91.1505 84.3499 90.675 84.1896 90.1515C84.0293 89.6279 83.9492 89.0937 83.9492 88.5488C83.9492 88.0039 84.0293 87.4697 84.1896 86.9461C84.3499 86.4226 84.5903 85.9524 84.9108 85.5357C85.2314 85.1084 85.632 84.7718 86.1128 84.526C86.5936 84.2696 87.1546 84.1414 87.7957 84.1414C88.3299 84.1414 88.7786 84.2269 89.1419 84.3978C89.5052 84.5688 89.799 84.7718 90.0234 85.0068C90.2478 85.2312 90.4187 85.4449 90.5363 85.6479H90.6324V83.3721H88.4047V82.1541H90.6324V80.6155H92.155V82.1541H93.6134V83.3721H92.155V92.7959H90.6324V91.4497H90.5363C90.4187 91.6527 90.2478 91.8717 90.0234 92.1068C89.799 92.3418 89.5052 92.5448 89.1419 92.7158C88.7786 92.8761 88.3299 92.9562 87.7957 92.9562ZM88.0521 91.658C88.6184 91.658 89.0885 91.5084 89.4625 91.2093C89.8471 90.8994 90.1303 90.5094 90.3119 90.0393C90.5042 89.5585 90.6004 89.0617 90.6004 88.5488C90.6004 88.0253 90.5042 87.5284 90.3119 87.0583C90.1303 86.5882 89.8471 86.2035 89.4625 85.9044C89.0885 85.5945 88.6184 85.4396 88.0521 85.4396C87.4858 85.4396 87.0103 85.5945 86.6257 85.9044C86.2411 86.2035 85.9526 86.5882 85.7602 87.0583C85.5786 87.5284 85.4878 88.0253 85.4878 88.5488C85.4878 89.0617 85.5786 89.5585 85.7602 90.0393C85.9526 90.5094 86.2411 90.8994 86.6257 91.2093C87.0103 91.5084 87.4858 91.658 88.0521 91.658ZM101.108 81.0482L99.4575 78.1473H101.028L102.406 81.0322L101.108 81.0482ZM96.3323 83.0996L98.2715 80.7437H99.5697L101.509 83.0996H100.131L98.9126 81.6252L97.7106 83.0996H96.3323ZM98.9767 92.9562C98.2822 92.9562 97.6785 92.8333 97.1657 92.5876C96.6635 92.3312 96.2468 91.9892 95.9156 91.5619C95.595 91.1345 95.3546 90.6644 95.1943 90.1515C95.0341 89.6279 94.9539 89.0937 94.9539 88.5488C94.9539 88.0146 95.0287 87.4857 95.1783 86.9621C95.3386 86.4386 95.579 85.9631 95.8995 85.5357C96.2308 85.1084 96.6421 84.7718 97.1336 84.526C97.6358 84.2696 98.2288 84.1414 98.9126 84.1414C99.6391 84.1414 100.28 84.307 100.836 84.6382C101.391 84.9695 101.829 85.4609 102.15 86.1127C102.471 86.7645 102.631 87.5818 102.631 88.5648V89.0136H96.4925C96.5246 89.4944 96.6368 89.9378 96.8291 90.3438C97.0321 90.7391 97.3152 91.0597 97.6785 91.3054C98.0418 91.5405 98.4745 91.658 98.9767 91.658C99.4148 91.658 99.7674 91.5886 100.034 91.4497C100.312 91.3001 100.531 91.1291 100.692 90.9368C100.852 90.7445 100.959 90.5789 101.012 90.44C101.076 90.2904 101.108 90.2156 101.108 90.2156H102.535C102.535 90.2156 102.508 90.3118 102.455 90.5041C102.401 90.6857 102.305 90.9101 102.166 91.1772C102.027 91.4443 101.824 91.7168 101.557 91.9946C101.29 92.2617 100.948 92.4914 100.531 92.6837C100.115 92.8654 99.5964 92.9562 98.9767 92.9562ZM96.5086 87.8276H101.14C101.119 87.272 101.001 86.8232 100.788 86.4813C100.574 86.1287 100.302 85.867 99.9704 85.696C99.6391 85.5251 99.2866 85.4396 98.9126 85.4396C98.2395 85.4396 97.6892 85.6586 97.2618 86.0967C96.8344 86.5241 96.5833 87.101 96.5086 87.8276ZM105.57 88.4206V87.1384H112.718V88.4206H105.57ZM120.245 92.9562C119.71 92.9562 119.262 92.8707 118.898 92.6998C118.535 92.5288 118.241 92.3258 118.017 92.0908C117.803 91.8557 117.632 91.642 117.504 91.4497H117.408V92.7959H115.885V80.6155H117.408V85.6479H117.504C117.632 85.4449 117.803 85.2259 118.017 84.9908C118.241 84.7558 118.535 84.5581 118.898 84.3978C119.262 84.2269 119.71 84.1414 120.245 84.1414C120.886 84.1414 121.447 84.2696 121.928 84.526C122.408 84.7718 122.809 85.1084 123.13 85.5357C123.45 85.9524 123.69 86.4226 123.851 86.9461C124.011 87.4697 124.091 88.0039 124.091 88.5488C124.091 89.0937 124.011 89.6279 123.851 90.1515C123.69 90.675 123.45 91.1505 123.13 91.5779C122.809 91.9946 122.408 92.3312 121.928 92.5876C121.447 92.8333 120.886 92.9562 120.245 92.9562ZM119.988 91.658C120.565 91.658 121.041 91.5084 121.415 91.2093C121.799 90.8994 122.082 90.5094 122.264 90.0393C122.456 89.5585 122.553 89.0617 122.553 88.5488C122.553 88.0253 122.456 87.5284 122.264 87.0583C122.082 86.5882 121.799 86.2035 121.415 85.9044C121.041 85.5945 120.565 85.4396 119.988 85.4396C119.422 85.4396 118.947 85.5945 118.562 85.9044C118.188 86.2035 117.905 86.5882 117.712 87.0583C117.531 87.5284 117.44 88.0253 117.44 88.5488C117.44 89.0617 117.531 89.5585 117.712 90.0393C117.905 90.5094 118.188 90.8994 118.562 91.2093C118.947 91.5084 119.422 91.658 119.988 91.658ZM133.282 81.0161L131.984 81.0001L133.362 78.1153H134.933L133.282 81.0161ZM127.608 83.0676L129.548 80.7116H130.846L132.785 83.0676H131.407L130.189 81.5931L128.987 83.0676H127.608ZM130.205 92.9562C129.297 92.9562 128.533 92.7479 127.913 92.3312C127.293 91.9038 126.823 91.3535 126.503 90.6804C126.182 90.0073 126.022 89.2967 126.022 88.5488C126.022 87.7902 126.182 87.0797 126.503 86.4172C126.823 85.7441 127.293 85.1992 127.913 84.7825C128.533 84.3551 129.297 84.1414 130.205 84.1414C131.113 84.1414 131.877 84.3551 132.497 84.7825C133.116 85.1992 133.586 85.7441 133.907 86.4172C134.228 87.0797 134.388 87.7902 134.388 88.5488C134.388 89.2967 134.228 90.0073 133.907 90.6804C133.586 91.3535 133.116 91.9038 132.497 92.3312C131.877 92.7479 131.113 92.9562 130.205 92.9562ZM130.205 91.626C130.782 91.626 131.263 91.4817 131.647 91.1932C132.043 90.8941 132.336 90.5094 132.529 90.0393C132.732 89.5692 132.833 89.0723 132.833 88.5488C132.833 88.0146 132.732 87.5177 132.529 87.0583C132.336 86.5882 132.043 86.2089 131.647 85.9204C131.263 85.6212 130.782 85.4716 130.205 85.4716C129.639 85.4716 129.158 85.6212 128.762 85.9204C128.367 86.2089 128.068 86.5882 127.865 87.0583C127.673 87.5177 127.576 88.0146 127.576 88.5488C127.576 89.0723 127.673 89.5692 127.865 90.0393C128.068 90.5094 128.367 90.8941 128.762 91.1932C129.158 91.4817 129.639 91.626 130.205 91.626ZM144.273 92.9562C143.579 92.9562 142.97 92.8333 142.446 92.5876C141.923 92.3312 141.485 91.9946 141.132 91.5779C140.79 91.1505 140.528 90.675 140.347 90.1515C140.176 89.6279 140.09 89.0937 140.09 88.5488C140.09 88.0039 140.176 87.475 140.347 86.9621C140.518 86.4386 140.774 85.9631 141.116 85.5357C141.469 85.1084 141.907 84.7718 142.43 84.526C142.954 84.2696 143.568 84.1414 144.273 84.1414C144.957 84.1414 145.524 84.2429 145.972 84.4459C146.421 84.6489 146.779 84.9053 147.046 85.2152C147.324 85.5144 147.527 85.8189 147.655 86.1287C147.794 86.4279 147.885 86.679 147.928 86.882C147.97 87.085 147.992 87.1865 147.992 87.1865H146.517C146.517 87.1865 146.49 87.101 146.437 86.9301C146.384 86.7484 146.282 86.5454 146.133 86.3211C145.983 86.0967 145.759 85.899 145.459 85.7281C145.16 85.5464 144.765 85.4556 144.273 85.4556C143.686 85.4556 143.189 85.6052 142.783 85.9044C142.388 86.1928 142.088 86.5721 141.885 87.0423C141.693 87.5124 141.597 88.0146 141.597 88.5488C141.597 89.083 141.693 89.5852 141.885 90.0553C142.088 90.5255 142.388 90.9101 142.783 91.2093C143.189 91.4978 143.686 91.642 144.273 91.642C144.765 91.642 145.16 91.5565 145.459 91.3856C145.759 91.2039 145.983 91.0009 146.133 90.7765C146.282 90.5522 146.384 90.3545 146.437 90.1835C146.49 90.0019 146.517 89.9111 146.517 89.9111H147.992C147.992 89.9111 147.97 90.0126 147.928 90.2156C147.885 90.4186 147.794 90.675 147.655 90.9849C147.527 91.2841 147.324 91.5886 147.046 91.8984C146.779 92.1976 146.421 92.4487 145.972 92.6517C145.524 92.8547 144.957 92.9562 144.273 92.9562ZM153.093 92.9562C152.249 92.9562 151.576 92.6944 151.073 92.1709C150.571 91.6473 150.32 90.9208 150.32 89.9912V84.3017H151.843V89.9111C151.843 90.4667 151.992 90.8941 152.291 91.1932C152.601 91.4924 153.007 91.642 153.509 91.642C154.022 91.642 154.434 91.5084 154.744 91.2413C155.053 90.9742 155.278 90.6323 155.417 90.2156C155.556 89.7989 155.625 89.3715 155.625 88.9334V84.3017H157.148V92.7959H155.625V91.5779H155.529C155.465 91.7061 155.342 91.8824 155.16 92.1068C154.979 92.3205 154.722 92.5181 154.391 92.6998C154.06 92.8707 153.627 92.9562 153.093 92.9562ZM153.702 96.434C153.403 96.434 153.152 96.3272 152.949 96.1135C152.756 95.9105 152.66 95.6701 152.66 95.3923C152.66 95.1038 152.756 94.8581 152.949 94.6551C153.152 94.4521 153.403 94.3505 153.702 94.3505C154.001 94.3505 154.247 94.4521 154.439 94.6551C154.642 94.8581 154.744 95.1038 154.744 95.3923C154.744 95.6808 154.642 95.9265 154.439 96.1295C154.247 96.3325 154.001 96.434 153.702 96.434ZM163.571 92.9562C162.877 92.9562 162.268 92.8333 161.744 92.5876C161.221 92.3312 160.783 91.9946 160.43 91.5779C160.088 91.1505 159.827 90.675 159.645 90.1515C159.474 89.6279 159.388 89.0937 159.388 88.5488C159.388 88.0039 159.474 87.475 159.645 86.9621C159.816 86.4386 160.072 85.9631 160.414 85.5357C160.767 85.1084 161.205 84.7718 161.728 84.526C162.252 84.2696 162.866 84.1414 163.571 84.1414C164.255 84.1414 164.822 84.2429 165.27 84.4459C165.719 84.6489 166.077 84.9053 166.344 85.2152C166.622 85.5144 166.825 85.8189 166.953 86.1287C167.092 86.4279 167.183 86.679 167.226 86.882C167.268 87.085 167.29 87.1865 167.29 87.1865H165.815C165.815 87.1865 165.789 87.101 165.735 86.9301C165.682 86.7484 165.58 86.5454 165.431 86.3211C165.281 86.0967 165.057 85.899 164.757 85.7281C164.458 85.5464 164.063 85.4556 163.571 85.4556C162.984 85.4556 162.487 85.6052 162.081 85.9044C161.686 86.1928 161.386 86.5721 161.183 87.0423C160.991 87.5124 160.895 88.0146 160.895 88.5488C160.895 89.083 160.991 89.5852 161.183 90.0553C161.386 90.5255 161.686 90.9101 162.081 91.2093C162.487 91.4978 162.984 91.642 163.571 91.642C164.063 91.642 164.458 91.5565 164.757 91.3856C165.057 91.2039 165.281 91.0009 165.431 90.7765C165.58 90.5522 165.682 90.3545 165.735 90.1835C165.789 90.0019 165.815 89.9111 165.815 89.9111H167.29C167.29 89.9111 167.268 90.0126 167.226 90.2156C167.183 90.4186 167.092 90.675 166.953 90.9849C166.825 91.2841 166.622 91.5886 166.344 91.8984C166.077 92.1976 165.719 92.4487 165.27 92.6517C164.822 92.8547 164.255 92.9562 163.571 92.9562ZM170.548 92.9562C170.249 92.9562 169.997 92.8547 169.794 92.6517C169.602 92.438 169.506 92.1923 169.506 91.9145C169.506 91.626 169.602 91.3802 169.794 91.1772C169.997 90.9742 170.249 90.8727 170.548 90.8727C170.847 90.8727 171.093 90.9742 171.285 91.1772C171.488 91.3802 171.589 91.626 171.589 91.9145C171.589 92.2029 171.488 92.4487 171.285 92.6517C171.093 92.8547 170.847 92.9562 170.548 92.9562ZM3.92662 106.98V118.84H2.38803V109.64L0.160289 109.656V108.759L0.560962 108.631C1.12725 108.449 1.58134 108.251 1.92325 108.038C2.27584 107.824 2.60172 107.53 2.90089 107.156L3.04514 106.98H3.92662ZM7.577 114.464V113.182H14.725V114.464H7.577ZM17.9086 118.84V117.734L20.505 115.33C21.2315 114.657 21.8673 114.069 22.4122 113.567C22.9678 113.054 23.4005 112.557 23.7104 112.076C24.0202 111.596 24.1751 111.067 24.1751 110.49C24.1751 110.009 24.0576 109.603 23.8225 109.272C23.5982 108.94 23.3043 108.689 22.9411 108.518C22.5885 108.337 22.2199 108.246 21.8352 108.246C21.333 108.246 20.9217 108.331 20.6011 108.502C20.2806 108.673 20.0349 108.887 19.8639 109.143C19.6929 109.389 19.5701 109.64 19.4953 109.897C19.4205 110.142 19.3777 110.351 19.3671 110.522C19.3564 110.693 19.351 110.778 19.351 110.778H17.8445C17.8445 110.778 17.8498 110.682 17.8605 110.49C17.8712 110.297 17.9086 110.052 17.9727 109.752C18.0475 109.453 18.165 109.138 18.3253 108.807C18.4856 108.465 18.71 108.144 18.9984 107.845C19.2976 107.546 19.6769 107.3 20.1364 107.108C20.6065 106.916 21.1781 106.819 21.8512 106.819C22.5351 106.819 23.1708 106.964 23.7584 107.252C24.3568 107.53 24.8376 107.941 25.2009 108.486C25.5641 109.021 25.7458 109.678 25.7458 110.458C25.7458 111.173 25.5641 111.825 25.2009 112.413C24.8483 112.99 24.3781 113.556 23.7905 114.112C23.2028 114.667 22.5618 115.266 21.8673 115.907L20.2325 117.413H26.0022V118.84H17.9086ZM32.0257 118.84L32.0417 106.659H33.5483V118.84H32.0257ZM42.265 107.076L40.6143 104.175H42.1849L43.5632 107.06L42.265 107.076ZM37.489 109.127L39.4283 106.771H40.7265L42.6657 109.127H41.2874L40.0693 107.653L38.8673 109.127H37.489ZM39.7168 110.185C40.251 110.185 40.6997 110.271 41.063 110.442C41.4263 110.613 41.7201 110.816 41.9445 111.051C42.1689 111.275 42.3398 111.489 42.4574 111.692H42.5535V110.345H44.0761V118.84H42.5535V117.493H42.4574C42.3398 117.696 42.1689 117.915 41.9445 118.151C41.7201 118.386 41.4263 118.589 41.063 118.76C40.6997 118.92 40.251 119 39.7168 119C39.0757 119 38.5147 118.877 38.0339 118.631C37.5531 118.375 37.1524 118.038 36.8319 117.622C36.5114 117.194 36.271 116.719 36.1107 116.195C35.9504 115.672 35.8703 115.137 35.8703 114.593C35.8703 114.048 35.9504 113.513 36.1107 112.99C36.271 112.466 36.5114 111.996 36.8319 111.579C37.1524 111.152 37.5531 110.816 38.0339 110.57C38.5147 110.313 39.0757 110.185 39.7168 110.185ZM39.9732 111.483C39.4069 111.483 38.9314 111.638 38.5468 111.948C38.1621 112.247 37.8737 112.632 37.6813 113.102C37.4997 113.572 37.4089 114.069 37.4089 114.593C37.4089 115.105 37.4997 115.602 37.6813 116.083C37.8737 116.553 38.1621 116.943 38.5468 117.253C38.9314 117.552 39.4069 117.702 39.9732 117.702C40.5395 117.702 41.0096 117.552 41.3836 117.253C41.7682 116.943 42.0513 116.553 42.233 116.083C42.4253 115.602 42.5215 115.105 42.5215 114.593C42.5215 114.069 42.4253 113.572 42.233 113.102C42.0513 112.632 41.7682 112.247 41.3836 111.948C41.0096 111.638 40.5395 111.483 39.9732 111.483ZM46.4211 118.84V110.345H47.9437V111.579H48.0399C48.1147 111.451 48.2375 111.275 48.4085 111.051C48.5901 110.826 48.8466 110.629 49.1778 110.458C49.509 110.276 49.9257 110.185 50.4279 110.185C51.0476 110.185 51.5765 110.329 52.0145 110.618C52.4526 110.896 52.7838 111.275 53.0082 111.756C53.2433 112.237 53.3608 112.776 53.3608 113.375V118.84H51.8382V113.471C51.8382 112.904 51.678 112.434 51.3574 112.06C51.0476 111.686 50.5935 111.499 49.9951 111.499C49.5143 111.499 49.1244 111.622 48.8252 111.868C48.526 112.103 48.3016 112.418 48.1521 112.814C48.0132 113.198 47.9437 113.61 47.9437 114.048V118.84H46.4211ZM63.3249 119C62.6304 119 62.0214 118.877 61.4979 118.631C60.9743 118.375 60.5362 118.038 60.1836 117.622C59.8417 117.194 59.58 116.719 59.3983 116.195C59.2274 115.672 59.1419 115.137 59.1419 114.593C59.1419 114.048 59.2274 113.519 59.3983 113.006C59.5693 112.482 59.8257 112.007 60.1676 111.579C60.5202 111.152 60.9583 110.816 61.4818 110.57C62.0054 110.313 62.6197 110.185 63.3249 110.185C64.0087 110.185 64.575 110.287 65.0238 110.49C65.4725 110.693 65.8305 110.949 66.0976 111.259C66.3754 111.558 66.5784 111.863 66.7066 112.172C66.8455 112.472 66.9363 112.723 66.9791 112.926C67.0218 113.129 67.0432 113.23 67.0432 113.23H65.5687C65.5687 113.23 65.542 113.145 65.4886 112.974C65.4351 112.792 65.3336 112.589 65.184 112.365C65.0345 112.14 64.8101 111.943 64.5109 111.772C64.2117 111.59 63.8164 111.499 63.3249 111.499C62.7373 111.499 62.2404 111.649 61.8344 111.948C61.4391 112.237 61.1399 112.616 60.9369 113.086C60.7446 113.556 60.6484 114.058 60.6484 114.593C60.6484 115.127 60.7446 115.629 60.9369 116.099C61.1399 116.569 61.4391 116.954 61.8344 117.253C62.2404 117.542 62.7373 117.686 63.3249 117.686C63.8164 117.686 64.2117 117.6 64.5109 117.429C64.8101 117.248 65.0345 117.045 65.184 116.82C65.3336 116.596 65.4351 116.398 65.4886 116.227C65.542 116.046 65.5687 115.955 65.5687 115.955H67.0432C67.0432 115.955 67.0218 116.056 66.9791 116.259C66.9363 116.462 66.8455 116.719 66.7066 117.029C66.5784 117.328 66.3754 117.632 66.0976 117.942C65.8305 118.241 65.4725 118.492 65.0238 118.695C64.575 118.898 64.0087 119 63.3249 119ZM69.2914 118.84V106.659H70.814V111.579H70.9102C70.985 111.451 71.1078 111.275 71.2788 111.051C71.4604 110.826 71.7169 110.629 72.0481 110.458C72.3793 110.276 72.796 110.185 73.2982 110.185C73.9179 110.185 74.4468 110.329 74.8848 110.618C75.3229 110.896 75.6541 111.275 75.8785 111.756C76.1136 112.237 76.2311 112.776 76.2311 113.375V118.84H74.7085V113.471C74.7085 112.904 74.5483 112.434 74.2277 112.06C73.9179 111.686 73.4638 111.499 72.8655 111.499C72.3846 111.499 71.9947 111.622 71.6955 111.868C71.3963 112.103 71.1719 112.418 71.0224 112.814C70.8835 113.198 70.814 113.61 70.814 114.048V118.84H69.2914ZM79.052 109.175V108.663C79.052 108.556 79.0733 108.449 79.1161 108.342C79.1588 108.235 79.2443 108.15 79.3725 108.086L79.5969 107.973C80.0884 107.728 80.3341 107.455 80.3341 107.156C80.3341 107.006 80.2754 106.873 80.1578 106.755C80.051 106.627 79.8747 106.563 79.6289 106.563C79.4152 106.563 79.255 106.611 79.1481 106.707C79.052 106.793 78.9879 106.889 78.9558 106.996C78.9238 107.103 78.9077 107.188 78.9077 107.252H77.85C77.85 106.985 77.9087 106.729 78.0262 106.483C78.1545 106.237 78.3468 106.034 78.6032 105.874C78.8703 105.714 79.2069 105.634 79.6129 105.634C80.1792 105.634 80.6226 105.783 80.9432 106.082C81.2744 106.371 81.44 106.718 81.44 107.124C81.44 107.423 81.3385 107.706 81.1355 107.973C80.9325 108.23 80.6066 108.465 80.1578 108.679L80.0937 108.711V109.175H79.052ZM78.8116 118.84V110.345H80.3341V118.84H78.8116ZM82.9043 118.84V110.345H84.4269V111.579H84.523C84.5978 111.451 84.7207 111.275 84.8917 111.051C85.0733 110.826 85.3297 110.629 85.661 110.458C85.9922 110.276 86.4089 110.185 86.9111 110.185C87.5308 110.185 88.0596 110.329 88.4977 110.618C88.9358 110.896 89.267 111.275 89.4914 111.756C89.7265 112.237 89.844 112.776 89.844 113.375V118.84H88.3214V113.471C88.3214 112.904 88.1612 112.434 87.8406 112.06C87.5308 111.686 87.0767 111.499 86.4783 111.499C85.9975 111.499 85.6075 111.622 85.3084 111.868C85.0092 112.103 84.7848 112.418 84.6352 112.814C84.4963 113.198 84.4269 113.61 84.4269 114.048V118.84H82.9043ZM92.2519 118.84V106.659H93.7745V111.579H93.8706C93.9454 111.451 94.0683 111.275 94.2392 111.051C94.4209 110.826 94.6773 110.629 95.0085 110.458C95.3398 110.276 95.7565 110.185 96.2586 110.185C96.8783 110.185 97.4072 110.329 97.8453 110.618C98.2834 110.896 98.6146 111.275 98.839 111.756C99.074 112.237 99.1916 112.776 99.1916 113.375V118.84H97.669V113.471C97.669 112.904 97.5087 112.434 97.1882 112.06C96.8783 111.686 96.4242 111.499 95.8259 111.499C95.3451 111.499 94.9551 111.622 94.6559 111.868C94.3568 112.103 94.1324 112.418 93.9828 112.814C93.8439 113.198 93.7745 113.61 93.7745 114.048V118.84H92.2519ZM108.238 119C107.587 119 107.047 118.909 106.62 118.728C106.203 118.546 105.872 118.321 105.626 118.054C105.38 117.777 105.199 117.504 105.081 117.237C104.964 116.959 104.889 116.729 104.857 116.548C104.825 116.366 104.809 116.275 104.809 116.275H106.347C106.347 116.275 106.363 116.35 106.395 116.5C106.438 116.639 106.518 116.804 106.636 116.997C106.764 117.178 106.956 117.344 107.213 117.493C107.48 117.632 107.832 117.702 108.27 117.702C108.773 117.702 109.163 117.584 109.44 117.349C109.718 117.103 109.857 116.804 109.857 116.452C109.857 116.142 109.745 115.896 109.521 115.714C109.307 115.533 108.997 115.394 108.591 115.298L107.437 115.025C107.01 114.918 106.609 114.774 106.235 114.593C105.861 114.411 105.557 114.165 105.321 113.855C105.097 113.535 104.985 113.139 104.985 112.669C104.985 111.943 105.257 111.35 105.802 110.89C106.347 110.42 107.058 110.185 107.934 110.185C108.522 110.185 109.008 110.271 109.392 110.442C109.777 110.602 110.081 110.805 110.306 111.051C110.541 111.296 110.712 111.542 110.819 111.788C110.936 112.034 111.011 112.242 111.043 112.413C111.075 112.573 111.091 112.653 111.091 112.653H109.617C109.617 112.653 109.601 112.595 109.569 112.477C109.537 112.349 109.462 112.21 109.344 112.06C109.237 111.9 109.072 111.761 108.847 111.644C108.623 111.515 108.324 111.451 107.95 111.451C107.437 111.451 107.063 111.569 106.828 111.804C106.593 112.039 106.475 112.295 106.475 112.573C106.475 112.84 106.582 113.059 106.796 113.23C107.02 113.391 107.309 113.513 107.661 113.599L108.831 113.871C109.558 114.042 110.156 114.325 110.626 114.721C111.107 115.105 111.348 115.661 111.348 116.388C111.348 116.858 111.225 117.296 110.979 117.702C110.733 118.097 110.381 118.412 109.921 118.647C109.462 118.882 108.901 119 108.238 119ZM116.249 109.175V108.663C116.249 108.556 116.27 108.449 116.313 108.342C116.356 108.235 116.441 108.15 116.569 108.086L116.794 107.973C117.285 107.728 117.531 107.455 117.531 107.156C117.531 107.006 117.472 106.873 117.355 106.755C117.248 106.627 117.072 106.563 116.826 106.563C116.612 106.563 116.452 106.611 116.345 106.707C116.249 106.793 116.185 106.889 116.153 106.996C116.121 107.103 116.105 107.188 116.105 107.252H115.047C115.047 106.985 115.106 106.729 115.223 106.483C115.351 106.237 115.544 106.034 115.8 105.874C116.057 105.714 116.393 105.634 116.81 105.634C117.376 105.634 117.819 105.783 118.14 106.082C118.471 106.371 118.637 106.718 118.637 107.124C118.637 107.423 118.535 107.706 118.332 107.973C118.129 108.23 117.803 108.465 117.355 108.679L117.291 108.711V109.175H116.249ZM116.281 119C115.437 119 114.764 118.738 114.262 118.215C113.759 117.691 113.508 116.965 113.508 116.035V110.345H115.031V115.955C115.031 116.51 115.18 116.938 115.48 117.237C115.789 117.536 116.195 117.686 116.698 117.686C117.21 117.686 117.622 117.552 117.932 117.285C118.242 117.018 118.466 116.676 118.605 116.259C118.744 115.843 118.813 115.415 118.813 114.977V110.345H120.111C120.528 110.345 120.736 110.126 120.736 109.688V108.727H122.083V109.688C122.083 110.18 121.954 110.575 121.698 110.874C121.442 111.173 121.052 111.323 120.528 111.323H120.336V118.84H118.813V117.622H118.717C118.653 117.75 118.53 117.926 118.348 118.151C118.167 118.364 117.91 118.562 117.579 118.744C117.248 118.914 116.815 119 116.281 119ZM126.658 110.185C127.192 110.185 127.641 110.271 128.004 110.442C128.367 110.613 128.661 110.816 128.886 111.051C129.11 111.275 129.281 111.489 129.398 111.692H129.495V110.345H131.017V118.84H129.495V117.493H129.398C129.281 117.696 129.11 117.915 128.886 118.151C128.661 118.386 128.367 118.589 128.004 118.76C127.641 118.92 127.192 119 126.658 119C126.017 119 125.456 118.877 124.975 118.631C124.494 118.375 124.094 118.038 123.773 117.622C123.452 117.194 123.212 116.719 123.052 116.195C122.892 115.672 122.811 115.137 122.811 114.593C122.811 114.048 122.892 113.513 123.052 112.99C123.212 112.466 123.452 111.996 123.773 111.579C124.094 111.152 124.494 110.816 124.975 110.57C125.456 110.313 126.017 110.185 126.658 110.185ZM126.914 111.483C126.348 111.483 125.873 111.638 125.488 111.948C125.103 112.247 124.815 112.632 124.622 113.102C124.441 113.572 124.35 114.069 124.35 114.593C124.35 115.105 124.441 115.602 124.622 116.083C124.815 116.553 125.103 116.943 125.488 117.253C125.873 117.552 126.348 117.702 126.914 117.702C127.481 117.702 127.951 117.552 128.325 117.253C128.709 116.943 128.992 116.553 129.174 116.083C129.366 115.602 129.463 115.105 129.463 114.593C129.463 114.069 129.366 113.572 129.174 113.102C128.992 112.632 128.709 112.247 128.325 111.948C127.951 111.638 127.481 111.483 126.914 111.483ZM134.425 119C134.125 119 133.874 118.898 133.671 118.695C133.479 118.482 133.383 118.236 133.383 117.958C133.383 117.67 133.479 117.424 133.671 117.221C133.874 117.018 134.125 116.916 134.425 116.916C134.724 116.916 134.969 117.018 135.162 117.221C135.365 117.424 135.466 117.67 135.466 117.958C135.466 118.247 135.365 118.492 135.162 118.695C134.969 118.898 134.724 119 134.425 119Z" fill="#C7D7D1"/>
</svg>
