<svg width="45" height="45" viewBox="0 0 45 45" fill="none" xmlns="http://www.w3.org/2000/svg">
<path d="M44.2016 14.1137C42.2627 12.501 39.2595 10.8574 37.0895 9.40461C34.5776 7.72239 32.0482 6.06743 29.531 4.39488C27.9121 3.31911 26.3415 2.13699 24.6944 1.09198L24.6927 1.0911C23.239 0.122557 23.2214 0.0118163 22.8514 0.00126952L22.8171 0.000390622C22.7564 -0.000488277 22.6879 0.000390622 22.6026 0.000390622H22.1482C21.2904 0.409957 20.495 0.963663 19.7023 1.50682L19.6926 1.51297C19.4861 1.65536 19.2795 1.79598 19.0721 1.93397C17.3662 3.06423 15.6769 4.22701 13.9745 5.36167C11.953 6.70814 9.92804 8.05286 7.91009 9.40461C7.41263 9.73771 6.87123 10.0805 6.30873 10.4312L0.87011 14.0549C0.8455 14.0742 0.82177 14.0935 0.79804 14.1137C0.401657 14.4442 0.203904 14.7325 0 15.2053V15.9963C0.560737 17.4659 1.85799 17.6153 3.00847 16.9104L3.01374 16.9078C3.0946 16.8585 3.17458 16.8049 3.2528 16.7469C3.31169 16.7047 3.3697 16.659 3.4277 16.6116V43.4619C3.4277 44.0868 4.27848 44.8198 4.83394 45H40.1657C40.7958 44.775 41.5719 44.0912 41.5719 43.374V16.6116C42.8103 17.6329 44.3694 17.6478 44.9996 15.9963V15.2053C44.7957 14.7325 44.598 14.4442 44.2016 14.1137ZM27.6853 41.4844C27.3346 41.4879 26.9813 41.48 26.6306 41.4844C24.5538 41.5108 22.4673 41.4932 20.3904 41.4844C19.3665 41.48 18.3382 41.4879 17.3143 41.4844V29.048C17.3143 27.2955 18.9728 25.2292 20.5662 24.6096C22.4901 23.8616 24.9792 24.3722 26.367 25.9279C26.9119 26.5387 27.6853 28.2376 27.6853 29.048V41.4844ZM38.0581 41.4334C38.0431 41.5292 37.6494 41.48 37.529 41.4844C35.8345 41.5424 34.0441 41.5029 32.3435 41.4844C31.9638 41.48 31.5806 41.487 31.2 41.4853L31.2044 29.2203C31.0207 25.9464 29.4115 23.3308 26.5427 21.7971C24.5257 20.7187 22.723 20.4796 20.4783 21.0061C16.6252 21.9096 13.9692 25.2749 13.7952 29.2203L13.7996 41.4853C12.6579 41.4844 11.5127 41.4844 10.371 41.4844H6.9433V15.099L6.93803 15.1016V14.2799L8.05159 13.5345C8.06477 13.5055 8.0762 13.4765 8.08587 13.4475C8.14915 13.4264 8.21331 13.4054 8.27659 13.3843L14.0659 9.50832C14.0949 9.47404 14.123 9.43976 14.1503 9.40461C15.8509 8.26907 17.5437 7.10365 19.2479 5.9769C19.8121 5.60425 20.3922 5.25093 20.967 4.88882C21.4776 4.56715 21.9848 4.23844 22.4717 3.88161C22.5666 3.86667 23.144 4.29996 23.2908 4.39488C25.3518 5.7229 27.3381 7.17572 29.4431 8.43782C31.897 10.2299 34.5056 11.8058 37.0016 13.5354C37.3303 13.7639 38.008 14.0672 38.0607 14.4539L38.0581 41.4334Z" fill="url(#paint0_linear_541_235)"/>
<path d="M29.6557 13.8343C29.5476 13.8132 29.4438 13.8 29.3463 13.7921C29.0053 13.7622 28.753 13.793 28.753 13.793C24.399 13.7561 20.0414 13.8369 15.6856 13.7956C13.1842 14.0118 13.3328 17.1319 15.4219 17.3183C17.5875 17.5116 20.3534 17.3165 22.5884 17.3147C24.7725 17.313 27.4628 17.5063 29.5792 17.3183C30.5495 17.2312 31.0777 16.5325 31.1551 15.7855C31.1568 15.7696 31.1586 15.7547 31.1595 15.738C31.1621 15.7143 31.163 15.6914 31.1639 15.6677C31.1647 15.6431 31.1656 15.6176 31.1656 15.593V15.5895C31.1656 15.5385 31.163 15.4866 31.1586 15.4356C31.09 14.3361 30.3104 13.9565 29.6557 13.8343Z" fill="url(#paint1_linear_541_235)"/>
<defs>
<linearGradient id="paint0_linear_541_235" x1="-4.5" y1="-14.1429" x2="72.3985" y2="-5.19764" gradientUnits="userSpaceOnUse">
<stop stop-color="#5EE0B6"/>
<stop offset="1" stop-color="#0F2A20"/>
</linearGradient>
<linearGradient id="paint1_linear_541_235" x1="12.0987" y1="12.6399" x2="35.0254" y2="25.3938" gradientUnits="userSpaceOnUse">
<stop stop-color="#5EE0B6"/>
<stop offset="1" stop-color="#0F2A20"/>
</linearGradient>
</defs>
</svg>
