<svg width="50" height="45" viewBox="0 0 50 45" fill="none" xmlns="http://www.w3.org/2000/svg">
<path d="M49.989 26.1233C49.9654 25.1794 50.1846 24.1827 49.255 23.5794C48.7665 23.261 48.3406 23.2597 47.8036 23.4181C47.1765 23.603 46.9114 23.9366 46.763 24.5622C46.6131 25.1947 46.6728 25.6826 46.6589 26.3318C46.6423 27.0575 46.6645 27.7901 46.6589 28.5171C46.6534 29.3136 46.6617 30.1143 46.6589 30.9095C46.6561 31.6713 46.6631 32.4372 46.6589 33.199C46.6547 33.9608 46.6658 34.7268 46.6589 35.4885C46.6506 36.3518 46.6922 37.2276 46.6589 38.0895C46.6339 38.7373 46.645 39.4643 46.3467 40.0676C46.2482 40.265 45.4878 41.1032 45.3061 41.2117C44.9009 41.4522 44.1142 41.5953 43.6411 41.6273C42.9723 41.6732 42.2397 41.6176 41.5598 41.6273C40.9368 41.637 40.3096 41.6231 39.6866 41.6273C39.0983 41.6315 38.5059 41.6245 37.9175 41.6273C37.2252 41.6315 36.5286 41.6259 35.8363 41.6273C35.2133 41.6301 34.5861 41.6259 33.9631 41.6273C33.2707 41.6301 32.5742 41.6259 31.8818 41.6273C31.0507 41.6301 30.2154 41.6259 29.3843 41.6273C28.6572 41.6273 27.926 41.6273 27.199 41.6273C26.576 41.6273 25.9488 41.6273 25.3258 41.6273C24.6681 41.6273 24.0063 41.6273 23.3486 41.6273C22.6215 41.6273 21.8903 41.6273 21.1633 41.6273C20.1587 41.6259 19.15 41.6301 18.1454 41.6273C17.3143 41.6259 16.479 41.6301 15.6479 41.6273C15.0249 41.6259 14.3977 41.6301 13.7747 41.6273C12.0084 41.6218 10.2338 41.6523 8.46747 41.6273C6.93426 41.6065 5.31642 41.9165 4.15923 40.6806C3.02285 39.4643 3.3836 37.1748 3.36834 35.5928C3.34892 33.6174 3.37389 31.6365 3.36834 29.6612C3.36557 28.8646 3.36973 28.0639 3.36834 27.2688C3.36695 26.4722 3.36695 25.6715 3.36834 24.875C3.36973 24.1132 3.36557 23.3472 3.36834 22.5854C3.37112 21.7889 3.36418 20.9882 3.36834 20.1917C3.37112 19.4994 3.36279 18.8029 3.36834 18.1106C3.37528 17.2807 3.34475 16.4425 3.36834 15.614C3.38777 14.9342 3.317 14.0696 3.57647 13.4287C3.69163 13.1437 4.25635 12.4834 4.51304 12.2847C5.09164 11.8356 5.67578 11.705 6.38619 11.6591C7.35607 11.5979 8.42029 11.6688 9.40404 11.6591C10.2005 11.6521 11.0011 11.6633 11.7975 11.6591C12.4899 11.6563 13.1864 11.6619 13.8788 11.6591C14.5712 11.6577 15.2677 11.6619 15.9601 11.6591C16.6871 11.6577 17.4183 11.6605 18.1454 11.6591C18.7684 11.6591 19.3956 11.6605 20.0186 11.6591C20.7456 11.6591 21.4768 11.6605 22.2039 11.6591C22.8616 11.6591 23.5234 11.6605 24.1811 11.6591H26.4705C27.0935 11.6605 27.7207 11.6591 28.3437 11.6591C29.036 11.6605 29.7326 11.6591 30.4249 11.6591C31.0479 11.6605 31.6751 11.6591 32.2981 11.6591C32.9558 11.6605 33.6176 11.6577 34.2753 11.6591C34.8983 11.6619 35.5255 11.6577 36.1485 11.6591C36.8061 11.6619 37.468 11.6563 38.1257 11.6591C38.7834 11.6633 39.4452 11.6549 40.1029 11.6591C40.6912 11.6647 41.2837 11.6494 41.872 11.6591C42.531 11.6702 43.3219 11.5924 43.9532 11.6591C45.0175 11.7731 46.072 12.5182 46.4508 13.533C46.6242 13.9959 46.6339 14.406 46.6589 14.8856C46.6867 15.4305 46.7255 16.1631 46.5548 16.6538C46.4674 16.5968 44.7844 16.6566 44.4736 16.6538C43.8506 16.6496 43.2234 16.6566 42.6004 16.6538C42.0121 16.6524 41.4196 16.6566 40.8313 16.6538C40.2083 16.6524 39.5812 16.6552 38.9582 16.6538C38.2658 16.6524 37.5693 16.6552 36.8769 16.6538C36.2539 16.6538 35.6268 16.6552 35.0038 16.6538C34.3461 16.6538 33.6842 16.6552 33.0265 16.6538C32.2648 16.6538 31.4989 16.6552 30.7371 16.6538C29.9407 16.6538 29.1401 16.6552 28.3437 16.6538H26.5746C25.9169 16.6552 25.2551 16.6538 24.5974 16.6538C23.905 16.6552 23.2085 16.6538 22.5161 16.6538C21.8237 16.6552 21.1272 16.6524 20.4348 16.6538C19.7771 16.6552 19.1153 16.6524 18.4576 16.6538C17.7999 16.6566 17.1381 16.6524 16.4804 16.6538C15.6146 16.658 14.7446 16.6496 13.8788 16.6538C12.8742 16.6594 11.8655 16.6399 10.8609 16.6538C10.095 16.6649 9.20979 16.5857 8.46747 16.6538C7.67103 16.7275 7.25478 16.8637 6.90651 17.5907C6.61097 18.2093 6.59155 18.7167 7.01058 19.3089C7.56003 20.086 8.2635 19.9581 9.09185 19.9845C9.74815 20.0054 10.4128 19.9776 11.0691 19.9845C11.8308 19.9929 12.5967 19.9804 13.3585 19.9845C14.3977 19.9901 15.4411 19.9817 16.4804 19.9845C17.3115 19.9845 18.1468 19.9831 18.9779 19.9845C19.6703 19.9845 20.3668 19.9831 21.0592 19.9845C21.7169 19.9845 22.3787 19.9831 23.0364 19.9845C23.6941 19.9845 24.3559 19.9831 25.0136 19.9845C25.706 19.9845 26.4025 19.9831 27.0949 19.9845H29.1762C29.7298 19.9831 30.2876 19.9845 30.8412 19.9845C31.6723 19.9831 32.5076 19.9845 33.3387 19.9845C34.0658 19.9831 34.797 19.9845 35.5241 19.9845C36.1818 19.9831 36.8436 19.9845 37.5013 19.9845C38.159 19.9831 38.8208 19.9845 39.4785 19.9845C40.1362 19.9831 40.798 19.9845 41.4557 19.9845C42.1134 19.9817 42.7752 19.9873 43.4329 19.9845C44.0212 19.9817 44.6137 19.9887 45.202 19.9845C45.825 19.979 46.4522 19.997 47.0752 19.9845C47.8161 19.9678 48.3656 20.1041 49.0524 19.776C49.7267 19.4535 49.9251 19.0712 49.989 18.3192C50.0181 17.9855 49.9792 17.6199 49.989 17.2794C49.9987 16.9332 49.989 16.5843 49.989 16.2382C49.989 15.892 50 15.5431 49.989 15.197C49.982 14.9898 50.0014 14.7799 49.989 14.5728C49.9709 14.2586 49.921 14.0946 49.8849 13.8444C49.5005 11.1795 47.9951 9.40432 45.4101 8.64253C44.9953 8.5202 44.9328 8.49657 44.4736 8.43402C44.0531 8.37702 43.7812 8.34505 43.3289 8.32976C42.6726 8.30752 42.0079 8.3381 41.3517 8.32976C40.694 8.32281 40.0321 8.33254 39.3744 8.32976C38.7514 8.32837 38.1229 8.34366 37.5013 8.32976C37.2252 8.3242 36.9449 8.33532 36.6688 8.33115C36.6646 7.95025 36.6743 7.56519 36.6688 7.18569C36.6577 6.42529 36.6951 5.65517 36.6688 4.89616C36.5814 2.35919 35.753 0.524232 33.0265 0.109976C32.1607 -0.0220853 31.4156 0.0196183 30.529 0.00571714C30.2182 0.000156663 29.9032 0.00849739 29.5924 0.00571714C29.0735 0.000156663 28.5504 0.00849739 28.0315 0.00571714C27.0269 -0.00123346 26.0182 0.00571714 25.0136 0.00571714C24.2519 0.00571714 23.486 0.00154678 22.7242 0.00571714C22.0665 0.00988751 21.4047 -0.00123346 20.747 0.00571714C20.0893 0.0112776 19.4261 -0.00957418 18.7698 0.00571714C18.1093 0.0210085 17.6473 0.0168381 17.0007 0.109976C16.1543 0.230917 16.0433 0.253159 15.3357 0.73414C14.6988 1.16508 14.5157 1.34996 14.0869 1.98247C13.5305 2.80403 13.4195 3.25443 13.3585 4.272C13.3238 4.83917 13.3571 5.46472 13.3585 6.04023C13.3599 6.62964 13.253 7.84183 13.3585 8.32976H11.3813C10.6889 8.32976 9.99235 8.32698 9.29998 8.32976C8.50493 8.33254 7.70017 8.30474 6.90651 8.32976C5.62583 8.37007 5.19431 8.36729 3.99272 8.84966C3.2171 9.16244 3.06447 9.29033 2.43177 9.7866C1.85317 10.2412 1.61591 10.3927 1.183 11.0349C0.873583 11.4951 0.644642 11.9705 0.454552 12.4918C0.170111 13.2758 0.0813099 13.7318 0.0382968 14.5728C0.00360888 15.2609 0.0466219 15.9657 0.0382968 16.6538C0.0285842 17.4503 0.0438469 18.251 0.0382968 19.0476C0.0327468 19.8094 0.0410719 20.5753 0.0382968 21.3371C0.0355218 22.0989 0.0410719 22.8649 0.0382968 23.6266C0.0355218 24.4565 0.0396844 25.292 0.0382968 26.1233C0.0355218 28.0639 0.0299717 30.0101 0.0382968 31.9507C0.0466219 34.1095 -0.0518918 36.3615 0.0382968 38.5065C0.175661 41.7913 2.11264 44.3714 5.44962 44.8538C7.23535 45.1123 9.2417 44.9469 11.0691 44.958C12.8021 44.9678 14.5392 44.9539 16.2723 44.958C16.8953 44.9594 17.5224 44.9566 18.1454 44.958C18.9765 44.9594 19.8118 44.9566 20.6429 44.958C21.6475 44.9594 22.6562 44.9566 23.6608 44.958H25.8461C26.5038 44.9566 27.1657 44.958 27.8233 44.958C28.4463 44.9566 29.0735 44.958 29.6965 44.958C30.4582 44.9566 31.2242 44.9594 31.9859 44.958C32.7823 44.9553 33.5829 44.9594 34.3794 44.958C35.0717 44.9553 35.7683 44.9608 36.4606 44.958C37.1183 44.9553 37.7802 44.9608 38.4379 44.958C39.1302 44.9539 39.8268 44.9636 40.5191 44.958C41.0728 44.9525 41.6305 44.9678 42.1842 44.958C42.7017 44.9483 43.2304 44.9858 43.7451 44.958C44.5457 44.9136 45.0716 44.8121 45.8264 44.541C46.3481 44.3547 46.824 44.1212 47.2833 43.8126C47.6024 43.5999 47.7994 43.4317 47.9743 43.2482C49.402 41.8761 49.8821 41.1018 49.9751 39.3308C49.9834 39.1863 49.9876 39.0361 49.9903 38.8777V38.8429C49.9931 38.7525 49.9931 38.6608 49.9931 38.5649V38.5677C49.9959 37.9574 49.989 37.3457 49.989 36.7369V32.0549C49.989 31.2932 49.9931 30.5272 49.989 29.7654C49.9862 29.2469 49.9931 28.7242 49.989 28.2043C49.9834 27.5134 50.007 26.8142 49.989 26.1233ZM16.6885 4.7919C16.7066 4.33455 16.6941 3.47824 17.3129 3.33506C17.7625 3.23219 18.9405 3.34201 19.4982 3.33506C20.1212 3.3281 20.7484 3.33923 21.3714 3.33506C22.0291 3.33228 22.6909 3.33784 23.3486 3.33506C24.0063 3.33367 24.6681 3.33367 25.3258 3.33506C26.0876 3.33784 26.8535 3.33089 27.6152 3.33506C28.5851 3.34062 29.5591 3.32393 30.529 3.33506C31.0743 3.34201 31.6571 3.3003 32.194 3.33506C33.7661 3.43931 33.3318 4.81275 33.3387 6.04023C33.3429 6.80202 33.336 7.56797 33.3387 8.32976C32.9183 8.26025 32.244 8.3381 31.7778 8.32976C31.1201 8.31864 30.4582 8.33393 29.8006 8.32976C29.1429 8.32698 28.481 8.33254 27.8233 8.32976C27.1657 8.32837 26.5038 8.33115 25.8461 8.32976C25.1884 8.32837 24.5266 8.33115 23.8689 8.32976C23.1419 8.32976 22.4106 8.33115 21.6836 8.32976C21.0259 8.32837 20.364 8.33115 19.7064 8.32976C18.9807 8.32837 18.2467 8.34644 17.521 8.32976C17.2449 8.32281 16.9646 8.33532 16.6885 8.33115C16.6844 8.01976 16.6941 7.7042 16.6885 7.39282C16.6719 6.54762 16.6552 5.63431 16.6885 4.7919Z" fill="url(#paint0_linear_541_242)"/>
<defs>
<linearGradient id="paint0_linear_541_242" x1="-5.00004" y1="-14.1429" x2="80.1767" y2="-3.13367" gradientUnits="userSpaceOnUse">
<stop stop-color="#5EE0B6"/>
<stop offset="1" stop-color="#0F2A20"/>
</linearGradient>
</defs>
</svg>
