<svg width="45" height="45" viewBox="0 0 45 45" fill="none" xmlns="http://www.w3.org/2000/svg">
<path d="M45 19.1812C45 19.1812 44.8816 18.6715 44.6355 18.0047C44.6355 18.0047 44.6344 18 44.6344 17.9988L44.6097 17.9039C44.4246 17.3859 44.1961 16.9148 43.9253 16.4883C43.7156 16.1391 43.473 15.8098 43.1976 15.5426C43.1929 15.5391 43.1894 15.5355 43.1858 15.532C43.1858 15.532 43.1858 15.532 43.1858 15.5309C43.1847 15.5285 43.1835 15.5273 43.1823 15.5273C42.0971 14.3813 40.6205 13.7273 38.9001 13.5539C38.7266 13.5352 38.5497 13.5223 38.3704 13.5152C38.3481 13.5141 38.3247 13.5129 38.3012 13.5117C38.1969 13.5082 38.0903 13.5105 37.9848 13.5152H31.4102V5.49258C31.4102 5.27578 31.1934 4.60664 31.0083 4.11445C31.0071 4.11094 31.0059 4.10859 31.0047 4.10508C30.9286 3.90234 30.8594 3.73125 30.8125 3.63516C29.7777 1.50938 27.6026 0.222656 25.2681 0.0984375C24.9353 0.0808594 24.5755 0.0621094 24.197 0.0457031C24.1032 0.0421875 24.0083 0.0375 23.9122 0.0339844C23.829 0.0304687 23.7446 0.028125 23.659 0.0257812C23.5805 0.0222656 23.5008 0.0199219 23.42 0.0175781C23.325 0.0152344 23.2289 0.0128906 23.1328 0.0105469C23.1164 0.0105469 23.1 0.009375 23.0836 0.009375C22.9746 0.00703125 22.8633 0.0046875 22.752 0.00351562C22.4578 -0.00117187 22.1578 -0.00117187 21.8566 0.00351562C21.7511 0.00351562 21.6445 0.00703125 21.5378 0.009375C21.5226 0.009375 21.5074 0.0105469 21.4921 0.0105469H21.4898C21.382 0.0128906 21.2753 0.0164063 21.1675 0.0210938H21.1652C21.0585 0.0257813 20.9507 0.0304688 20.8441 0.0363281C20.7362 0.0410156 20.6296 0.0480469 20.5229 0.0550781C20.4444 0.0609375 20.3659 0.0667969 20.2874 0.0726563C20.2698 0.0738281 20.2534 0.0761719 20.237 0.0773438C20.1901 0.0808594 20.1432 0.0855469 20.0952 0.0902344C20.0202 0.0960938 19.9464 0.104297 19.8725 0.111328C19.7905 0.119531 19.7084 0.128906 19.6276 0.139453C19.2889 0.179297 18.9584 0.230859 18.6408 0.295312C18.5857 0.305859 18.5318 0.317578 18.4779 0.329297C18.4217 0.341016 18.3678 0.353906 18.3127 0.366797C18.2588 0.379688 18.2049 0.392578 18.1509 0.406641C18.0982 0.420703 18.0455 0.434766 17.9927 0.448828C17.7794 0.508594 17.5744 0.574219 17.381 0.649219C17.3364 0.665625 17.2919 0.683203 17.2474 0.701953C17.2087 0.718359 17.17 0.734766 17.1314 0.751172C17.1009 0.765234 17.0704 0.778125 17.0399 0.792188C17.0118 0.805078 16.9849 0.817969 16.9579 0.832031C16.9192 0.849609 16.8829 0.869531 16.8454 0.888281C13.1269 2.83242 13.2874 6.50156 13.4245 10.1355V13.609H7.75236C6.005 13.5914 4.51547 13.5023 2.86773 14.5852C1.29616 15.6187 0.451195 17.1562 0 18.9539V26.1445C0.465259 28.0148 1.33366 29.5336 2.99078 30.566C4.12522 31.275 5.16003 31.4625 6.26165 31.5012H6.28392C6.72691 31.5176 7.17928 31.5094 7.65391 31.5012H13.2909C13.3894 31.5176 13.5113 31.5527 13.5113 31.6266V39.607C13.5113 41.3344 15.2598 43.3066 16.6696 44.1234C17.4103 44.5523 18.015 44.816 18.8635 45H25.9701C26.0205 44.8758 26.1435 44.9309 26.2326 44.9121C29.2527 44.2793 31.729 41.5793 31.4137 38.3742C31.2731 36.9352 29.4226 36.3715 28.423 37.4109C27.83 38.0273 28.0128 38.5254 27.8792 39.2355C27.7139 40.1168 26.9768 40.9934 26.1459 41.3168C25.9232 41.4035 25.5564 41.4762 25.315 41.4949C23.8419 41.6109 21.1616 41.6215 19.6979 41.4902C18.3232 41.3672 17.1607 40.398 17.0212 38.9918C16.7341 36.082 17.2849 32.6977 17.0271 29.7738C17.0118 29.6051 16.9474 29.5453 16.9333 29.4773C16.7575 28.6301 16.2536 28.1297 15.3746 28.009C13.496 27.7512 10.6822 28.0066 8.68639 27.9867C6.78317 27.968 4.33734 28.4074 3.64003 26.059C3.34822 25.0793 3.42323 21.0609 3.50526 19.8703C3.72441 16.7227 6.37064 17.1352 8.68639 17.1117C10.7267 17.0918 13.2546 17.3062 15.2211 17.1117C16.3286 17.0016 16.9298 16.3172 17.0235 15.2297C17.2837 12.2215 16.8231 8.84531 17.0212 5.79844C17.3095 4.87383 17.9916 4.0207 18.949 3.73594C19.91 3.45117 24.1032 3.51211 25.2681 3.60703C26.569 3.71133 27.5428 4.52695 27.8604 5.79375C28.1136 8.83711 27.6589 12.1289 27.8968 15.1418C27.9917 16.3395 28.5718 17.0004 29.7883 17.1105C31.9856 17.3098 34.6717 17.0836 36.9371 17.1117C38.2461 17.1293 39.5728 16.8633 40.5806 17.898C41.04 18.3703 41.3588 19.1297 41.4151 19.7836C41.5369 21.2039 41.5369 23.8945 41.4151 25.3148C41.3084 26.5418 40.4224 27.7676 39.1532 27.9656C37.6754 28.1953 35.2014 27.9762 33.6029 27.9867C32.4661 27.9938 30.0906 27.8051 29.1296 28.1191C27.4714 28.6605 27.6413 31.1555 29.1918 31.4742C29.3652 31.5094 29.5785 31.534 29.8187 31.548H29.8293C30.3707 31.5809 31.0458 31.5691 31.7056 31.548H36.1601C37.298 31.5738 38.4442 31.5809 39.4356 31.493C42.0971 31.2562 44.6051 28.6863 44.9215 26.0566C44.9707 25.6477 44.9941 25.2199 45 24.7816V19.1812Z" fill="url(#paint0_linear_541_247)"/>
<defs>
<linearGradient id="paint0_linear_541_247" x1="-4.50004" y1="-14.1429" x2="72.3991" y2="-5.19749" gradientUnits="userSpaceOnUse">
<stop stop-color="#5EE0B6"/>
<stop offset="1" stop-color="#0F2A20"/>
</linearGradient>
</defs>
</svg>
