<svg width="48" height="48" viewBox="0 0 48 48" fill="none" xmlns="http://www.w3.org/2000/svg">
<path d="M24 14C26.7614 14 29 11.7614 29 9C29 6.23858 26.7614 4 24 4C21.2386 4 19 6.23858 19 9C19 11.7614 21.2386 14 24 14Z" stroke="url(#paint0_linear_722_373)" stroke-width="3" stroke-linecap="round" stroke-linejoin="round"/>
<path d="M34 24C34 18.4772 29.5228 14 24 14C18.4772 14 14 18.4772 14 24" stroke="url(#paint1_linear_722_373)" stroke-width="3" stroke-linecap="round" stroke-linejoin="round"/>
<path d="M14 34C16.7614 34 19 31.7614 19 29C19 26.2386 16.7614 24 14 24C11.2386 24 9 26.2386 9 29C9 31.7614 11.2386 34 14 34Z" stroke="url(#paint2_linear_722_373)" stroke-width="3" stroke-linecap="round" stroke-linejoin="round"/>
<path d="M34 34C36.7614 34 39 31.7614 39 29C39 26.2386 36.7614 24 34 24C31.2386 24 29 26.2386 29 29C29 31.7614 31.2386 34 34 34Z" stroke="url(#paint3_linear_722_373)" stroke-width="3" stroke-linecap="round" stroke-linejoin="round"/>
<path d="M24 44C24 38.4772 19.5228 34 14 34C8.47715 34 4 38.4772 4 44" stroke="url(#paint4_linear_722_373)" stroke-width="3" stroke-linecap="round" stroke-linejoin="round"/>
<path d="M44 44C44 38.4772 39.5228 34 34 34C28.4772 34 24 38.4772 24 44" stroke="url(#paint5_linear_722_373)" stroke-width="3" stroke-linecap="round" stroke-linejoin="round"/>
<defs>
<linearGradient id="paint0_linear_722_373" x1="18" y1="0.857142" x2="35.0887" y2="2.845" gradientUnits="userSpaceOnUse">
<stop stop-color="#5EE0B6"/>
<stop offset="1" stop-color="#0F2A20"/>
</linearGradient>
<linearGradient id="paint1_linear_722_373" x1="12" y1="10.8571" x2="44.8612" y2="18.5024" gradientUnits="userSpaceOnUse">
<stop stop-color="#5EE0B6"/>
<stop offset="1" stop-color="#0F2A20"/>
</linearGradient>
<linearGradient id="paint2_linear_722_373" x1="7.99999" y1="20.8571" x2="25.0887" y2="22.845" gradientUnits="userSpaceOnUse">
<stop stop-color="#5EE0B6"/>
<stop offset="1" stop-color="#0F2A20"/>
</linearGradient>
<linearGradient id="paint3_linear_722_373" x1="28" y1="20.8571" x2="45.0887" y2="22.845" gradientUnits="userSpaceOnUse">
<stop stop-color="#5EE0B6"/>
<stop offset="1" stop-color="#0F2A20"/>
</linearGradient>
<linearGradient id="paint4_linear_722_373" x1="1.99998" y1="30.8571" x2="34.8612" y2="38.5024" gradientUnits="userSpaceOnUse">
<stop stop-color="#5EE0B6"/>
<stop offset="1" stop-color="#0F2A20"/>
</linearGradient>
<linearGradient id="paint5_linear_722_373" x1="22" y1="30.8571" x2="54.8612" y2="38.5024" gradientUnits="userSpaceOnUse">
<stop stop-color="#5EE0B6"/>
<stop offset="1" stop-color="#0F2A20"/>
</linearGradient>
</defs>
</svg>
