<svg width="61" height="36" viewBox="0 0 61 36" fill="none" xmlns="http://www.w3.org/2000/svg">
<path d="M0 17.8981V17.6598C1.06 16.5375 1.96 15.2762 3.01 14.1341C11.66 4.78849 24.04 -2.65023 37.26 0.905258C46.45 3.37821 54.81 10.4594 60.51 17.8187C52.89 27.4225 40.78 36.778 27.72 35.4968C18.42 34.5831 9.17 28.068 3.02 21.4139C1.97 20.2817 1.07 19.0105 0.01 17.8882L0 17.8981ZM29.17 4.43095C21.71 4.84808 14.49 9.46624 9.16 14.3724C8.73 14.7697 6.03 17.3916 5.96 17.6598C5.93 17.7591 5.93 17.8087 5.96 17.8981C6.04 18.1663 8.73 20.7882 9.16 21.1855C14.88 26.4392 23.05 31.5441 31.15 31.1567C40.22 30.7297 48.6 24.3139 54.53 17.9776C54.7 17.6995 54.48 17.5207 54.32 17.3022C53.4 16.1104 51.26 14.2334 50.06 13.2005C44.47 8.36384 36.84 3.99397 29.18 4.43095H29.17Z" fill="url(#paint0_linear_723_420)"/>
<path d="M29.1699 5.60283C39.2499 4.78845 46.0099 15.6039 40.7099 24.2245C36.2999 31.395 26.0399 31.9214 20.6899 25.4659C14.4799 17.9577 19.4899 6.39736 29.1699 5.61276V5.60283ZM29.3999 10.0621C19.4299 11.0751 20.6799 26.3002 30.8999 25.5156C41.1199 24.731 39.9199 8.98949 29.3999 10.0621Z" fill="url(#paint1_linear_723_420)"/>
<defs>
<linearGradient id="paint0_linear_723_420" x1="-6.05105" y1="-11.1933" x2="94.8121" y2="8.74121" gradientUnits="userSpaceOnUse">
<stop stop-color="#5EE0B6"/>
<stop offset="1" stop-color="#0F2A20"/>
</linearGradient>
<linearGradient id="paint1_linear_723_420" x1="15.4921" y1="-2.11447" x2="57.538" y2="2.81516" gradientUnits="userSpaceOnUse">
<stop stop-color="#5EE0B6"/>
<stop offset="1" stop-color="#0F2A20"/>
</linearGradient>
</defs>
</svg>
