<svg width="45" height="45" viewBox="0 0 45 45" fill="none" xmlns="http://www.w3.org/2000/svg">
<path d="M44.9977 19.1812C44.9977 19.1812 44.8793 18.6715 44.6332 18.0047C44.6332 18.0047 44.632 18 44.632 17.9988L44.6074 17.9039C44.4223 17.3859 44.1938 16.9148 43.923 16.4883C43.7133 16.1391 43.4707 15.8098 43.1953 15.5426C43.1906 15.5391 43.1871 15.5355 43.1836 15.532C43.1836 15.532 43.1836 15.532 43.1836 15.5309C43.1824 15.5285 43.1812 15.5273 43.1801 15.5273C42.0949 14.3812 40.6184 13.7273 38.898 13.5539C38.7246 13.5352 38.5477 13.5223 38.3684 13.5152C38.3461 13.5141 38.3227 13.5129 38.2992 13.5117C38.1949 13.5082 38.0883 13.5105 37.9828 13.5152H31.4086V5.49258C31.4086 5.27578 31.1918 4.60664 31.0066 4.11445C31.0055 4.11094 31.0043 4.10859 31.0031 4.10508C30.927 3.90234 30.8578 3.73125 30.8109 3.63516C29.7762 1.50938 27.6012 0.222656 25.2668 0.0984375C24.934 0.0808594 24.5742 0.0621094 24.1957 0.0457031C24.102 0.0421875 24.007 0.0375 23.9109 0.0339844C23.8277 0.0304687 23.7434 0.028125 23.6578 0.0257812C23.5793 0.0222656 23.4996 0.0199219 23.4187 0.0175781C23.3238 0.0152344 23.2277 0.0128906 23.1316 0.0105469C23.1152 0.0105469 23.0988 0.009375 23.0824 0.009375C22.9734 0.00703125 22.8621 0.0046875 22.7508 0.00351562C22.4566 -0.00117187 22.1566 -0.00117187 21.8555 0.00351562C21.75 0.00351562 21.6434 0.00703125 21.5367 0.009375C21.5215 0.009375 21.5063 0.0105469 21.491 0.0105469H21.4887C21.3809 0.0128906 21.2742 0.0164063 21.1664 0.0210938H21.1641C21.0574 0.0257813 20.9496 0.0304687 20.843 0.0363281C20.7352 0.0410156 20.6285 0.0480469 20.5219 0.0550781C20.4434 0.0609375 20.3648 0.0667969 20.2863 0.0726563C20.2688 0.0738281 20.2523 0.0761719 20.2359 0.0773438C20.1891 0.0808594 20.1422 0.0855469 20.0941 0.0902344C20.0191 0.0960937 19.9453 0.104297 19.8715 0.111328C19.7895 0.119531 19.7074 0.128906 19.6266 0.139453C19.2879 0.179297 18.9574 0.230859 18.6398 0.295312C18.5848 0.305859 18.5309 0.317578 18.477 0.329297C18.4207 0.341016 18.3668 0.353906 18.3117 0.366797C18.2578 0.379688 18.2039 0.392578 18.15 0.406641C18.0973 0.420703 18.0445 0.434766 17.9918 0.448828C17.7785 0.508594 17.5734 0.574219 17.3801 0.649219C17.3355 0.665625 17.291 0.683203 17.2465 0.701953C17.2078 0.718359 17.1691 0.734766 17.1305 0.751172C17.1 0.765234 17.0695 0.778125 17.0391 0.792188C17.0109 0.805078 16.984 0.817969 16.957 0.832031C16.9184 0.849609 16.882 0.869531 16.8445 0.888281C13.1262 2.83242 13.2867 6.50156 13.4238 10.1355V13.609H7.75195C6.00469 13.5914 4.51523 13.5023 2.86758 14.5852C1.29609 15.6188 0.451172 17.1562 0 18.9539V26.1445C0.465234 28.0148 1.33359 29.5336 2.99063 30.566C4.125 31.275 5.15977 31.4625 6.26133 31.5012H6.28359C6.72656 31.5176 7.17891 31.5094 7.65352 31.5012H13.2902C13.3887 31.5176 13.5105 31.5527 13.5105 31.6266V39.607C13.5105 41.3344 15.259 43.3066 16.6688 44.1234C17.4094 44.5523 18.0141 44.816 18.8625 45H25.9687C26.0191 44.8758 26.1422 44.9309 26.2312 44.9121C29.2512 44.2793 31.7273 41.5793 31.4121 38.3742C31.2715 36.9352 29.4211 36.3715 28.4215 37.4109C27.8285 38.0273 28.0113 38.5254 27.8777 39.2355C27.7125 40.1168 26.9754 40.9934 26.1445 41.3168C25.9219 41.4035 25.5551 41.4762 25.3137 41.4949C23.8406 41.6109 21.1605 41.6215 19.6969 41.4902C18.3223 41.3672 17.1598 40.398 17.0203 38.9918C16.7332 36.082 17.284 32.6977 17.0262 29.7738C17.0109 29.6051 16.9465 29.5453 16.9324 29.4773C16.7566 28.6301 16.2527 28.1297 15.3738 28.009C13.4953 27.7512 10.6816 28.0066 8.68594 27.9867C6.78281 27.968 4.33711 28.4074 3.63984 26.059C3.34805 25.0793 3.42305 21.0609 3.50508 19.8703C3.72422 16.7227 6.37031 17.1352 8.68594 17.1117C10.7262 17.0918 13.2539 17.3063 15.2203 17.1117C16.3277 17.0016 16.9289 16.3172 17.0227 15.2297C17.2828 12.2215 16.8223 8.84531 17.0203 5.79844C17.3086 4.87383 17.9906 4.0207 18.948 3.73594C19.909 3.45117 24.102 3.51211 25.2668 3.60703C26.5676 3.71133 27.5414 4.52695 27.859 5.79375C28.1121 8.83711 27.6574 12.1289 27.8953 15.1418C27.9902 16.3395 28.5703 17.0004 29.7867 17.1105C31.984 17.3098 34.6699 17.0836 36.9352 17.1117C38.2441 17.1293 39.5707 16.8633 40.5785 17.898C41.0379 18.3703 41.3566 19.1297 41.4129 19.7836C41.5348 21.2039 41.5348 23.8945 41.4129 25.3148C41.3063 26.5418 40.4203 27.7676 39.1512 27.9656C37.6734 28.1953 35.1996 27.9762 33.6012 27.9867C32.4645 27.9938 30.0891 27.8051 29.1281 28.1191C27.4699 28.6605 27.6398 31.1555 29.1902 31.4742C29.3637 31.5094 29.577 31.534 29.8172 31.548H29.8277C30.3691 31.5809 31.0441 31.5691 31.7039 31.548H36.1582C37.2961 31.5738 38.4422 31.5809 39.4336 31.493C42.0949 31.2562 44.6027 28.6863 44.9191 26.0566C44.9684 25.6477 44.9918 25.2199 44.9977 24.7816V19.1812Z" fill="url(#paint0_linear_615_570)"/>
<defs>
<linearGradient id="paint0_linear_615_570" x1="-4.4998" y1="-14.1429" x2="72.3955" y2="-5.19841" gradientUnits="userSpaceOnUse">
<stop stop-color="#5EE0B6"/>
<stop offset="1" stop-color="#0F2A20"/>
</linearGradient>
</defs>
</svg>
