<svg width="45" height="45" viewBox="0 0 45 45" fill="none" xmlns="http://www.w3.org/2000/svg">
<path d="M44.2013 14.1136C42.2624 12.5009 39.2593 10.8574 37.0893 9.40454C34.5774 7.72234 32.0479 6.06739 29.5308 4.39485C27.9119 3.31909 26.3413 2.13698 24.6942 1.09198L24.6925 1.0911C23.2388 0.122557 23.2212 0.0118162 22.8512 0.00126951L22.8169 0.000390619C22.7563 -0.000488274 22.6877 0.000390619 22.6025 0.000390619H22.1481C21.2903 0.409955 20.4949 0.963657 19.7021 1.50681L19.6925 1.51296C19.4859 1.65535 19.2794 1.79597 19.072 1.93395C17.366 3.06421 15.6768 4.22698 13.9744 5.36163C11.9529 6.7081 9.92797 8.0528 7.91003 9.40454C7.41258 9.73764 6.87118 10.0804 6.30869 10.4311L0.870104 14.0548C0.845495 14.0741 0.821764 14.0934 0.798034 14.1136C0.401654 14.4441 0.203903 14.7324 0 15.2052V15.9962C0.560733 17.4657 1.85798 17.6152 3.00845 16.9103L3.01372 16.9076C3.09458 16.8584 3.17456 16.8048 3.25278 16.7468C3.31167 16.7046 3.36967 16.6589 3.42768 16.6115V43.4616C3.42768 44.0865 4.27845 44.8195 4.83391 44.9997H40.1654C40.7956 44.7747 41.5716 44.0909 41.5716 43.3737V16.6115C42.81 17.6327 44.3691 17.6477 44.9993 15.9962V15.2052C44.7954 14.7324 44.5976 14.4441 44.2013 14.1136ZM27.6851 41.4841C27.3344 41.4876 26.9811 41.4797 26.6304 41.4841C24.5536 41.5105 22.4671 41.4929 20.3903 41.4841C19.3664 41.4797 18.3381 41.4876 17.3142 41.4841V29.0478C17.3142 27.2953 18.9727 25.229 20.5661 24.6094C22.49 23.8614 24.979 24.3721 26.3668 25.9277C26.9117 26.5386 27.6851 28.2375 27.6851 29.0478V41.4841ZM38.0578 41.4331C38.0429 41.5289 37.6491 41.4797 37.5287 41.4841C35.8342 41.5421 34.0439 41.5026 32.3432 41.4841C31.9636 41.4797 31.5804 41.4868 31.1998 41.485L31.2042 29.2201C31.0205 25.9462 29.4113 23.3306 26.5426 21.7969C24.5255 20.7185 22.7229 20.4795 20.4782 21.0059C16.6251 21.9094 13.9691 25.2747 13.7951 29.2201L13.7995 41.485C12.6578 41.4841 11.5126 41.4841 10.3709 41.4841H6.94325V15.0989L6.93798 15.1015V14.2798L8.05153 13.5345C8.06472 13.5055 8.07614 13.4764 8.08581 13.4474C8.14909 13.4264 8.21325 13.4053 8.27653 13.3842L14.0658 9.50825C14.0948 9.47397 14.1229 9.4397 14.1502 9.40454C15.8508 8.26901 17.5436 7.1036 19.2477 5.97686C19.812 5.60421 20.3921 5.25089 20.9669 4.88879C21.4775 4.56712 21.9846 4.23841 22.4715 3.88158C22.5664 3.86664 23.1439 4.29993 23.2907 4.39485C25.3517 5.72286 27.338 7.17567 29.4429 8.43776C31.8968 10.2298 34.5053 11.8057 37.0014 13.5353C37.3301 13.7638 38.0077 14.0671 38.0604 14.4538L38.0578 41.4331Z" fill="url(#paint0_linear_615_558)"/>
<path d="M29.6563 13.8342C29.5482 13.8131 29.4445 13.7999 29.3469 13.792C29.0059 13.7621 28.7537 13.7929 28.7537 13.7929C24.3996 13.756 20.0421 13.8368 15.6863 13.7955C13.185 14.0117 13.3335 17.1318 15.4226 17.3181C17.5882 17.5115 20.3541 17.3164 22.5891 17.3146C24.7732 17.3129 27.4634 17.5062 29.5798 17.3181C30.5501 17.2311 31.0783 16.5324 31.1557 15.7853C31.1574 15.7695 31.1592 15.7546 31.1601 15.7379C31.1627 15.7142 31.1636 15.6913 31.1645 15.6676C31.1653 15.643 31.1662 15.6175 31.1662 15.5929V15.5894C31.1662 15.5384 31.1636 15.4865 31.1592 15.4355C31.0906 14.3361 30.3111 13.9564 29.6563 13.8342Z" fill="url(#paint1_linear_615_558)"/>
<defs>
<linearGradient id="paint0_linear_615_558" x1="-4.49997" y1="-14.1428" x2="72.398" y2="-5.1976" gradientUnits="userSpaceOnUse">
<stop stop-color="#5EE0B6"/>
<stop offset="1" stop-color="#0F2A20"/>
</linearGradient>
<linearGradient id="paint1_linear_615_558" x1="12.0994" y1="12.6398" x2="35.026" y2="25.3937" gradientUnits="userSpaceOnUse">
<stop stop-color="#5EE0B6"/>
<stop offset="1" stop-color="#0F2A20"/>
</linearGradient>
</defs>
</svg>
