<svg width="50" height="45" viewBox="0 0 50 45" fill="none" xmlns="http://www.w3.org/2000/svg">
<path d="M49.9883 26.0741C49.9647 25.132 50.184 24.1371 49.2543 23.5349C48.7659 23.2172 48.34 23.2158 47.803 23.374C47.1759 23.5585 46.9108 23.8915 46.7624 24.5159C46.6125 25.1472 46.6722 25.6342 46.6583 26.2822C46.6417 27.0065 46.6639 27.7377 46.6583 28.4633C46.6528 29.2584 46.6611 30.0576 46.6583 30.8512C46.6555 31.6116 46.6625 32.3761 46.6583 33.1364C46.6542 33.8968 46.6653 34.6613 46.6583 35.4217C46.65 36.2833 46.6916 37.1574 46.6583 38.0177C46.6333 38.6642 46.6444 39.3899 46.3461 39.9921C46.2476 40.1891 45.4873 41.0258 45.3055 41.134C44.9004 41.374 44.1136 41.5169 43.6405 41.5489C42.9717 41.5946 42.2391 41.5391 41.5593 41.5489C40.9363 41.5586 40.3091 41.5447 39.6861 41.5489C39.0978 41.553 38.5054 41.5461 37.9171 41.5489C37.2247 41.553 36.5282 41.5475 35.8358 41.5489C35.2128 41.5516 34.5857 41.5475 33.9627 41.5489C33.2703 41.5516 32.5738 41.5475 31.8814 41.5489C31.0503 41.5516 30.215 41.5475 29.3839 41.5489C28.6569 41.5489 27.9257 41.5489 27.1986 41.5489C26.5756 41.5489 25.9485 41.5489 25.3255 41.5489C24.6678 41.5489 24.006 41.5489 23.3483 41.5489C22.6213 41.5489 21.89 41.5489 21.163 41.5489C20.1584 41.5475 19.1497 41.5516 18.1452 41.5489C17.3141 41.5475 16.4788 41.5516 15.6477 41.5489C15.0247 41.5475 14.3975 41.5516 13.7746 41.5489C12.0083 41.5433 10.2337 41.5738 8.46736 41.5489C6.93417 41.5281 5.31635 41.8375 4.15917 40.604C3.02281 39.3899 3.38356 37.1047 3.3683 35.5257C3.34887 33.5541 3.37385 31.5769 3.3683 29.6053C3.36552 28.8102 3.36969 28.011 3.3683 27.2174C3.36691 26.4223 3.36691 25.6231 3.3683 24.8281C3.36969 24.0677 3.36552 23.3032 3.3683 22.5429C3.37107 21.7478 3.36414 20.9486 3.3683 20.1536C3.37107 19.4626 3.36275 18.7675 3.3683 18.0765C3.37524 17.2482 3.34471 16.4115 3.3683 15.5846C3.38772 14.9061 3.31696 14.043 3.57642 13.4034C3.69159 13.119 4.2563 12.4599 4.51299 12.2615C5.09157 11.8133 5.67571 11.6829 6.38611 11.6371C7.35597 11.5761 8.42019 11.6468 9.40393 11.6371C10.2004 11.6302 11.0009 11.6413 11.7974 11.6371C12.4897 11.6343 13.1863 11.6399 13.8786 11.6371C14.571 11.6357 15.2675 11.6399 15.9599 11.6371C16.6869 11.6357 17.4181 11.6385 18.1452 11.6371C18.7682 11.6371 19.3953 11.6385 20.0183 11.6371C20.7454 11.6371 21.4766 11.6385 22.2036 11.6371C22.8613 11.6371 23.5231 11.6385 24.1808 11.6371H26.4702C27.0932 11.6385 27.7203 11.6371 28.3433 11.6371C29.0357 11.6385 29.7322 11.6371 30.4246 11.6371C31.0475 11.6385 31.6747 11.6371 32.2977 11.6371C32.9554 11.6385 33.6172 11.6357 34.2749 11.6371C34.8979 11.6399 35.525 11.6357 36.148 11.6371C36.8057 11.6399 37.4675 11.6343 38.1252 11.6371C38.7829 11.6413 39.4447 11.633 40.1024 11.6371C40.6907 11.6427 41.2831 11.6274 41.8714 11.6371C42.5305 11.6482 43.3214 11.5705 43.9527 11.6371C45.0169 11.7509 46.0714 12.4946 46.4502 13.5075C46.6236 13.9695 46.6333 14.3788 46.6583 14.8575C46.6861 15.4014 46.7249 16.1326 46.5543 16.6224C46.4668 16.5655 44.7838 16.6252 44.473 16.6224C43.85 16.6183 43.2229 16.6252 42.5999 16.6224C42.0116 16.621 41.4191 16.6252 40.8308 16.6224C40.2078 16.621 39.5807 16.6238 38.9577 16.6224C38.2653 16.621 37.5688 16.6238 36.8764 16.6224C36.2534 16.6224 35.6263 16.6238 35.0033 16.6224C34.3456 16.6224 33.6838 16.6238 33.0261 16.6224C32.2644 16.6224 31.4985 16.6238 30.7367 16.6224C29.9403 16.6224 29.1397 16.6238 28.3433 16.6224H26.5742C25.9166 16.6238 25.2547 16.6224 24.5971 16.6224C23.9047 16.6238 23.2082 16.6224 22.5158 16.6224C21.8234 16.6238 21.1269 16.621 20.4346 16.6224C19.7769 16.6238 19.115 16.621 18.4574 16.6224C17.7997 16.6252 17.1379 16.621 16.4802 16.6224C15.6144 16.6266 14.7444 16.6183 13.8786 16.6224C12.8741 16.628 11.8654 16.6085 10.8608 16.6224C10.0949 16.6335 9.20968 16.5544 8.46736 16.6224C7.67094 16.696 7.25469 16.8319 6.90642 17.5576C6.61089 18.175 6.59146 18.6815 7.01049 19.2725C7.55994 20.0482 8.2634 19.9205 9.09174 19.9469C9.74803 19.9677 10.4126 19.9399 11.0689 19.9469C11.8307 19.9552 12.5966 19.9427 13.3583 19.9469C14.3975 19.9524 15.4409 19.9441 16.4802 19.9469C17.3113 19.9469 18.1466 19.9455 18.9777 19.9469C19.67 19.9469 20.3666 19.9455 21.0589 19.9469C21.7166 19.9469 22.3784 19.9455 23.0361 19.9469C23.6938 19.9469 24.3556 19.9455 25.0133 19.9469C25.7057 19.9469 26.4022 19.9455 27.0946 19.9469H29.1758C29.7294 19.9455 30.2872 19.9469 30.8408 19.9469C31.6719 19.9455 32.5072 19.9469 33.3383 19.9469C34.0654 19.9455 34.7966 19.9469 35.5236 19.9469C36.1813 19.9455 36.8431 19.9469 37.5008 19.9469C38.1585 19.9455 38.8203 19.9469 39.478 19.9469C40.1357 19.9455 40.7975 19.9469 41.4552 19.9469C42.1129 19.9441 42.7747 19.9496 43.4324 19.9469C44.0207 19.9441 44.6131 19.951 45.2014 19.9469C45.8244 19.9413 46.4516 19.9594 47.0746 19.9469C47.8155 19.9302 48.3649 20.0662 49.0518 19.7387C49.7261 19.4168 49.9245 19.0353 49.9883 18.2846C50.0175 17.9516 49.9786 17.5867 49.9883 17.2468C49.998 16.9013 49.9883 16.553 49.9883 16.2075C49.9883 15.8621 49.9994 15.5138 49.9883 15.1683C49.9814 14.9616 50.0008 14.7521 49.9883 14.5453C49.9703 14.2317 49.9203 14.068 49.8843 13.8183C49.4999 11.1584 47.9945 9.3866 45.4096 8.62625C44.9947 8.50415 44.9323 8.48056 44.473 8.41812C44.0526 8.36123 43.7806 8.32932 43.3283 8.31406C42.672 8.29186 42.0074 8.32238 41.3511 8.31406C40.6935 8.30712 40.0316 8.31683 39.3739 8.31406C38.751 8.31267 38.1224 8.32793 37.5008 8.31406C37.2247 8.30851 36.9444 8.31961 36.6683 8.31545C36.6641 7.93527 36.6739 7.55093 36.6683 7.17215C36.6572 6.41318 36.6947 5.64451 36.6683 4.88693C36.5809 2.35474 35.7526 0.523244 33.0261 0.109769C32.1603 -0.0220436 31.4152 0.0195814 30.5286 0.00570637C30.2178 0.000156368 29.9029 0.00848137 29.5921 0.00570637C29.0731 0.000156368 28.55 0.00848137 28.0311 0.00570637C27.0266 -0.00123113 26.0179 0.00570637 25.0133 0.00570637C24.2516 0.00570637 23.4857 0.00154387 22.7239 0.00570637C22.0663 0.00986887 21.4044 -0.00123113 20.7467 0.00570637C20.0891 0.0112564 19.4258 -0.00955614 18.7696 0.00570637C18.1091 0.0209689 17.6471 0.0168064 17.0005 0.109769C16.1541 0.230481 16.0431 0.252681 15.3355 0.732757C14.6986 1.16288 14.5155 1.34742 14.0867 1.97873C13.5304 2.79874 13.4194 3.24829 13.3583 4.26395C13.3236 4.83005 13.3569 5.45442 13.3583 6.02885C13.3597 6.61715 13.2529 7.82705 13.3583 8.31406H11.3811C10.6888 8.31406 9.99223 8.31128 9.29986 8.31406C8.50483 8.31683 7.70007 8.28908 6.90642 8.31406C5.62576 8.3543 5.19425 8.35152 3.99267 8.83298C3.21706 9.14517 3.06444 9.27282 2.43174 9.76816C1.85315 10.2219 1.61588 10.3731 1.18298 11.0141C0.873572 11.4734 0.644634 11.9479 0.454547 12.4682C0.170109 13.2508 0.0813089 13.7059 0.0382964 14.5453C0.00360884 15.2321 0.0466214 15.9356 0.0382964 16.6224C0.0285838 17.4175 0.0438464 18.2167 0.0382964 19.0117C0.0327463 19.772 0.0410714 20.5366 0.0382964 21.2969C0.0355214 22.0573 0.0410714 22.8218 0.0382964 23.5821C0.0355214 24.4105 0.0396839 25.2443 0.0382964 26.0741C0.0355214 28.011 0.0299713 29.9535 0.0382964 31.8905C0.0466214 34.0453 -0.0518912 36.293 0.0382964 38.4339C0.175659 41.7126 2.11261 44.2878 5.44955 44.7693C7.23526 45.0273 9.24159 44.8622 11.0689 44.8733C12.8019 44.883 14.5391 44.8691 16.2721 44.8733C16.895 44.8747 17.5222 44.8719 18.1452 44.8733C18.9763 44.8747 19.8116 44.8719 20.6427 44.8733C21.6472 44.8747 22.6559 44.8719 23.6605 44.8733H25.8458C26.5035 44.8719 27.1653 44.8733 27.823 44.8733C28.446 44.8719 29.0731 44.8733 29.6961 44.8733C30.4579 44.8719 31.2238 44.8747 31.9855 44.8733C32.7819 44.8705 33.5825 44.8747 34.3789 44.8733C35.0713 44.8705 35.7678 44.8761 36.4602 44.8733C37.1179 44.8705 37.7797 44.8761 38.4374 44.8733C39.1297 44.8691 39.8263 44.8789 40.5186 44.8733C41.0722 44.8678 41.63 44.883 42.1836 44.8733C42.7012 44.8636 43.2298 44.9011 43.7446 44.8733C44.5452 44.8289 45.071 44.7276 45.8258 44.4571C46.3475 44.2711 46.8234 44.038 47.2827 43.73C47.6018 43.5177 47.7988 43.3498 47.9737 43.1667C49.4014 41.7972 49.8815 41.0244 49.9744 39.2567C49.9828 39.1124 49.9869 38.9626 49.9897 38.8044V38.7697C49.9925 38.6795 49.9925 38.5879 49.9925 38.4922V38.495C49.9953 37.8859 49.9883 37.2754 49.9883 36.6676V31.9945C49.9883 31.2342 49.9925 30.4697 49.9883 29.7093C49.9855 29.1918 49.9925 28.6701 49.9883 28.1512C49.9828 27.4616 50.0064 26.7637 49.9883 26.0741ZM16.6883 4.78287C16.7063 4.32638 16.6939 3.47168 17.3127 3.32877C17.7622 3.2261 18.9402 3.33571 19.498 3.32877C20.121 3.32183 20.7481 3.33293 21.3711 3.32877C22.0288 3.326 22.6906 3.33155 23.3483 3.32877C24.006 3.32738 24.6678 3.32738 25.3255 3.32877C26.0872 3.33155 26.8531 3.32461 27.6149 3.32877C28.5847 3.33432 29.5588 3.31767 30.5286 3.32877C31.0739 3.33571 31.6567 3.29408 32.1936 3.32877C33.7657 3.43283 33.3314 4.80368 33.3383 6.02885C33.3425 6.7892 33.3355 7.55371 33.3383 8.31406C32.9179 8.24468 32.2436 8.32238 31.7774 8.31406C31.1197 8.30296 30.4579 8.31822 29.8002 8.31406C29.1425 8.31128 28.4807 8.31683 27.823 8.31406C27.1653 8.31267 26.5035 8.31545 25.8458 8.31406C25.1881 8.31267 24.5263 8.31545 23.8686 8.31406C23.1416 8.31406 22.4104 8.31545 21.6833 8.31406C21.0256 8.31267 20.3638 8.31545 19.7061 8.31406C18.9805 8.31267 18.2465 8.33071 17.5208 8.31406C17.2447 8.30712 16.9644 8.31961 16.6883 8.31545C16.6841 8.00465 16.6939 7.68968 16.6883 7.37888C16.6717 6.53528 16.655 5.6237 16.6883 4.78287Z" fill="url(#paint0_linear_615_565)"/>
<defs>
<linearGradient id="paint0_linear_615_565" x1="-4.99998" y1="-14.1162" x2="80.1705" y2="-3.08719" gradientUnits="userSpaceOnUse">
<stop stop-color="#5EE0B6"/>
<stop offset="1" stop-color="#0F2A20"/>
</linearGradient>
</defs>
</svg>
