<svg width="47" height="47" viewBox="0 0 47 47" fill="none" xmlns="http://www.w3.org/2000/svg">
<path d="M18.6045 9.79171V6.85421C18.6045 5.77265 19.4812 4.89587 20.5628 4.89587H40.1462C41.2277 4.89587 42.1045 5.77265 42.1045 6.85421V28.3959C42.1045 29.4775 41.2277 30.3542 40.1462 30.3542H36.2295" stroke="url(#paint0_linear_722_389)" stroke-width="4" stroke-linecap="round" stroke-linejoin="round"/>
<path d="M26.4372 17.625H6.85384C5.77228 17.625 4.89551 18.5018 4.89551 19.5833V39.1667C4.89551 40.2482 5.77228 41.125 6.85384 41.125H26.4372C27.5187 41.125 28.3955 40.2482 28.3955 39.1667V19.5833C28.3955 18.5018 27.5187 17.625 26.4372 17.625Z" stroke="url(#paint1_linear_722_389)" stroke-width="4" stroke-linecap="round" stroke-linejoin="round"/>
<path d="M16.6455 24.4791V34.2708" stroke="url(#paint2_linear_722_389)" stroke-width="4" stroke-linecap="round" stroke-linejoin="round"/>
<path d="M11.75 29.375H21.5417" stroke="url(#paint3_linear_722_389)" stroke-width="4" stroke-linecap="round" stroke-linejoin="round"/>
<defs>
<linearGradient id="paint0_linear_722_389" x1="16.2545" y1="-3.10532" x2="56.4924" y2="1.21534" gradientUnits="userSpaceOnUse">
<stop stop-color="#5EE0B6"/>
<stop offset="1" stop-color="#0F2A20"/>
</linearGradient>
<linearGradient id="paint1_linear_722_389" x1="2.54549" y1="10.2393" x2="42.7039" y2="14.9108" gradientUnits="userSpaceOnUse">
<stop stop-color="#5EE0B6"/>
<stop offset="1" stop-color="#0F2A20"/>
</linearGradient>
<linearGradient id="paint2_linear_722_389" x1="16.5455" y1="21.4017" x2="18.2773" y2="21.4223" gradientUnits="userSpaceOnUse">
<stop stop-color="#5EE0B6"/>
<stop offset="1" stop-color="#0F2A20"/>
</linearGradient>
<linearGradient id="paint3_linear_722_389" x1="10.7708" y1="29.0607" x2="18.1528" y2="37.4689" gradientUnits="userSpaceOnUse">
<stop stop-color="#5EE0B6"/>
<stop offset="1" stop-color="#0F2A20"/>
</linearGradient>
</defs>
</svg>
