<svg width="143" height="106" viewBox="0 0 143 106" fill="none" xmlns="http://www.w3.org/2000/svg">
<path d="M0.00374985 102.978V95.985C0.00374985 94.3821 1.26242 93.0457 2.86168 92.9864C12.1277 92.6347 22.0083 89.6398 26.969 81.3289C29.6085 76.9124 30.6302 71.3743 30.6228 66.2655C30.6228 65.2327 30.608 62.6265 30.4525 61.7751C30.3933 61.4604 30.3563 61.2123 29.9972 61.1198L2.99865 61.0865C1.34016 61.0865 4.57764e-05 59.739 4.57764e-05 58.0842V3.00243C4.57764e-05 1.34395 1.34387 0.000137329 3.00236 0.000137329H57.6214C59.2798 0.000137329 60.6237 1.34395 60.6237 3.00243L60.6348 66.2322C59.7611 83.5871 51.191 94.9559 35.0911 100.861C24.8366 104.625 13.9676 105.64 3.09491 105.98C1.4031 106.032 0.00374985 104.67 0.00374985 102.978Z" fill="url(#paint0_linear_615_495)" fill-opacity="0.5"/>
<path d="M141.736 66.6356C141.462 71.1002 140.303 76.8716 138.548 81.0696C129.956 101.63 104.323 105.432 84.2031 105.999C82.5113 106.047 81.1157 104.688 81.1157 102.996V95.9849C81.1157 94.3634 82.4039 93.0492 84.0254 92.9826C93.6394 92.6013 103.812 89.351 108.566 80.4255C111.202 75.4796 111.864 69.5084 111.535 63.885C111.442 62.308 110.117 61.0826 108.536 61.0826H84.1143C82.4558 61.0826 81.1119 59.7388 81.1119 58.0803V3.0023C81.1119 1.34381 82.4558 0 84.1143 0H138.618C140.314 0 141.673 1.39934 141.617 3.09114C140.947 24.0184 143.009 45.9416 141.736 66.6356Z" fill="url(#paint1_linear_615_495)" fill-opacity="0.5"/>
<defs>
<linearGradient id="paint0_linear_615_495" x1="66.3928" y1="178.469" x2="-63.3804" y2="147.506" gradientUnits="userSpaceOnUse">
<stop offset="0.0572756" stop-color="#5EE0B6"/>
<stop offset="0.298763" stop-color="#2F8F5B" stop-opacity="0.7"/>
<stop offset="0.903846" stop-color="#0F2A20" stop-opacity="0"/>
</linearGradient>
<linearGradient id="paint1_linear_615_495" x1="147.957" y1="178.5" x2="17.3931" y2="147.141" gradientUnits="userSpaceOnUse">
<stop offset="0.0572756" stop-color="#5EE0B6"/>
<stop offset="0.298763" stop-color="#2F8F5B" stop-opacity="0.7"/>
<stop offset="0.903846" stop-color="#0F2A20" stop-opacity="0"/>
</linearGradient>
</defs>
</svg>
