<svg width="143" height="106" viewBox="0 0 143 106" fill="none" xmlns="http://www.w3.org/2000/svg">
<path d="M142.156 3.02199V10.015C142.156 11.618 140.898 12.9544 139.298 13.0136C130.032 13.3653 120.152 16.3602 115.191 24.6712C112.552 29.0876 111.53 34.6258 111.537 39.7345C111.537 40.7674 111.552 43.3736 111.708 44.225C111.767 44.5397 111.804 44.7877 112.163 44.8803L139.162 44.9136C140.82 44.9136 142.16 46.2611 142.16 47.9159V102.998C142.16 104.656 140.816 106 139.158 106H84.5388C82.8803 106 81.5365 104.656 81.5365 102.998L81.5254 39.7678C82.3991 22.413 90.9691 11.0442 107.069 5.13952C117.324 1.3746 128.193 0.360263 139.065 0.0196808C140.757 -0.0321469 142.156 1.33018 142.156 3.02199Z" fill="url(#paint0_linear_615_492)" fill-opacity="0.5"/>
<path d="M0.424606 39.3644C0.698552 34.8998 1.85727 29.1284 3.61201 24.9304C12.2043 4.36957 37.8368 0.567643 57.9571 0.00124023C59.6489 -0.0468855 61.0445 1.31174 61.0445 3.00355V10.0151C61.0445 11.6366 59.7562 12.9508 58.1348 13.0174C48.5207 13.3987 38.3477 16.649 33.5943 25.5745C30.9585 30.5204 30.2959 36.4916 30.6254 42.115C30.7179 43.692 32.0432 44.9174 33.624 44.9174H58.0459C59.7044 44.9174 61.0482 46.2612 61.0482 47.9197V102.998C61.0482 104.656 59.7044 106 58.0459 106H3.54167C1.84617 106 0.487539 104.601 0.543069 102.909C1.21313 81.9816 -0.848875 60.0584 0.424606 39.3644Z" fill="url(#paint1_linear_615_492)" fill-opacity="0.5"/>
<defs>
<linearGradient id="paint0_linear_615_492" x1="75.7673" y1="-72.4692" x2="205.541" y2="-41.5058" gradientUnits="userSpaceOnUse">
<stop offset="0.0572756" stop-color="#5EE0B6"/>
<stop offset="0.298763" stop-color="#2F8F5B" stop-opacity="0.7"/>
<stop offset="0.903846" stop-color="#0F2A20" stop-opacity="0"/>
</linearGradient>
<linearGradient id="paint1_linear_615_492" x1="-5.79734" y1="-72.5" x2="124.767" y2="-41.1408" gradientUnits="userSpaceOnUse">
<stop offset="0.0572756" stop-color="#5EE0B6"/>
<stop offset="0.298763" stop-color="#2F8F5B" stop-opacity="0.7"/>
<stop offset="0.903846" stop-color="#0F2A20" stop-opacity="0"/>
</linearGradient>
</defs>
</svg>
